SplineFontDB: 3.2
FontName: Arcomp_mono-Bold
FullName: Arcomp_mono_Bold
FamilyName: Arcomp_mono
Weight: Bold
Copyright: (copyleft) 2025 GraphiX\n
Version: 1.0
ItalicAngle: 0
UnderlinePosition: -519
UnderlineWidth: 84
Ascent: 1638
Descent: 410
InvalidEm: 0
sfntRevision: 0x00010000
LayerCount: 2
Layer: 0 1 "Back" 1
Layer: 1 1 "Fore" 0
StyleMap: 0x0020
FSType: 8
OS2Version: 3
OS2_WeightWidthSlopeOnly: 0
OS2_UseTypoMetrics: 0
CreationTime: 1752556535
ModificationTime: 1764287443
PfmFamily: 49
TTFWeight: 700
TTFWidth: 5
LineGap: 0
VLineGap: 0
Panose: 2 7 3 9 2 2 5 2 4 4
OS2TypoAscent: 1255
OS2TypoAOffset: 0
OS2TypoDescent: -386
OS2TypoDOffset: 0
OS2TypoLinegap: 0
OS2WinAscent: 1705
OS2WinAOffset: 0
OS2WinDescent: 615
OS2WinDOffset: 0
HheadAscent: 1705
HheadAOffset: 0
HheadDescent: -615
HheadDOffset: 0
OS2SubXSize: 1434
OS2SubYSize: 1331
OS2SubXOff: 0
OS2SubYOff: 285
OS2SupXSize: 1434
OS2SupYSize: 1331
OS2SupXOff: 0
OS2SupYOff: 865
OS2StrikeYSize: 102
OS2StrikeYPos: 530
OS2CapHeight: 1170
OS2XHeight: 866
OS2FamilyClass: 1285
OS2Vendor: 'TMC '
OS2CodePages: 400001ff.ffff0000
OS2UnicodeRanges: e0002eff.c0007843.00000009.00000000
Lookup: 1 0 0 "'locl' Localized Forms in Latin lookup 0" { "'locl' Localized Forms in Latin lookup 0 subtable"  } ['locl' ('latn' <'LTH ' > ) ]
Lookup: 1 0 0 "'locl' Localized Forms in Latin lookup 1" { "'locl' Localized Forms in Latin lookup 1 subtable"  } ['locl' ('latn' <'ROM ' > ) ]
Lookup: 4 1 0 "'ccmp' Glyph Composition/Decomposition in Arabic lookup 2" { "'ccmp' Glyph Composition/Decomposition in Arabic lookup 2 subtable"  } ['ccmp' ('arab' <'FAR ' 'MLY ' 'SND ' 'URD ' 'dflt' > ) ]
Lookup: 1 1 0 "'ccmp' Glyph Composition/Decomposition in Arabic lookup 3" { "'ccmp' Glyph Composition/Decomposition in Arabic lookup 3 subtable"  } ['ccmp' ('arab' <'FAR ' 'MLY ' 'SND ' 'URD ' 'dflt' > ) ]
Lookup: 1 1 0 "'locl' Localized Forms in Arabic lookup 4" { "'locl' Localized Forms in Arabic lookup 4 subtable"  } ['locl' ('arab' <'URD ' > ) ]

StartChar: exclam
Encoding: 33 33 1
Width: 1229
GlyphClass: 2
Flags: W
LayerCount: 2
Fore
SplineSet
608 196.995882121 m 128,-1,1
 652.702602688 196.995882121 652.702602688 196.995882121 684.849242405 164.849242405 c 128,-1,2
 716.995882121 132.702602688 716.995882121 132.702602688 716.995882121 88 c 128,-1,3
 716.995882121 43.2973973115 716.995882121 43.2973973115 684.849242405 11.1507575951 c 128,-1,4
 652.702602688 -20.9958821214 652.702602688 -20.9958821214 608 -20.9958821214 c 128,-1,5
 563.297397312 -20.9958821214 563.297397312 -20.9958821214 531.150757595 11.1507575951 c 128,-1,6
 499.004117879 43.2973973115 499.004117879 43.2973973115 499.004117879 88 c 128,-1,7
 499.004117879 132.702602688 499.004117879 132.702602688 531.150757595 164.849242405 c 128,-1,0
 563.297397312 196.995882121 563.297397312 196.995882121 608 196.995882121 c 128,-1,1
608 1208.99588212 m 128,-1,9
 633.702602688 1208.99588212 633.702602688 1208.99588212 652.349242405 1190.3492424 c 128,-1,10
 670.995882121 1171.70260269 670.995882121 1171.70260269 670.995882121 1146 c 2,11,-1
 670.995882121 410 l 2,12,13
 670.995882121 384.297397312 670.995882121 384.297397312 652.349242405 365.650757595 c 128,-1,14
 633.702602688 347.004117879 633.702602688 347.004117879 608 347.004117879 c 128,-1,15
 582.297397312 347.004117879 582.297397312 347.004117879 563.650757595 365.650757595 c 128,-1,16
 545.004117879 384.297397312 545.004117879 384.297397312 545.004117879 410 c 2,17,-1
 545.004117879 1146 l 2,18,19
 545.004117879 1171.70260269 545.004117879 1171.70260269 563.650757595 1190.3492424 c 128,-1,8
 582.297397312 1208.99588212 582.297397312 1208.99588212 608 1208.99588212 c 128,-1,9
EndSplineSet
Validated: 1
EndChar

StartChar: quotedbl
Encoding: 34 34 2
Width: 1229
GlyphClass: 2
Flags: W
LayerCount: 2
Fore
SplineSet
792.03515625 1209.16678056 m 128,-1,1
 836.815395657 1209.16678056 836.815395657 1209.16678056 868.923217014 1177.0589592 c 128,-1,2
 901.031038371 1144.95113785 901.031038371 1144.95113785 901.031038371 1100.17089844 c 0,3,4
 901.031038371 1089.31131025 901.031038371 1089.31131025 898.798662795 1078.36586764 c 2,5,-1
 853.759707567 857.555846724 l 2,6,7
 849.436958645 836.360182245 849.436958645 836.360182245 831.05995011 821.767599281 c 128,-1,8
 812.682941574 807.175016317 812.682941574 807.175016317 792.03515625 807.175016317 c 0,9,10
 766.946772588 807.175016317 766.946772588 807.175016317 746.925654992 827.196133912 c 0,11,12
 733.834578828 840.287210077 733.834578828 840.287210077 730.312680616 857.554269269 c 0,13,14
 685.203711414 1078.70344097 685.203711414 1078.70344097 684.121141915 1083.76203974 c 128,-1,15
 683.038572416 1088.8206385 683.038572416 1088.8206385 683.038572416 1094.39597294 c 128,-1,16
 683.038572416 1099.97130738 683.038572416 1099.97130738 683.039274129 1100.17089844 c 0,17,18
 683.039274129 1144.95113785 683.039274129 1144.95113785 715.147095486 1177.0589592 c 128,-1,0
 747.254916843 1209.16678056 747.254916843 1209.16678056 792.03515625 1209.16678056 c 128,-1,1
424 1208.99588212 m 128,-1,20
 468.702602688 1208.99588212 468.702602688 1208.99588212 500.849242405 1176.8492424 c 128,-1,21
 532.995882121 1144.70260269 532.995882121 1144.70260269 532.995882121 1100 c 0,22,23
 532.995882121 1089.14041181 532.995882121 1089.14041181 530.763506545 1078.1949692 c 2,24,-1
 485.724508219 857.384736967 l 2,25,26
 481.401694315 836.189862849 481.401694315 836.189862849 463.024690853 821.596990364 c 128,-1,27
 444.64768739 807.004117879 444.64768739 807.004117879 424 807.004117879 c 0,28,29
 398.911825496 807.004117879 398.911825496 807.004117879 378.890920966 827.025022409 c 0,30,31
 365.799387706 840.116555668 365.799387706 840.116555668 362.277524366 857.384347394 c 2,32,-1
 317.167159731 1078.54036028 l 2,33,34
 315.004681325 1089.1874217 315.004681325 1089.1874217 315.004117879 1100 c 0,35,36
 315.004117879 1144.70260269 315.004117879 1144.70260269 347.150757595 1176.8492424 c 128,-1,19
 379.297397312 1208.99588212 379.297397312 1208.99588212 424 1208.99588212 c 128,-1,20
685.133842887 1079.10822104 m 0,37,38
 685.13724575 1079.10822104 685.13724575 1079.10822104 684.97520978 1080.25180527 c 1,39,40
 685.039120331 1079.67661019 685.039120331 1079.67661019 685.133842887 1079.10822104 c 0,37,38
530.876012836 1078.78904517 m 1,41,42
 530.84913416 1078.6556017 530.84913416 1078.6556017 530.821914679 1078.5221843 c 1,43,-1
 530.876012836 1078.78904517 l 1,41,42
EndSplineSet
Validated: 1
EndChar

StartChar: numbersign
Encoding: 35 35 3
Width: 1229
GlyphClass: 2
Flags: W
LayerCount: 2
Fore
SplineSet
424 1208.99588212 m 128,-1,1
 449.702602688 1208.99588212 449.702602688 1208.99588212 468.349242405 1190.3492424 c 128,-1,2
 486.995882121 1171.70260269 486.995882121 1171.70260269 486.995882121 1146 c 2,3,-1
 486.995882121 840.995882121 l 1,4,-1
 729.004117879 840.995882121 l 1,5,-1
 729.004117879 1146 l 2,6,7
 729.004117879 1171.70260269 729.004117879 1171.70260269 747.650757595 1190.3492424 c 128,-1,8
 766.297397312 1208.99588212 766.297397312 1208.99588212 792 1208.99588212 c 128,-1,9
 817.702602688 1208.99588212 817.702602688 1208.99588212 836.349242405 1190.3492424 c 128,-1,10
 854.995882121 1171.70260269 854.995882121 1171.70260269 854.995882121 1146 c 2,11,-1
 854.995882121 840.995882121 l 1,12,-1
 976 840.995882121 l 2,13,14
 1001.70260269 840.995882121 1001.70260269 840.995882121 1020.3492424 822.349242405 c 128,-1,15
 1038.99588212 803.702602688 1038.99588212 803.702602688 1038.99588212 778 c 128,-1,16
 1038.99588212 752.297397312 1038.99588212 752.297397312 1020.3492424 733.650757595 c 128,-1,17
 1001.70260269 715.004117879 1001.70260269 715.004117879 976 715.004117879 c 2,18,-1
 854.995882121 715.004117879 l 1,19,-1
 854.995882121 472.995882121 l 1,20,-1
 976 472.995882121 l 2,21,22
 1001.70260269 472.995882121 1001.70260269 472.995882121 1020.3492424 454.349242405 c 128,-1,23
 1038.99588212 435.702602688 1038.99588212 435.702602688 1038.99588212 410 c 128,-1,24
 1038.99588212 384.297397312 1038.99588212 384.297397312 1020.3492424 365.650757595 c 128,-1,25
 1001.70260269 347.004117879 1001.70260269 347.004117879 976 347.004117879 c 2,26,-1
 854.995882121 347.004117879 l 1,27,-1
 854.995882121 42 l 2,28,29
 854.995882121 16.2973973115 854.995882121 16.2973973115 836.349242405 -2.34924240492 c 128,-1,30
 817.702602688 -20.9958821214 817.702602688 -20.9958821214 792 -20.9958821214 c 128,-1,31
 766.297397312 -20.9958821214 766.297397312 -20.9958821214 747.650757595 -2.34924240492 c 128,-1,32
 729.004117879 16.2973973115 729.004117879 16.2973973115 729.004117879 42 c 2,33,-1
 729.004117879 347.004117879 l 1,34,-1
 486.995882121 347.004117879 l 1,35,-1
 486.995882121 42 l 2,36,37
 486.995882121 16.2973973115 486.995882121 16.2973973115 468.349242405 -2.34924240492 c 128,-1,38
 449.702602688 -20.9958821214 449.702602688 -20.9958821214 424 -20.9958821214 c 128,-1,39
 398.297397312 -20.9958821214 398.297397312 -20.9958821214 379.650757595 -2.34924240492 c 128,-1,40
 361.004117879 16.2973973115 361.004117879 16.2973973115 361.004117879 42 c 2,41,-1
 361.004117879 347.004117879 l 1,42,-1
 240 347.004117879 l 2,43,44
 214.297397312 347.004117879 214.297397312 347.004117879 195.650757595 365.650757595 c 128,-1,45
 177.004117879 384.297397312 177.004117879 384.297397312 177.004117879 410 c 128,-1,46
 177.004117879 435.702602688 177.004117879 435.702602688 195.650757595 454.349242405 c 128,-1,47
 214.297397312 472.995882121 214.297397312 472.995882121 240 472.995882121 c 2,48,-1
 361.004117879 472.995882121 l 1,49,-1
 361.004117879 715.004117879 l 1,50,-1
 240 715.004117879 l 2,51,52
 214.297397312 715.004117879 214.297397312 715.004117879 195.650757595 733.650757595 c 128,-1,53
 177.004117879 752.297397312 177.004117879 752.297397312 177.004117879 778 c 128,-1,54
 177.004117879 803.702602688 177.004117879 803.702602688 195.650757595 822.349242405 c 128,-1,55
 214.297397312 840.995882121 214.297397312 840.995882121 240 840.995882121 c 2,56,-1
 361.004117879 840.995882121 l 1,57,-1
 361.004117879 1146 l 2,58,59
 361.004117879 1171.70260269 361.004117879 1171.70260269 379.650757595 1190.3492424 c 128,-1,0
 398.297397312 1208.99588212 398.297397312 1208.99588212 424 1208.99588212 c 128,-1,1
729.004117879 715.004117879 m 1,60,-1
 486.995882121 715.004117879 l 1,61,-1
 486.995882121 472.995882121 l 1,62,-1
 729.004117879 472.995882121 l 1,63,-1
 729.004117879 715.004117879 l 1,60,-1
EndSplineSet
Validated: 1
EndChar

StartChar: dollar
Encoding: 36 36 4
Width: 1229
GlyphClass: 2
Flags: W
LayerCount: 2
Fore
SplineSet
608 1208.99588212 m 128,-1,1
 633.702602688 1208.99588212 633.702602688 1208.99588212 652.349242405 1190.3492424 c 128,-1,2
 670.995882121 1171.70260269 670.995882121 1171.70260269 670.995882121 1146 c 2,3,-1
 670.995882121 1023.58647122 l 1,4,5
 823.665121349 1016.60380152 823.665121349 1016.60380152 912.171338083 972.350693157 c 0,6,7
 971.105290304 942.883313726 971.105290304 942.883313726 1005.04472684 891.654867914 c 128,-1,8
 1038.98416337 840.426422102 1038.98416337 840.426422102 1038.98416337 778.00390625 c 0,9,10
 1038.98416337 751.904086765 1038.98416337 751.904086765 1020.53613205 733.456055447 c 128,-1,11
 1002.08810073 715.008024129 1002.08810073 715.008024129 975.98828125 715.008024129 c 128,-1,12
 949.888461764 715.008024129 949.888461764 715.008024129 931.440430447 733.456055447 c 128,-1,13
 912.992399129 751.904086764 912.992399129 751.904086764 912.992399129 779.68087533 c 0,14,15
 912.992399129 814.666646218 912.992399129 814.666646218 893.419833972 834.239211374 c 0,16,17
 880.20495121 847.454094137 880.20495121 847.454094137 855.81118579 859.651208969 c 0,18,19
 793.35799039 890.87780667 793.35799039 890.87780667 670.995882121 897.361598301 c 1,20,-1
 670.995882121 655.609650231 l 1,21,22
 823.651900005 648.625451686 823.651900005 648.625451686 912.155917076 604.372075532 c 0,23,24
 971.08820128 574.904723504 971.08820128 574.904723504 1005.02725338 523.676445196 c 128,-1,25
 1038.96630548 472.448166888 1038.96630548 472.448166888 1038.97439886 409.999996703 c 128,-1,26
 1038.97439886 347.588772313 1038.97439886 347.588772313 1004.85843032 296.086094606 c 0,27,28
 971.106098244 245.132375421 971.106098244 245.132375421 912.17169668 215.663158023 c 0,29,30
 823.670740387 171.409944821 823.670740387 171.409944821 670.995882121 164.427189177 c 1,31,-1
 670.995882121 42 l 2,32,33
 670.995882121 16.2973973115 670.995882121 16.2973973115 652.349242405 -2.34924240492 c 128,-1,34
 633.702602688 -20.9958821214 633.702602688 -20.9958821214 608 -20.9958821214 c 128,-1,35
 582.297397312 -20.9958821214 582.297397312 -20.9958821214 563.650757595 -2.34924240492 c 128,-1,36
 545.004117879 16.2973973115 545.004117879 16.2973973115 545.004117879 42 c 2,37,-1
 545.004117879 164.427190211 l 1,38,39
 392.33008636 171.409922369 392.33008636 171.409922369 303.826708792 215.662978718 c 0,40,41
 244.893136314 245.130168275 244.893136314 245.130168275 210.954486471 296.359517958 c 128,-1,42
 177.015836629 347.58886764 177.015836629 347.58886764 177.015836629 410.01171875 c 0,43,44
 177.015836629 436.111538236 177.015836629 436.111538236 195.463867947 454.559569553 c 128,-1,45
 213.911899264 473.007600871 213.911899264 473.007600871 240.01171875 473.007600871 c 128,-1,46
 266.111538236 473.007600871 266.111538236 473.007600871 284.559569553 454.559569553 c 128,-1,47
 303.007600871 436.111538236 303.007600871 436.111538236 303.007600871 408.334523484 c 0,48,49
 303.007600871 373.347548511 303.007600871 373.347548511 322.581314245 353.773835137 c 0,50,51
 335.796094518 340.559054865 335.796094518 340.559054865 360.18881421 328.362462906 c 0,52,53
 422.64200961 297.135865205 422.64200961 297.135865205 545.004117879 290.652073574 c 1,54,-1
 545.004117879 532.436770673 l 1,55,56
 392.329252699 539.418151713 392.329252699 539.418151713 303.82681079 583.670740219 c 0,57,58
 244.893854372 613.137218428 244.893854372 613.137218428 210.9548455 664.364503735 c 128,-1,59
 177.015836629 715.591789041 177.015836629 715.591789041 177.015836629 778.01171875 c 128,-1,60
 177.015836629 840.4324139 177.015836629 840.4324139 211.140641671 891.93918997 c 0,61,62
 244.89519659 942.887123574 244.89519659 942.887123574 303.828994219 972.352812431 c 0,63,64
 392.333947473 1016.60392147 392.333947473 1016.60392147 545.004117879 1023.58648131 c 1,65,-1
 545.004117879 1146 l 2,66,67
 545.004117879 1171.70260269 545.004117879 1171.70260269 563.650757595 1190.3492424 c 128,-1,0
 582.297397312 1208.99588212 582.297397312 1208.99588212 608 1208.99588212 c 128,-1,1
912.982633544 410.01236242 m 128,-1,69
 912.980202665 439.47036704 912.980202665 439.47036704 901.207173557 456.926044974 c 0,70,71
 888.95611132 475.090494822 888.95611132 475.090494822 855.793182203 491.672906081 c 0,72,73
 793.342600266 522.899550199 793.342600266 522.899550199 670.995882121 529.384696379 c 1,74,-1
 670.995882121 290.652067359 l 1,75,76
 793.361598231 297.135939531 793.361598231 297.135939531 855.808586807 328.362139963 c 0,77,78
 888.969339877 344.943463173 888.969339877 344.943463173 900.975986852 362.748391693 c 128,-1,68
 912.982633827 380.553320213 912.982633827 380.553320213 912.982633544 410.01236242 c 128,-1,69
303.007600871 778.01171875 m 128,-1,80
 303.007600871 748.562605574 303.007600871 748.562605574 314.777296107 731.113561952 c 0,81,82
 327.026103881 712.95421484 327.026103881 712.95421484 360.189097859 696.372086704 c 0,83,84
 422.644611175 665.144330046 422.644611175 665.144330046 545.004117879 658.661646211 c 1,85,-1
 545.004117879 897.361581793 l 1,86,87
 422.644678862 890.877788086 422.644678862 890.877788086 360.188491282 859.651047509 c 0,88,89
 327.02534204 843.070104013 327.02534204 843.070104013 315.016471456 825.265934208 c 128,-1,79
 303.007600871 807.461764402 303.007600871 807.461764402 303.007600871 778.01171875 c 128,-1,80
EndSplineSet
Validated: 1
EndChar

StartChar: percent
Encoding: 37 37 5
Width: 1229
GlyphClass: 2
Flags: W
LayerCount: 2
Fore
SplineSet
792 347.004117879 m 128,-1,1
 741.702602688 347.004117879 741.702602688 347.004117879 706.349242405 311.650757595 c 128,-1,2
 670.995882121 276.297397312 670.995882121 276.297397312 670.995882121 226 c 128,-1,3
 670.995882121 175.702602688 670.995882121 175.702602688 706.349242405 140.349242405 c 128,-1,4
 741.702602688 104.995882121 741.702602688 104.995882121 792 104.995882121 c 128,-1,5
 842.297397312 104.995882121 842.297397312 104.995882121 877.650757595 140.349242405 c 128,-1,6
 913.004117879 175.702602688 913.004117879 175.702602688 913.004117879 226 c 128,-1,7
 913.004117879 276.297397312 913.004117879 276.297397312 877.650757595 311.650757595 c 128,-1,0
 842.297397312 347.004117879 842.297397312 347.004117879 792 347.004117879 c 128,-1,1
792 472.995882121 m 128,-1,9
 893.702602688 472.995882121 893.702602688 472.995882121 966.349242405 400.349242405 c 128,-1,10
 1038.99588212 327.702602688 1038.99588212 327.702602688 1038.99588212 226 c 128,-1,11
 1038.99588212 124.297397312 1038.99588212 124.297397312 966.349242405 51.6507575951 c 1,12,13
 836.940315605 -21.6412013878 836.940315605 -21.6412013878 798.427320504 -21.6412013878 c 0,14,15
 794.813501102 -21.6412013878 794.813501102 -21.6412013878 792 -20.9958821214 c 0,16,17
 690.297397312 -20.9958821214 690.297397312 -20.9958821214 617.650757595 51.6507575951 c 128,-1,18
 545.004117879 124.297397312 545.004117879 124.297397312 545.004117879 226 c 128,-1,19
 545.004117879 327.702602688 545.004117879 327.702602688 617.650757595 400.349242405 c 128,-1,8
 690.297397312 472.995882121 690.297397312 472.995882121 792 472.995882121 c 128,-1,9
424 1083.00411788 m 128,-1,21
 373.702602688 1083.00411788 373.702602688 1083.00411788 338.349242405 1047.6507576 c 128,-1,22
 302.995882121 1012.29739731 302.995882121 1012.29739731 302.995882121 962 c 128,-1,23
 302.995882121 911.702602688 302.995882121 911.702602688 338.349242405 876.349242405 c 128,-1,24
 373.702602688 840.995882121 373.702602688 840.995882121 424 840.995882121 c 128,-1,25
 474.297397312 840.995882121 474.297397312 840.995882121 509.650757595 876.349242405 c 128,-1,26
 545.004117879 911.702602688 545.004117879 911.702602688 545.004117879 962 c 128,-1,27
 545.004117879 1012.29739731 545.004117879 1012.29739731 509.650757595 1047.6507576 c 128,-1,20
 474.297397312 1083.00411788 474.297397312 1083.00411788 424 1083.00411788 c 128,-1,21
424 1208.99588212 m 128,-1,29
 525.702602688 1208.99588212 525.702602688 1208.99588212 598.349242405 1136.3492424 c 128,-1,30
 670.995882121 1063.70260269 670.995882121 1063.70260269 670.995882121 962 c 128,-1,31
 670.995882121 860.297397312 670.995882121 860.297397312 598.349242405 787.650757595 c 128,-1,32
 525.702602688 715.004117879 525.702602688 715.004117879 424 715.004117879 c 128,-1,33
 322.297397312 715.004117879 322.297397312 715.004117879 249.650757595 787.650757595 c 128,-1,34
 177.004117879 860.297397312 177.004117879 860.297397312 177.004117879 962 c 128,-1,35
 177.004117879 1063.70260269 177.004117879 1063.70260269 249.650757595 1136.3492424 c 128,-1,28
 322.297397312 1208.99588212 322.297397312 1208.99588212 424 1208.99588212 c 128,-1,29
1039.10936539 1145.2443168 m 0,36,37
 1039.10936539 1127.08570867 1039.10936539 1127.08570867 1028.4299295 1111.06577623 c 0,38,39
 292.430064682 7.06597901045 292.430064682 7.06597901045 290.59323389 4.3106631112 c 128,-1,40
 288.756403097 1.55534721195 288.756403097 1.55534721195 284.247862031 -2.95319385414 c 0,41,42
 266.091381624 -21.1096742619 266.091381624 -21.1096742619 239.244667783 -21.1096742619 c 0,43,44
 213.908618377 -21.1096742619 213.908618377 -21.1096742619 195.046806146 -2.24786203156 c 0,45,46
 176.890334989 15.9086091261 176.890334989 15.9086091261 176.890334989 42.7552572948 c 0,47,48
 176.890334989 60.9144018365 176.890334989 60.9144018365 187.5700705 76.9342237686 c 2,49,-1
 739.570192738 904.934407121 l 1,50,-1
 923.570255093 1180.93450065 l 2,51,52
 942.477028273 1209.29368069 942.477028273 1209.29368069 973.66889153 1209.29368069 c 0,53,54
 1001.90678992 1209.29368069 1001.90678992 1209.29368069 1020.95190535 1190.24856526 c 0,55,56
 1039.10936539 1172.09110522 1039.10936539 1172.09110522 1039.10936539 1145.2443168 c 0,36,37
EndSplineSet
Validated: 1
EndChar

StartChar: ampersand
Encoding: 38 38 6
Width: 1229
GlyphClass: 2
Flags: W
LayerCount: 2
Fore
SplineSet
608 1208.99588212 m 0,0,1
 677.157410451 1208.99588212 677.157410451 1208.99588212 739.033874603 1178.05785263 c 128,-1,2
 800.914072481 1147.11795628 800.914072481 1147.11795628 842.413822954 1091.78600804 c 0,3,4
 855.067097488 1074.91576448 855.067097488 1074.91576448 855.067097488 1054.77019113 c 0,5,6
 855.067097488 1022.54679584 855.067097488 1022.54679584 829.783226968 1003.58555609 c 0,7,8
 812.913423134 990.933913315 812.913423134 990.933913315 792.769578147 990.933913315 c 0,9,10
 760.548033522 990.933913315 760.548033522 990.933913315 741.585811833 1016.21643203 c 0,11,12
 717.93119353 1047.75635658 717.93119353 1047.75635658 682.684609321 1065.37923109 c 128,-1,13
 647.434000467 1083.00411788 647.434000467 1083.00411788 608 1083.00411788 c 0,14,15
 538.702602688 1083.00411788 538.702602688 1083.00411788 489.849242405 1034.1507576 c 128,-1,16
 440.995882121 985.297397312 440.995882121 985.297397312 440.995882121 916 c 0,17,18
 440.995882121 860.34326249 440.995882121 860.34326249 474.414119068 815.785613228 c 0,19,20
 809.78477515 368.624225946 809.78477515 368.624225946 881.058113154 273.592595796 c 1,21,22
 913 337 913 337 913.004117879 410 c 0,23,24
 913.004117879 435.702602688 913.004117879 435.702602688 931.650757595 454.349242405 c 128,-1,25
 950.297397312 472.995882121 950.297397312 472.995882121 976 472.995882121 c 128,-1,26
 1001.70260269 472.995882121 1001.70260269 472.995882121 1020.3492424 454.349242405 c 128,-1,27
 1038.99588212 435.702602688 1038.99588212 435.702602688 1038.99588212 410 c 0,28,29
 1038.99588212 274.826635287 1038.99588212 274.826635287 962.439374634 165.083888028 c 1,30,-1
 1026.4142733 79.7834544621 l 2,31,32
 1039.06638198 62.9135063719 1039.06638198 62.9135063719 1039.06638198 42.7691578075 c 0,33,34
 1039.06638198 10.5472570717 1039.06638198 10.5472570717 1013.78345446 -8.41427329486 c 0,35,36
 996.913506372 -21.0663819813 996.913506372 -21.0663819813 976.769157806 -21.0663819813 c 0,37,38
 944.547257075 -21.0663819813 944.547257075 -21.0663819813 925.585802791 4.21644408653 c 2,39,-1
 874.834852334 71.8854094586 l 1,40,41
 758.654350384 -20.9958821214 758.654350384 -20.9958821214 608 -20.9958821214 c 0,42,43
 430.297397312 -20.9958821214 430.297397312 -20.9958821214 303.650757595 105.650757595 c 128,-1,44
 177.004117879 232.297397312 177.004117879 232.297397312 177.004117879 410 c 0,45,46
 177.004117879 522.627286291 177.004117879 522.627286291 231.127055124 619.00527167 c 0,47,48
 279.751685845 705.592293498 279.751685845 705.592293498 359.024539799 761.642454562 c 1,49,50
 315.004117879 831.798113626 315.004117879 831.798113626 315.004117879 916 c 0,51,52
 315.004117879 1036.70260269 315.004117879 1036.70260269 401.150757595 1122.8492424 c 128,-1,53
 487.297397312 1208.99588212 487.297397312 1208.99588212 608 1208.99588212 c 0,0,1
302.995882121 410 m 0,54,55
 302.995882121 283.702602688 302.995882121 283.702602688 392.349242405 194.349242405 c 128,-1,56
 481.702602688 104.995882121 481.702602688 104.995882121 608 104.995882121 c 0,57,58
 717.086095903 104.995882121 717.086095903 104.995882121 799.550914149 172.264126967 c 1,59,-1
 433.665721034 660.106769272 l 1,60,61
 377.628537359 621.192029462 377.628537359 621.192029462 342.670979263 560.464534431 c 0,62,63
 302.995882121 491.541835141 302.995882121 491.541835141 302.995882121 410 c 0,54,55
EndSplineSet
Validated: 1
EndChar

StartChar: quotesingle
Encoding: 39 39 7
Width: 1229
GlyphClass: 2
Flags: W
LayerCount: 2
Fore
SplineSet
608 1208.99588212 m 128,-1,1
 652.702602688 1208.99588212 652.702602688 1208.99588212 684.849242405 1176.8492424 c 128,-1,2
 716.995882121 1144.70260269 716.995882121 1144.70260269 716.995882121 1100 c 0,3,4
 716.995882121 1089.14041181 716.995882121 1089.14041181 714.763506545 1078.1949692 c 2,5,-1
 669.724508219 857.384736967 l 2,6,7
 665.401694315 836.189862849 665.401694315 836.189862849 647.024690853 821.596990364 c 128,-1,8
 628.64768739 807.004117879 628.64768739 807.004117879 608 807.004117879 c 0,9,10
 582.911825496 807.004117879 582.911825496 807.004117879 562.890920966 827.025022409 c 0,11,12
 549.799387706 840.116555668 549.799387706 840.116555668 546.277524366 857.384347394 c 2,13,-1
 501.167159731 1078.54036028 l 2,14,15
 499.004681325 1089.1874217 499.004681325 1089.1874217 499.004117879 1100 c 0,16,17
 499.004117879 1144.70260269 499.004117879 1144.70260269 531.150757595 1176.8492424 c 128,-1,0
 563.297397312 1208.99588212 563.297397312 1208.99588212 608 1208.99588212 c 128,-1,1
714.876012836 1078.78904517 m 1,18,19
 714.84913416 1078.6556017 714.84913416 1078.6556017 714.821914679 1078.5221843 c 1,20,-1
 714.876012836 1078.78904517 l 1,18,19
EndSplineSet
Validated: 1
EndChar

StartChar: parenleft
Encoding: 40 40 8
Width: 1229
GlyphClass: 2
Flags: W
LayerCount: 2
Fore
SplineSet
763.032014933 1330.01074219 m 0,0,1
 763.032014933 1297.64021752 763.032014933 1297.64021752 736.669623962 1278.75809752 c 0,2,3
 667.356847382 1229.10847629 667.356847382 1229.10847629 623.176364752 1139.70118309 c 128,-1,4
 578.995882121 1050.2938899 578.995882121 1050.2938899 578.995882121 962 c 2,5,-1
 578.995882121 226 l 2,6,7
 578.995882121 137.705867539 578.995882121 137.705867539 623.254395797 48.139925438 c 0,8,9
 667.357027599 -41.1105585594 667.357027599 -41.1105585594 736.670713932 -90.760831461 c 0,10,11
 762.970491496 -109.602246996 762.970491496 -109.602246996 762.970491496 -142.028320312 c 0,12,13
 762.970491496 -168.243886047 762.970491496 -168.243886047 744.611095022 -186.603282522 c 128,-1,14
 726.251698547 -204.962678996 726.251698547 -204.962678996 699.958007812 -204.962678996 c 0,15,16
 679.718499708 -204.962678996 679.718499708 -204.962678996 663.324458521 -193.218423328 c 0,17,18
 566.146122293 -123.607845368 566.146122293 -123.607845368 509.575120086 -9.15188274005 c 128,-1,19
 453.004117879 105.304079888 453.004117879 105.304079888 453.004117879 226 c 2,20,-1
 453.004117879 962 l 2,21,22
 453.004117879 1082.69592012 453.004117879 1082.69592012 509.49762407 1196.99509073 c 0,23,24
 566.146122261 1311.60784531 566.146122261 1311.60784531 663.325428398 1381.21911803 c 0,25,26
 679.753107165 1392.98513993 679.753107165 1392.98513993 699.956054688 1392.98513993 c 0,27,28
 732.367989898 1392.98513993 732.367989898 1392.98513993 751.225788468 1366.6624941 c 0,29,30
 763.032014933 1350.18194664 763.032014933 1350.18194664 763.032014933 1330.01074219 c 0,0,1
EndSplineSet
Validated: 1
EndChar

StartChar: parenright
Encoding: 41 41 9
Width: 1229
GlyphClass: 2
Flags: W
LayerCount: 2
Fore
SplineSet
516.040039062 1392.98513993 m 0,0,1
 536.243963082 1392.98513993 536.243963082 1392.98513993 552.672674531 1381.21837839 c 0,2,3
 649.850485027 1311.60763443 649.850485027 1311.60763443 706.42171873 1197.1516058 c 128,-1,4
 762.992952433 1082.69557717 762.992952433 1082.69557717 762.992952433 962 c 2,5,-1
 762.992952433 226 l 2,6,7
 762.992952433 105.304422827 762.992952433 105.304422827 706.49919902 -8.99484616338 c 0,8,9
 649.850485039 -123.607634412 649.850485039 -123.607634412 552.672094319 -193.21879399 c 0,10,11
 536.276244567 -204.962678996 536.276244567 -204.962678996 516.038085938 -204.962678996 c 0,12,13
 483.610575444 -204.962678996 483.610575444 -204.962678996 464.771281844 -178.662494106 c 0,14,15
 453.026578817 -162.26782844 453.026578817 -162.26782844 453.026578817 -142.028320312 c 0,16,17
 453.026578817 -109.60051793 453.026578817 -109.60051793 479.327366874 -90.76010758 c 0,18,19
 548.639564122 -41.1104110908 548.639564122 -41.1104110908 592.820376157 48.2979130994 c 128,-1,20
 637.001188191 137.70623729 637.001188191 137.70623729 637.001188191 226 c 2,21,-1
 637.001188191 962 l 2,22,23
 637.001188191 1050.29352015 637.001188191 1050.29352015 592.74256008 1139.85858126 c 0,24,25
 548.639744284 1229.10832894 548.639744284 1229.10832894 479.328126302 1278.75761049 c 0,26,27
 452.965055379 1297.6402175 452.965055379 1297.6402175 452.965055379 1330.01074219 c 0,28,29
 452.965055379 1356.13198156 452.965055379 1356.13198156 471.775590792 1374.94251697 c 0,30,31
 489.818213752 1392.98513993 489.818213752 1392.98513993 516.040039062 1392.98513993 c 0,0,1
EndSplineSet
Validated: 1
EndChar

StartChar: asterisk
Encoding: 42 42 10
Width: 1229
GlyphClass: 2
Flags: W
LayerCount: 2
Fore
SplineSet
608 1208.99588212 m 128,-1,1
 633.702602688 1208.99588212 633.702602688 1208.99588212 652.349242405 1190.3492424 c 128,-1,2
 670.995882121 1171.70260269 670.995882121 1171.70260269 670.995882121 1146 c 2,3,-1
 670.995882121 1071.12126434 l 1,4,-1
 735.851989708 1108.56560563 l 2,5,6
 746.685116797 1114.82051278 746.685116797 1114.82051278 755.51532625 1115.98297533 c 128,-1,7
 764.345535702 1117.14543788 764.345535702 1117.14543788 769.280567053 1117.14543788 c 0,8,9
 793.802414598 1117.14543788 793.802414598 1117.14543788 810.833960663 1100.11389181 c 0,10,11
 817.086004234 1093.86184824 817.086004234 1093.86184824 821.915520497 1085.49709054 c 0,12,13
 830.505060181 1070.61951094 830.505060181 1070.61951094 830.505060181 1054.59435312 c 0,14,15
 830.505060181 1046.28597192 830.505060181 1046.28597192 828.196197584 1037.66912245 c 0,16,17
 821.447528128 1012.48257872 821.447528128 1012.48257872 798.846658667 999.434065059 c 2,18,-1
 734.008350194 961.999999999 l 1,19,-1
 798.846669147 924.565928886 l 2,20,21
 821.447528128 911.51742129 821.447528128 911.51742129 828.196197585 886.330877542 c 0,22,23
 830.505062253 877.714020348 830.505062253 877.714020348 830.505062253 869.405635563 c 0,24,25
 830.505062253 853.380492645 830.505062253 853.380492645 821.915538261 838.502940228 c 0,26,27
 808.867030665 815.902081247 808.867030665 815.902081247 783.680486917 809.15341179 c 0,28,29
 775.063627091 806.844546417 775.063627091 806.844546417 766.755241083 806.844546417 c 0,30,31
 750.730103242 806.844546417 750.730103242 806.844546417 735.852560082 815.434065064 c 2,32,-1
 670.995882121 852.878735657 l 1,33,-1
 670.995882121 778 l 2,34,35
 670.995882121 752.297397312 670.995882121 752.297397312 652.349242405 733.650757595 c 128,-1,36
 633.702602688 715.004117879 633.702602688 715.004117879 608 715.004117879 c 128,-1,37
 582.297397312 715.004117879 582.297397312 715.004117879 563.650757595 733.650757595 c 128,-1,38
 545.004117879 752.297397312 545.004117879 752.297397312 545.004117879 778 c 2,39,-1
 545.004117879 852.878735657 l 1,40,-1
 480.147481165 815.434088878 l 2,41,42
 465.269901567 806.844549193 465.269901567 806.844549193 449.244743745 806.844549193 c 0,43,44
 440.936362548 806.844549193 440.936362548 806.844549193 432.319513082 809.15341179 c 0,45,46
 407.132969335 815.902081247 407.132969335 815.902081247 394.084479503 838.50290946 c 0,47,48
 385.494939818 853.380489058 385.494939818 853.380489058 385.494939818 869.40564688 c 0,49,50
 385.494939818 877.714028077 385.494939818 877.714028077 387.803802415 886.330877543 c 0,51,52
 394.552471872 911.51742129 394.552471872 911.51742129 417.153341332 924.565934936 c 2,53,-1
 481.991649806 961.999999999 l 1,54,-1
 417.153330844 999.434071114 l 2,55,56
 394.552471872 1012.48257872 394.552471872 1012.48257872 387.803802414 1037.66912246 c 0,57,58
 385.494955142 1046.28591473 385.494955142 1046.28591473 385.494955142 1054.59426937 c 0,59,60
 385.494955142 1070.61953748 385.494955142 1070.61953748 394.08461095 1085.49731821 c 0,61,62
 398.913995762 1093.86184824 398.913995762 1093.86184824 405.166039337 1100.11389181 c 0,63,64
 422.197683113 1117.14553559 422.197683113 1117.14553559 446.718972148 1117.14553559 c 0,65,66
 451.653722073 1117.14553559 451.653722073 1117.14553559 460.484302593 1115.9830242 c 128,-1,67
 469.314883114 1114.82051282 469.314883114 1114.82051282 480.147439919 1108.56593494 c 2,68,-1
 545.004117879 1071.12126435 l 1,69,-1
 545.004117879 1146 l 2,70,71
 545.004117879 1171.70260269 545.004117879 1171.70260269 563.650757595 1190.3492424 c 128,-1,0
 582.297397312 1208.99588212 582.297397312 1208.99588212 608 1208.99588212 c 128,-1,1
EndSplineSet
Validated: 1
EndChar

StartChar: plus
Encoding: 43 43 11
Width: 1229
GlyphClass: 2
Flags: W
LayerCount: 2
Fore
SplineSet
608 840.995882121 m 128,-1,1
 633.702602688 840.995882121 633.702602688 840.995882121 652.349242405 822.349242405 c 128,-1,2
 670.995882121 803.702602688 670.995882121 803.702602688 670.995882121 778 c 2,3,-1
 670.995882121 472.995882121 l 1,4,-1
 976 472.995882121 l 2,5,6
 1001.70260269 472.995882121 1001.70260269 472.995882121 1020.3492424 454.349242405 c 128,-1,7
 1038.99588212 435.702602688 1038.99588212 435.702602688 1038.99588212 410 c 128,-1,8
 1038.99588212 384.297397312 1038.99588212 384.297397312 1020.3492424 365.650757595 c 128,-1,9
 1001.70260269 347.004117879 1001.70260269 347.004117879 976 347.004117879 c 2,10,-1
 670.995882121 347.004117879 l 1,11,-1
 670.995882121 42 l 2,12,13
 670.995882121 16.2973973115 670.995882121 16.2973973115 652.349242405 -2.34924240492 c 128,-1,14
 633.702602688 -20.9958821214 633.702602688 -20.9958821214 608 -20.9958821214 c 128,-1,15
 582.297397312 -20.9958821214 582.297397312 -20.9958821214 563.650757595 -2.34924240492 c 128,-1,16
 545.004117879 16.2973973115 545.004117879 16.2973973115 545.004117879 42 c 2,17,-1
 545.004117879 347.004117879 l 1,18,-1
 240 347.004117879 l 2,19,20
 214.297397312 347.004117879 214.297397312 347.004117879 195.650757595 365.650757595 c 128,-1,21
 177.004117879 384.297397312 177.004117879 384.297397312 177.004117879 410 c 128,-1,22
 177.004117879 435.702602688 177.004117879 435.702602688 195.650757595 454.349242405 c 128,-1,23
 214.297397312 472.995882121 214.297397312 472.995882121 240 472.995882121 c 2,24,-1
 545.004117879 472.995882121 l 1,25,-1
 545.004117879 778 l 2,26,27
 545.004117879 803.702602688 545.004117879 803.702602688 563.650757595 822.349242405 c 128,-1,0
 582.297397312 840.995882121 582.297397312 840.995882121 608 840.995882121 c 128,-1,1
EndSplineSet
Validated: 1
EndChar

StartChar: comma
Encoding: 44 44 12
Width: 1229
GlyphClass: 2
Flags: W
LayerCount: 2
Fore
SplineSet
608 196.995882121 m 128,-1,1
 652.702602688 196.995882121 652.702602688 196.995882121 684.849242405 164.849242405 c 128,-1,2
 716.995882121 132.702602688 716.995882121 132.702602688 716.995882121 88 c 0,3,4
 716.995882121 -59.2008714706 716.995882121 -59.2008714706 626.937539562 -175.547214531 c 0,5,6
 607.966633427 -200.055814153 607.966633427 -200.055814153 576.356002374 -200.055814153 c 0,7,8
 551.007366694 -200.055814153 551.007366694 -200.055814153 532.176905868 -181.225353326 c 0,9,10
 514.047279906 -163.095727365 514.047279906 -163.095727365 514.047279906 -136.251910891 c 0,11,12
 514.047279906 -115.533830008 514.047279906 -115.533830008 527.269574482 -98.4526785074 c 0,13,14
 556.894867962 -60.1801372647 556.894867962 -60.1801372647 573.000872445 -15.311963462 c 1,15,16
 547.390805405 -6.72860010939 547.390805405 -6.72860010939 527.798320798 14.5828645692 c 0,17,18
 499.004117879 45.8946931288 499.004117879 45.8946931288 499.004117879 89.2986479086 c 128,-1,19
 499.004117879 132.702602688 499.004117879 132.702602688 531.150757595 164.849242405 c 128,-1,0
 563.297397312 196.995882121 563.297397312 196.995882121 608 196.995882121 c 128,-1,1
EndSplineSet
Validated: 1
EndChar

StartChar: hyphen
Encoding: 45 45 13
AltUni2: 0000ad.ffffffff.0 0000ad.ffffffff.0
Width: 1229
GlyphClass: 2
Flags: W
LayerCount: 2
Fore
SplineSet
240 472.995882121 m 2,0,-1
 976 472.995882121 l 2,1,2
 1001.70260269 472.995882121 1001.70260269 472.995882121 1020.3492424 454.349242405 c 128,-1,3
 1038.99588212 435.702602688 1038.99588212 435.702602688 1038.99588212 410 c 128,-1,4
 1038.99588212 384.297397312 1038.99588212 384.297397312 1020.3492424 365.650757595 c 128,-1,5
 1001.70260269 347.004117879 1001.70260269 347.004117879 976 347.004117879 c 2,6,-1
 240 347.004117879 l 2,7,8
 214.297397312 347.004117879 214.297397312 347.004117879 195.650757595 365.650757595 c 128,-1,9
 177.004117879 384.297397312 177.004117879 384.297397312 177.004117879 410 c 128,-1,10
 177.004117879 435.702602688 177.004117879 435.702602688 195.650757595 454.349242405 c 128,-1,11
 214.297397312 472.995882121 214.297397312 472.995882121 240 472.995882121 c 2,0,-1
EndSplineSet
Validated: 1
EndChar

StartChar: period
Encoding: 46 46 14
Width: 1229
GlyphClass: 2
Flags: W
LayerCount: 2
Fore
SplineSet
608 196.995882121 m 128,-1,1
 652.702602688 196.995882121 652.702602688 196.995882121 684.849242405 164.849242405 c 128,-1,2
 716.995882121 132.702602688 716.995882121 132.702602688 716.995882121 88 c 128,-1,3
 716.995882121 43.2973973115 716.995882121 43.2973973115 684.849242405 11.1507575951 c 128,-1,4
 652.702602688 -20.9958821214 652.702602688 -20.9958821214 608 -20.9958821214 c 128,-1,5
 563.297397312 -20.9958821214 563.297397312 -20.9958821214 531.150757595 11.1507575951 c 128,-1,6
 499.004117879 43.2973973115 499.004117879 43.2973973115 499.004117879 88 c 128,-1,7
 499.004117879 132.702602688 499.004117879 132.702602688 531.150757595 164.849242405 c 128,-1,0
 563.297397312 196.995882121 563.297397312 196.995882121 608 196.995882121 c 128,-1,1
EndSplineSet
Validated: 1
EndChar

StartChar: slash
Encoding: 47 47 15
Width: 1229
GlyphClass: 2
Flags: W
LayerCount: 2
Fore
SplineSet
1039.10936539 1145.2443168 m 0,0,1
 1039.10936539 1127.08570867 1039.10936539 1127.08570867 1028.4299295 1111.06577623 c 0,2,3
 292.430064682 7.06597901045 292.430064682 7.06597901045 290.59323389 4.3106631112 c 128,-1,4
 288.756403097 1.55534721195 288.756403097 1.55534721195 284.247862031 -2.95319385414 c 0,5,6
 266.091381624 -21.1096742619 266.091381624 -21.1096742619 239.244667783 -21.1096742619 c 0,7,8
 213.908618377 -21.1096742619 213.908618377 -21.1096742619 195.046806146 -2.24786203156 c 0,9,10
 176.890334989 15.9086091261 176.890334989 15.9086091261 176.890334989 42.7552572948 c 0,11,12
 176.890334989 60.9144018365 176.890334989 60.9144018365 187.5700705 76.9342237686 c 2,13,-1
 739.570192738 904.934407121 l 1,14,-1
 923.570255093 1180.93450065 l 2,15,16
 942.477028273 1209.29368069 942.477028273 1209.29368069 973.66889153 1209.29368069 c 0,17,18
 1001.90678992 1209.29368069 1001.90678992 1209.29368069 1020.95190535 1190.24856526 c 0,19,20
 1039.10936539 1172.09110522 1039.10936539 1172.09110522 1039.10936539 1145.2443168 c 0,0,1
EndSplineSet
Validated: 1
EndChar

StartChar: zero
Encoding: 48 48 16
Width: 1229
GlyphClass: 2
Flags: W
LayerCount: 2
Fore
SplineSet
608 1062.00823576 m 0,0,1
 490.405205377 1062.00823576 490.405205377 1062.00823576 407.19848481 978.80151519 c 128,-1,2
 323.991764243 895.594794623 323.991764243 895.594794623 323.991764243 778 c 2,3,-1
 323.991764243 545.919478965 l 1,4,-1
 887.722449599 827.785667388 l 1,5,6
 872.253877922 920.340520095 872.253877922 920.340520095 801.272212577 986.389016272 c 0,7,8
 719.992959267 1062.00823576 719.992959267 1062.00823576 608 1062.00823576 c 0,0,1
608 1229.99176424 m 128,-1,10
 794.405205377 1229.99176424 794.405205377 1229.99176424 927.19848481 1097.19848481 c 128,-1,11
 1059.99176424 964.405205377 1059.99176424 964.405205377 1059.99176424 778 c 2,12,-1
 1059.99176424 410 l 2,13,14
 1059.99176424 223.594794623 1059.99176424 223.594794623 927.19848481 90.8015151902 c 128,-1,15
 794.405205377 -41.9917642427 794.405205377 -41.9917642427 608 -41.9917642427 c 128,-1,16
 421.594794623 -41.9917642427 421.594794623 -41.9917642427 288.80151519 90.8015151902 c 128,-1,17
 156.008235757 223.594794623 156.008235757 223.594794623 156.008235757 410 c 2,18,-1
 156.008235757 778 l 2,19,20
 156.008235757 964.405205377 156.008235757 964.405205377 288.80151519 1097.19848481 c 128,-1,9
 421.594794623 1229.99176424 421.594794623 1229.99176424 608 1229.99176424 c 128,-1,10
608 125.991764243 m 0,21,22
 725.594794623 125.991764243 725.594794623 125.991764243 808.80151519 209.19848481 c 128,-1,23
 892.008235757 292.405205377 892.008235757 292.405205377 892.008235757 410 c 2,24,-1
 892.008235757 642.080521035 l 1,25,-1
 328.277550401 360.214332612 l 1,26,27
 343.746122078 267.659479906 343.746122078 267.659479906 414.727787423 201.610983733 c 0,28,29
 496.007040734 125.991764243 496.007040734 125.991764243 608 125.991764243 c 0,21,22
EndSplineSet
Validated: 1
EndChar

StartChar: one
Encoding: 49 49 17
Width: 1229
GlyphClass: 2
Flags: W
LayerCount: 2
Fore
SplineSet
608.00356339 1229.98590471 m 128,-1,1
 642.799090311 1229.98590471 642.799090311 1229.98590471 667.392671483 1205.39492286 c 128,-1,2
 691.991764243 1180.79583092 691.991764243 1180.79583092 691.991764243 1146 c 2,3,-1
 691.991764243 125.991764243 l 1,4,-1
 976 125.991764243 l 2,5,6
 1010.40520538 125.991764243 1010.40520538 125.991764243 1035.19848481 101.19848481 c 128,-1,7
 1059.99176424 76.405205377 1059.99176424 76.405205377 1059.99176424 42 c 128,-1,8
 1059.99176424 7.59479462303 1059.99176424 7.59479462303 1035.19848481 -17.1984848098 c 128,-1,9
 1010.40520538 -41.9917642427 1010.40520538 -41.9917642427 976 -41.9917642427 c 2,10,-1
 240 -41.9917642427 l 2,11,12
 205.594794623 -41.9917642427 205.594794623 -41.9917642427 180.80151519 -17.1984848098 c 128,-1,13
 156.008235757 7.59479462303 156.008235757 7.59479462303 156.008235757 42 c 128,-1,14
 156.008235757 76.405205377 156.008235757 76.405205377 180.80151519 101.19848481 c 128,-1,15
 205.594794623 125.991764243 205.594794623 125.991764243 240 125.991764243 c 2,16,-1
 524.008235757 125.991764243 l 1,17,-1
 524.008235757 943.212828638 l 1,18,-1
 299.39770356 718.60229644 l 2,19,20
 274.802666315 694.007259195 274.802666315 694.007259195 240 694.007259195 c 128,-1,21
 205.197333685 694.007259195 205.197333685 694.007259195 180.60229644 718.60229644 c 128,-1,22
 156.007259195 743.197333685 156.007259195 743.197333685 156.007259195 778 c 128,-1,23
 156.007259195 812.802666315 156.007259195 812.802666315 180.60229644 837.39770356 c 2,24,-1
 548.60229644 1205.39770356 l 2,25,0
 573.193549507 1229.98590471 573.193549507 1229.98590471 608.00356339 1229.98590471 c 128,-1,1
EndSplineSet
Validated: 1
EndChar

StartChar: two
Encoding: 50 50 18
Width: 1229
GlyphClass: 2
Flags: W
LayerCount: 2
Fore
SplineSet
608.01953125 1229.96246736 m 0,0,1
 852.744558187 1229.96246736 852.744558187 1229.96246736 967.760797695 1114.94622786 c 0,2,3
 1060.00193679 1022.70508876 1060.00193679 1022.70508876 1060.00193679 868.004561438 c 0,4,5
 1060.00193679 775.356612579 1060.00193679 775.356612579 1020.56537032 686.925449991 c 0,6,7
 980.689958644 597.510236442 980.689958644 597.510236442 910.864225191 534.473352872 c 2,8,-1
 458.393203515 125.991764243 l 1,9,-1
 976 125.991764243 l 2,10,11
 1010.40520538 125.991764243 1010.40520538 125.991764243 1035.19848481 101.19848481 c 128,-1,12
 1059.99176424 76.405205377 1059.99176424 76.405205377 1059.99176424 42 c 128,-1,13
 1059.99176424 7.59479462303 1059.99176424 7.59479462303 1035.19848481 -17.1984848098 c 128,-1,14
 1010.40520538 -41.9917642427 1010.40520538 -41.9917642427 976 -41.9917642427 c 2,15,-1
 240 -41.9917642427 l 2,16,17
 204.280059177 -41.9917642427 204.280059177 -41.9917642427 181.126366664 -18.8380717297 c 0,18,19
 168.574329751 -6.28603481752 168.574329751 -6.28603481752 161.981820142 10.8544441159 c 128,-1,20
 155.389310533 27.9949230494 155.389310533 27.9949230494 155.389310533 41.0692415337 c 0,21,22
 155.389310533 78.7858156514 155.389310533 78.7858156514 183.733445078 104.372362909 c 2,23,-1
 798.330895717 659.217880411 l 2,24,25
 840.179581227 696.998480568 840.179581227 696.998480568 866.098069183 755.114518042 c 128,-1,26
 892.016557138 813.230555515 892.016557138 813.230555515 892.016557138 868.18791817 c 0,27,28
 892.016557138 965.575289824 892.016557138 965.575289824 833.181731563 1009.79505877 c 0,29,30
 763.750579907 1061.97893888 763.750579907 1061.97893888 607.897039263 1061.97893888 c 0,31,32
 432.628960965 1061.97893888 432.628960965 1061.97893888 367.54834872 996.898326633 c 0,33,34
 324.023014243 953.372992155 324.023014243 953.372992155 324.023014243 869.9765625 c 0,35,36
 324.023014243 835.174140325 324.023014243 835.174140325 299.428343208 810.579469292 c 128,-1,37
 274.833672175 785.984798257 274.833672175 785.984798257 240.03125 785.984798257 c 128,-1,38
 205.228827825 785.984798257 205.228827825 785.984798257 180.634156792 810.579469292 c 128,-1,39
 156.039485757 835.174140325 156.039485757 835.174140325 156.039485757 869.9765625 c 0,40,41
 156.039485757 1049.98434028 156.039485757 1049.98434028 281.658842053 1144.20098482 c 0,42,43
 396.004903554 1229.96246736 396.004903554 1229.96246736 608.01953125 1229.96246736 c 0,0,1
EndSplineSet
Validated: 1
EndChar

StartChar: three
Encoding: 51 51 19
Width: 1229
GlyphClass: 2
Flags: W
LayerCount: 2
Fore
SplineSet
931.972162269 593.995177677 m 1,0,1
 1059.98004549 499.782045623 1059.98004549 499.782045623 1059.98004549 317.994140625 c 0,2,3
 1059.98004549 137.984660983 1059.98004549 137.984660983 934.360398524 43.7695002906 c 0,4,5
 820.012562198 -41.9917642427 820.012562198 -41.9917642427 608 -41.9917642427 c 0,6,7
 362.828725725 -41.9917642427 362.828725725 -41.9917642427 247.646407421 73.190554061 c 0,8,9
 156.019954507 164.817006975 156.019954507 164.817006975 156.019954507 317.994140625 c 0,10,11
 156.019954507 352.7965628 156.019954507 352.7965628 180.614625542 377.391233833 c 128,-1,12
 205.209296575 401.985904868 205.209296575 401.985904868 240.01171875 401.985904868 c 128,-1,13
 274.814140925 401.985904868 274.814140925 401.985904868 299.408811958 377.391233833 c 128,-1,14
 324.003482993 352.7965628 324.003482993 352.7965628 324.003482993 317.994140625 c 0,15,16
 324.003482993 222.00774547 324.003482993 222.00774547 382.378007544 178.226570288 c 0,17,18
 452.023967372 125.991764243 452.023967372 125.991764243 608 125.991764243 c 0,19,20
 783.390570277 125.991764243 783.390570277 125.991764243 848.471182534 191.0723765 c 0,21,22
 891.996517007 234.597710973 891.996517007 234.597710973 891.996517007 317.994140625 c 0,23,24
 891.996517007 413.980254025 891.996517007 413.980254025 833.621544727 457.762046765 c 0,25,26
 763.970158149 510.002376382 763.970158149 510.002376382 608 510.002376382 c 0,27,28
 573.784238992 510.002376382 573.784238992 510.002376382 549.190670988 534.769119736 c 128,-1,29
 524.597102984 559.535863089 524.597102984 559.535863089 524.597102895 593.995541479 c 128,-1,30
 524.597102895 628.450054007 524.597102895 628.450054007 548.947087213 652.974407707 c 0,31,32
 573.780751378 677.985904868 573.780751378 677.985904868 607.998046875 677.985904868 c 0,33,34
 783.38566616 677.985904868 783.38566616 677.985904868 848.477791142 743.07802985 c 0,35,36
 892.002342051 786.602580758 892.002342051 786.602580758 892.006283264 870.009653607 c 0,37,38
 892.006283264 965.97056317 892.006283264 965.97056317 833.641627273 1009.74405517 c 0,39,40
 763.995115647 1061.97893888 763.995115647 1061.97893888 608.01953125 1061.97893888 c 0,41,42
 432.628960965 1061.97893888 432.628960965 1061.97893888 367.54834872 996.898326633 c 0,43,44
 324.023014243 953.372992155 324.023014243 953.372992155 324.023014243 869.9765625 c 0,45,46
 324.023014243 835.174140325 324.023014243 835.174140325 299.428343208 810.579469292 c 128,-1,47
 274.833672175 785.984798257 274.833672175 785.984798257 240.03125 785.984798257 c 128,-1,48
 205.228827825 785.984798257 205.228827825 785.984798257 180.634156792 810.579469292 c 128,-1,49
 156.039485757 835.174140325 156.039485757 835.174140325 156.039485757 869.9765625 c 0,50,51
 156.039485757 1049.98434028 156.039485757 1049.98434028 281.658842053 1144.20098482 c 0,52,53
 396.004903554 1229.96246736 396.004903554 1229.96246736 608.01953125 1229.96246736 c 0,54,55
 853.190900262 1229.96246736 853.190900262 1229.96246736 968.371283438 1114.78208419 c 0,56,57
 1059.98981193 1023.16355569 1059.98981193 1023.16355569 1059.98981107 869.980382835 c 0,58,59
 1059.98105146 688.202623143 1059.98105146 688.202623143 931.972162269 593.995177677 c 1,0,1
EndSplineSet
Validated: 33
EndChar

StartChar: four
Encoding: 52 52 20
Width: 1229
GlyphClass: 2
Flags: W
LayerCount: 2
Fore
SplineSet
976 1229.99176424 m 128,-1,1
 1010.40520538 1229.99176424 1010.40520538 1229.99176424 1035.19848481 1205.19848481 c 128,-1,2
 1059.99176424 1180.40520538 1059.99176424 1180.40520538 1059.99176424 1146 c 2,3,-1
 1059.99176424 42 l 2,4,5
 1059.99176424 7.59479462303 1059.99176424 7.59479462303 1035.19848481 -17.1984848098 c 128,-1,6
 1010.40520538 -41.9917642427 1010.40520538 -41.9917642427 976 -41.9917642427 c 128,-1,7
 941.594794623 -41.9917642427 941.594794623 -41.9917642427 916.80151519 -17.1984848098 c 128,-1,8
 892.008235757 7.59479462303 892.008235757 7.59479462303 892.008235757 42 c 2,9,-1
 892.008235757 510.008235757 l 1,10,-1
 240 510.008235757 l 2,11,12
 204.752608801 510.008235757 204.752608801 510.008235757 181.299760917 533.461083641 c 0,13,14
 172.30780576 542.453038799 172.30780576 542.453038799 165.934754636 554.361428085 c 0,15,16
 155.507164584 573.845941742 155.507164584 573.845941742 155.507164584 594.101078126 c 0,17,18
 155.507164584 618.704972196 155.507164584 618.704972196 170.0854535 640.571572537 c 2,19,-1
 538.085822686 1192.57212631 l 2,20,21
 557.569213514 1221.79620294 557.569213514 1221.79620294 589.166392367 1228.47379048 c 0,22,23
 597.47161147 1230.22897337 597.47161147 1230.22897337 606.262347971 1230.22897337 c 0,24,25
 642.669982058 1230.22897337 642.669982058 1230.22897337 667.801147763 1205.09780766 c 0,26,27
 685.349094951 1187.54986048 685.349094951 1187.54986048 690.355014828 1162.52142062 c 0,28,29
 692.144524638 1153.57428607 692.144524638 1153.57428607 692.144524638 1144.98773204 c 0,30,31
 692.144524638 1120.77443213 692.144524638 1120.77443213 677.9145465 1099.42842746 c 2,32,-1
 434.563099418 734.401256844 l 1,33,-1
 396.956771019 677.991764243 l 1,34,-1
 892.008235757 677.991764243 l 1,35,-1
 892.008235757 1146 l 2,36,37
 892.008235757 1180.40520538 892.008235757 1180.40520538 916.80151519 1205.19848481 c 128,-1,0
 941.594794623 1229.99176424 941.594794623 1229.99176424 976 1229.99176424 c 128,-1,1
EndSplineSet
Validated: 1
EndChar

StartChar: five
Encoding: 53 53 21
Width: 1229
GlyphClass: 2
Flags: W
LayerCount: 2
Fore
SplineSet
240 1229.99176424 m 2,0,-1
 976 1229.99176424 l 2,1,2
 1010.40520538 1229.99176424 1010.40520538 1229.99176424 1035.19848481 1205.19848481 c 128,-1,3
 1059.99176424 1180.40520538 1059.99176424 1180.40520538 1059.99176424 1146 c 128,-1,4
 1059.99176424 1111.59479462 1059.99176424 1111.59479462 1035.19848481 1086.80151519 c 128,-1,5
 1010.40520538 1062.00823576 1010.40520538 1062.00823576 976 1062.00823576 c 2,6,-1
 323.9961549 1062.00823576 l 1,7,-1
 324.012412222 781.932503343 l 1,8,9
 369.66426369 809.571693108 369.66426369 809.571693108 421.231842868 828.559816874 c 0,10,11
 512.042856051 861.998089238 512.042856051 861.998089238 604.275078614 861.998089238 c 0,12,13
 729.093908824 861.998089238 729.093908824 861.998089238 834.826560222 800.463295291 c 0,14,15
 938.664083631 740.031436991 938.664083631 740.031436991 999.327923937 636.216809988 c 128,-1,16
 1059.99176424 532.402182985 1059.99176424 532.402182985 1059.99176424 410 c 128,-1,17
 1059.99176424 287.598397653 1059.99176424 287.598397653 999.263928687 183.673952071 c 0,18,19
 938.665062832 79.9702142523 938.665062832 79.9702142523 834.829852111 19.5358162424 c 0,20,21
 729.080446842 -42.0126854927 729.080446842 -42.0126854927 604.992610257 -42.0126854927 c 128,-1,22
 480.904773673 -42.0126854927 480.904773673 -42.0126854927 364.052621295 16.0145401433 c 0,23,24
 244.620518713 75.3229347585 244.620518713 75.3229347585 171.715203882 177.10245138 c 0,25,26
 155.920277623 199.153175981 155.920277623 199.153175981 155.920277623 224.945239712 c 0,27,28
 155.920277623 260.755311927 155.920277623 260.755311927 180.2274432 285.062477504 c 0,29,30
 185.241216828 290.076251132 185.241216828 290.076251132 191.141759314 294.303104085 c 0,31,32
 213.193240411 310.100247861 213.193240411 310.100247861 238.987545694 310.100247861 c 0,33,34
 274.797771066 310.100247861 274.797771066 310.100247861 299.104418336 285.793600591 c 0,35,36
 304.119539697 280.77847923 304.119539697 280.77847923 308.347079458 274.876366713 c 0,37,38
 355.179116914 209.497083452 355.179116914 209.497083452 439.288826138 167.734427709 c 128,-1,39
 523.398535363 125.971771966 523.398535363 125.971771966 604.452203938 125.971771966 c 0,40,41
 725.36362658 125.971771966 725.36362658 125.971771966 808.685931169 209.294097404 c 128,-1,42
 892.008235757 292.616422842 892.008235757 292.616422842 892.008235757 410 c 0,43,44
 892.008235757 527.715060142 892.008235757 527.715060142 809.054365275 610.335293493 c 0,45,46
 725.039426691 694.012327373 725.039426691 694.012327373 604.487170506 694.012327373 c 0,47,48
 523.418479265 694.012327373 523.418479265 694.012327373 439.827931636 652.50425473 c 0,49,50
 355.180693653 610.471467496 355.180693653 610.471467496 308.343692281 545.092334545 c 0,51,52
 292.380875648 522.810413937 292.380875648 522.810413937 266.428518411 514.240558037 c 0,53,54
 253.251648288 509.889358754 253.251648288 509.889358754 240.21909505 509.889358754 c 128,-1,55
 227.186541812 509.889358754 227.186541812 509.889358754 214.299189222 514.028875529 c 0,56,57
 188.288236469 522.383323895 188.288236469 522.383323895 172.1381416 544.521240725 c 128,-1,58
 156.040952098 566.586636952 156.040952098 566.586636952 156.039485825 593.978073347 c 2,59,-1
 156.008235708 1146.00041168 l 2,60,61
 156.008235708 1180.79989436 156.008235708 1180.79989436 180.602186083 1205.39502971 c 128,-1,62
 205.198920574 1229.99176424 205.198920574 1229.99176424 240 1229.99176424 c 2,0,-1
EndSplineSet
Validated: 1
EndChar

StartChar: six
Encoding: 54 54 22
Width: 1229
GlyphClass: 2
Flags: W
LayerCount: 2
Fore
SplineSet
604.512169391 694.012209675 m 0,0,1
 526.556189689 694.012209675 526.556189689 694.012209675 445.76661982 655.311658078 c 0,2,3
 370.890646794 619.443891209 370.890646794 619.443891209 323.991764243 564.652362864 c 1,4,-1
 323.991764243 410 l 2,5,6
 323.991764243 332.456276377 323.991764243 332.456276377 361.878275123 266.96398836 c 128,-1,7
 399.780464457 201.444597879 399.780464457 201.444597879 464.804586162 163.715465286 c 128,-1,8
 529.828707868 125.986332692 529.828707868 125.986332692 606.248932331 125.986332692 c 0,9,10
 684.79964467 125.986332692 684.79964467 125.986332692 750.813649893 164.234284233 c 0,11,12
 816.208304305 202.123389197 816.208304305 202.123389197 854.134661719 267.38584982 c 128,-1,13
 892.008235757 332.557482503 892.008235757 332.557482503 892.008235757 410 c 0,14,15
 892.008235757 527.714866408 892.008235757 527.714866408 809.054096775 610.335196168 c 0,16,17
 725.039004748 694.012209675 725.039004748 694.012209675 604.512169391 694.012209675 c 0,0,1
1044.30432737 1010.88973612 m 0,18,19
 1060.09925363 988.83901152 1060.09925363 988.83901152 1060.09925363 963.046947792 c 0,20,21
 1060.09925363 927.236875576 1060.09925363 927.236875576 1035.79208805 902.929709998 c 0,22,23
 1030.77831442 897.915936368 1030.77831442 897.915936368 1024.87777194 893.689083419 c 0,24,25
 1002.82629084 877.891939639 1002.82629084 877.891939639 977.031985556 877.891939639 c 0,26,27
 941.221760184 877.891939639 941.221760184 877.891939639 916.915112914 902.198586909 c 0,28,29
 911.899991576 907.213708247 911.899991576 907.213708247 907.672565519 913.11566202 c 0,30,31
 860.839866052 978.495224681 860.839866052 978.495224681 776.726610199 1020.25973484 c 128,-1,32
 692.613354345 1062.02424499 692.613354345 1062.02424499 611.547280956 1062.02424499 c 0,33,34
 490.632746874 1062.02424499 490.632746874 1062.02424499 406.35872807 977.750184101 c 0,35,36
 325.37557221 896.767028241 325.37557221 896.767028241 324.015012939 781.934315088 c 1,37,38
 369.657734119 809.56762972 369.657734119 809.56762972 421.21455726 828.553598623 c 0,39,40
 512.033810521 861.998085949 512.033810521 861.998085949 604.275412955 861.998085949 c 0,41,42
 729.093873376 861.998085949 729.093873376 861.998085949 834.826592162 800.463048162 c 0,43,44
 938.664143329 740.030972754 938.664143329 740.030972754 999.327953786 636.216359076 c 128,-1,45
 1059.99176424 532.401745399 1059.99176424 532.401745399 1059.99176424 410 c 128,-1,46
 1059.99176424 287.562504423 1059.99176424 287.562504423 999.308271952 183.484037647 c 128,-1,47
 938.731068433 79.5878671075 938.731068433 79.5878671075 834.768835247 19.0912841215 c 0,48,49
 729.787872147 -41.9981072042 729.787872147 -41.9981072042 607.322207437 -41.9981072042 c 128,-1,50
 484.856542727 -41.9981072042 484.856542727 -41.9981072042 381.359293558 18.203698821 c 0,51,52
 277.14679986 78.8215450095 277.14679986 78.8215450095 216.60849867 183.102550423 c 128,-1,53
 156.008235757 287.490288773 156.008235757 287.490288773 156.008235757 410 c 2,54,-1
 156.008235757 778 l 2,55,56
 156.008235757 900.401678806 156.008235757 900.401678806 216.737229049 1004.32605168 c 0,57,58
 277.337256351 1108.02972751 277.337256351 1108.02972751 381.175659826 1168.46355387 c 0,59,60
 486.923546954 1230.00869743 486.923546954 1230.00869743 611.015835354 1230.00869743 c 128,-1,61
 735.108123753 1230.00869743 735.108123753 1230.00869743 853.253194414 1171.33870277 c 128,-1,62
 971.398265076 1112.66870811 971.398265076 1112.66870811 1044.30432737 1010.88973612 c 0,18,19
EndSplineSet
Validated: 1
EndChar

StartChar: seven
Encoding: 55 55 23
Width: 1229
GlyphClass: 2
Flags: W
LayerCount: 2
Fore
SplineSet
240 1229.99176424 m 2,0,-1
 976 1229.99176424 l 2,1,2
 1019.01212246 1229.99176424 1019.01212246 1229.99176424 1044.1705105 1195.08510904 c 0,3,4
 1060.24538877 1172.78160407 1060.24538877 1172.78160407 1060.24538877 1146.59272833 c 0,5,6
 1060.24538877 1133.09643797 1060.24538877 1133.09643797 1055.67691338 1119.39101181 c 2,7,-1
 687.676913379 15.3910118115 l 2,8,9
 676.686830868 -17.579235721 676.686830868 -17.579235721 645.578067872 -33.1336172186 c 0,10,11
 627.354790918 -42.2452556955 627.354790918 -42.2452556955 611.22541484 -42.2452556955 c 0,12,13
 573.278249168 -42.2452556955 573.278249168 -42.2452556955 548.678591079 -17.6455976056 c 0,14,15
 539.121704218 -8.08871074499 539.121704218 -8.08871074499 531.438222994 7.27825170304 c 128,-1,16
 523.75474177 22.6452141511 523.75474177 22.6452141511 523.75474177 38.7745838923 c 128,-1,17
 523.75474177 54.9039536335 523.75474177 54.9039536335 528.323079225 68.6089660009 c 2,18,-1
 859.455552445 1062.00823576 l 1,19,-1
 240 1062.00823576 l 2,20,21
 205.594794623 1062.00823576 205.594794623 1062.00823576 180.80151519 1086.80151519 c 128,-1,22
 156.008235757 1111.59479462 156.008235757 1111.59479462 156.008235757 1146 c 128,-1,23
 156.008235757 1180.40520538 156.008235757 1180.40520538 180.80151519 1205.19848481 c 128,-1,24
 205.594794623 1229.99176424 205.594794623 1229.99176424 240 1229.99176424 c 2,0,-1
EndSplineSet
Validated: 1
EndChar

StartChar: eight
Encoding: 56 56 24
Width: 1229
GlyphClass: 2
Flags: W
LayerCount: 2
Fore
SplineSet
608.004882812 509.961360757 m 0,0,1
 432.574273473 509.961360757 432.574273473 509.961360757 367.528817466 444.91590475 c 0,2,3
 324.003482993 401.390570277 324.003482993 401.390570277 324.003482993 317.994140625 c 0,4,5
 324.003482993 222.00774547 324.003482993 222.00774547 382.378007544 178.226570288 c 0,6,7
 452.023967372 125.991764243 452.023967372 125.991764243 608 125.991764243 c 0,8,9
 783.390570277 125.991764243 783.390570277 125.991764243 848.471182534 191.0723765 c 0,10,11
 891.996517007 234.597710973 891.996517007 234.597710973 891.996517007 317.994140625 c 0,12,13
 891.996517007 413.98053578 891.996517007 413.98053578 833.621992456 457.761710962 c 0,14,15
 764.023804159 509.961360757 764.023804159 509.961360757 608.004882812 509.961360757 c 0,0,1
608.01953125 1061.97893888 m 0,16,17
 432.628960965 1061.97893888 432.628960965 1061.97893888 367.54834872 996.898326633 c 0,18,19
 324.023014243 953.372992155 324.023014243 953.372992155 324.023014243 869.9765625 c 0,20,21
 324.023014243 773.990167345 324.023014243 773.990167345 382.397538794 730.208992163 c 0,22,23
 451.99752012 678.009342368 451.99752012 678.009342368 608.030147156 678.009342239 c 0,24,25
 783.445257648 678.009342239 783.445257648 678.009342239 848.490713784 743.054798375 c 0,26,27
 892.016048257 786.580132848 892.016048257 786.580132848 892.016048257 869.9765625 c 0,28,29
 892.016048257 965.962957656 892.016048257 965.962957656 833.641523704 1009.74413284 c 0,30,31
 763.99556388 1061.97893888 763.99556388 1061.97893888 608.01953125 1061.97893888 c 0,16,17
284.027098198 593.992515587 m 1,32,33
 156.039485757 688.199786154 156.039485757 688.199786154 156.039485757 869.9765625 c 0,34,35
 156.039485757 1049.98434028 156.039485757 1049.98434028 281.658842053 1144.20098482 c 0,36,37
 396.004903554 1229.96246736 396.004903554 1229.96246736 608.01953125 1229.96246736 c 0,38,39
 853.190437816 1229.96246736 853.190437816 1229.96246736 968.37208265 1114.78082253 c 0,40,41
 1059.99957674 1023.15332844 1059.99957674 1023.15332844 1059.99957674 869.9765625 c 0,42,43
 1059.99957674 688.182155112 1059.99957674 688.182155112 931.992430416 593.978195215 c 1,44,45
 1059.98004549 499.770105853 1059.98004549 499.770105853 1059.98004549 317.994140625 c 0,46,47
 1059.98004549 137.984660983 1059.98004549 137.984660983 934.360398524 43.7695002906 c 0,48,49
 820.012562198 -41.9917642427 820.012562198 -41.9917642427 608 -41.9917642427 c 0,50,51
 362.828725725 -41.9917642427 362.828725725 -41.9917642427 247.646407421 73.190554061 c 0,52,53
 156.019954507 164.817006975 156.019954507 164.817006975 156.019954507 317.994140625 c 0,54,55
 156.019954507 499.787545896 156.019954507 499.787545896 284.027098198 593.992515587 c 1,32,33
EndSplineSet
Validated: 1
EndChar

StartChar: nine
Encoding: 57 57 25
Width: 1229
GlyphClass: 2
Flags: W
LayerCount: 2
Fore
SplineSet
609.369084771 493.979614599 m 1,0,-1
 616.311096293 493.901155434 l 2,1,2
 691.210100875 493.901155434 691.210100875 493.901155434 769.765484875 531.781411317 c 0,3,4
 844.779695474 567.954075082 844.779695474 567.954075082 892.008235757 623.27290368 c 1,5,-1
 892.008235757 778 l 2,6,7
 892.008235757 895.594794623 892.008235757 895.594794623 808.80151519 978.80151519 c 128,-1,8
 725.594794623 1062.00823576 725.594794623 1062.00823576 608 1062.00823576 c 128,-1,9
 490.405205377 1062.00823576 490.405205377 1062.00823576 407.19848481 978.80151519 c 128,-1,10
 323.991764243 895.594794623 323.991764243 895.594794623 323.991764243 778 c 128,-1,11
 323.991764243 660.405205377 323.991764243 660.405205377 407.19848481 577.19848481 c 128,-1,12
 490.405205377 493.991764243 490.405205377 493.991764243 608 493.991764243 c 1,13,-1
 609.369084771 493.979614599 l 1,0,-1
845.64793728 380.329870719 m 1,14,15
 733.532846448 325.923038 733.532846448 325.923038 616.843331548 325.923038 c 0,16,17
 611.701854113 325.923038 611.701854113 325.923038 606.557294146 326.031268005 c 0,18,19
 485.046957605 326.185528535 485.046957605 326.185528535 380.964677079 386.852860169 c 128,-1,20
 277.024361397 447.437443536 277.024361397 447.437443536 216.558599159 551.459965892 c 128,-1,21
 156.008235757 655.628032205 156.008235757 655.628032205 156.008235757 778 c 0,22,23
 156.008235757 964.405205377 156.008235757 964.405205377 288.80151519 1097.19848481 c 128,-1,24
 421.594794623 1229.99176424 421.594794623 1229.99176424 608 1229.99176424 c 128,-1,25
 794.405205377 1229.99176424 794.405205377 1229.99176424 927.19848481 1097.19848481 c 128,-1,26
 1059.99176424 964.405205377 1059.99176424 964.405205377 1059.99176424 778 c 2,27,-1
 1059.99176424 594 l 2,28,29
 1059.99176424 387.572167987 1059.99176424 387.572167987 945.440245705 215.744381056 c 128,-1,30
 830.838630433 43.8414487974 830.838630433 43.8414487974 640.339094484 -35.5330326813 c 0,31,32
 624.768945437 -42.0200845552 624.768945437 -42.0200845552 608.018554688 -42.0200845552 c 0,33,34
 572.413860916 -42.0200845552 572.413860916 -42.0200845552 549.195074155 -18.8012977939 c 0,35,36
 537.419893372 -7.02611701117 537.419893372 -7.02611701117 530.699904409 9.10246877672 c 128,-1,37
 523.979915445 25.2310545646 523.979915445 25.2310545646 523.979915445 41.9814453125 c 0,38,39
 523.979915445 77.5861390843 523.979915445 77.5861390843 547.198702207 100.804925846 c 0,40,41
 558.973883019 112.580106658 558.973883019 112.580106658 575.659782935 119.532564957 c 0,42,43
 693.256103886 168.531200275 693.256103886 168.531200275 773.681075566 265.908879221 c 0,44,45
 817.80291388 319.331120051 817.80291388 319.331120051 845.64793728 380.329870719 c 1,14,15
EndSplineSet
Validated: 1
EndChar

StartChar: colon
Encoding: 58 58 26
Width: 1229
GlyphClass: 2
Flags: W
LayerCount: 2
Fore
SplineSet
608 748.995882121 m 128,-1,1
 652.702602688 748.995882121 652.702602688 748.995882121 684.849242405 716.849242405 c 128,-1,2
 716.995882121 684.702602688 716.995882121 684.702602688 716.995882121 640 c 128,-1,3
 716.995882121 595.297397312 716.995882121 595.297397312 684.849242405 563.150757595 c 128,-1,4
 652.702602688 531.004117879 652.702602688 531.004117879 608 531.004117879 c 128,-1,5
 563.297397312 531.004117879 563.297397312 531.004117879 531.150757595 563.150757595 c 128,-1,6
 499.004117879 595.297397312 499.004117879 595.297397312 499.004117879 640 c 128,-1,7
 499.004117879 684.702602688 499.004117879 684.702602688 531.150757595 716.849242405 c 128,-1,0
 563.297397312 748.995882121 563.297397312 748.995882121 608 748.995882121 c 128,-1,1
608 288.995882121 m 128,-1,9
 652.702602688 288.995882121 652.702602688 288.995882121 684.849242405 256.849242405 c 128,-1,10
 716.995882121 224.702602688 716.995882121 224.702602688 716.995882121 180 c 128,-1,11
 716.995882121 135.297397312 716.995882121 135.297397312 684.849242405 103.150757595 c 128,-1,12
 652.702602688 71.0041178786 652.702602688 71.0041178786 608 71.0041178786 c 128,-1,13
 563.297397312 71.0041178786 563.297397312 71.0041178786 531.150757595 103.150757595 c 128,-1,14
 499.004117879 135.297397312 499.004117879 135.297397312 499.004117879 180 c 128,-1,15
 499.004117879 224.702602688 499.004117879 224.702602688 531.150757595 256.849242405 c 128,-1,8
 563.297397312 288.995882121 563.297397312 288.995882121 608 288.995882121 c 128,-1,9
EndSplineSet
Validated: 1
EndChar

StartChar: semicolon
Encoding: 59 59 27
AltUni2: 00037e.ffffffff.0 00037e.ffffffff.0
Width: 1229
GlyphClass: 2
Flags: W
LayerCount: 2
Fore
SplineSet
608 748.995882121 m 128,-1,1
 652.702602688 748.995882121 652.702602688 748.995882121 684.849242405 716.849242405 c 128,-1,2
 716.995882121 684.702602688 716.995882121 684.702602688 716.995882121 640 c 128,-1,3
 716.995882121 595.297397312 716.995882121 595.297397312 684.849242405 563.150757595 c 128,-1,4
 652.702602688 531.004117879 652.702602688 531.004117879 608 531.004117879 c 128,-1,5
 563.297397312 531.004117879 563.297397312 531.004117879 531.150757595 563.150757595 c 128,-1,6
 499.004117879 595.297397312 499.004117879 595.297397312 499.004117879 640 c 128,-1,7
 499.004117879 684.702602688 499.004117879 684.702602688 531.150757595 716.849242405 c 128,-1,0
 563.297397312 748.995882121 563.297397312 748.995882121 608 748.995882121 c 128,-1,1
608 288.995882121 m 128,-1,9
 652.702602688 288.995882121 652.702602688 288.995882121 684.849242405 256.849242405 c 128,-1,10
 716.995882121 224.702602688 716.995882121 224.702602688 716.995882121 180 c 0,11,12
 716.995882121 32.7991285294 716.995882121 32.7991285294 626.93754154 -83.5472119761 c 0,13,14
 608.026636256 -107.978303996 608.026636256 -107.978303996 577.071289062 -107.978303996 c 0,15,16
 550.905662507 -107.978303996 550.905662507 -107.978303996 532.515437068 -89.5880785573 c 128,-1,17
 514.125211629 -71.1978531182 514.125211629 -71.1978531182 514.125211629 -44.9677734375 c 0,18,19
 514.125211629 -23.4336354573 514.125211629 -23.4336354573 527.269574482 -6.45267850741 c 0,20,21
 556.894867962 31.8198627353 556.894867962 31.8198627353 573.000872445 76.688036538 c 1,22,23
 547.390805405 85.2713998906 547.390805405 85.2713998906 527.798320798 106.582864569 c 0,24,25
 499.004117879 137.894693128 499.004117879 137.894693128 499.004117879 181.298647908 c 128,-1,26
 499.004117879 224.702602688 499.004117879 224.702602688 531.150757595 256.849242405 c 128,-1,8
 563.297397312 288.995882121 563.297397312 288.995882121 608 288.995882121 c 128,-1,9
EndSplineSet
Validated: 1
EndChar

StartChar: less
Encoding: 60 60 28
Width: 1229
GlyphClass: 2
Flags: W
LayerCount: 2
Fore
SplineSet
977.256956521 841.044598496 m 0,0,1
 1002.70714142 841.044598496 1002.70714142 841.044598496 1019.66452144 824.087218479 c 0,2,3
 1027.13142105 816.620318868 1027.13142105 816.620318868 1033.15844736 804.566104331 c 128,-1,4
 1039.18547367 792.511889793 1039.18547367 792.511889793 1039.18547367 780.418656038 c 0,5,6
 1039.18547367 751.914924211 1039.18547367 751.914924211 1020.79711507 733.526565608 c 0,7,8
 1013.65905504 726.388505574 1013.65905504 726.388505574 1004.18100171 721.649255844 c 2,9,-1
 508.530689033 473.824099506 l 1,10,-1
 380.882490022 410 l 1,11,-1
 1004.18135248 98.3505687691 l 2,12,13
 1027.5157859 86.682802882 1027.5157859 86.682802882 1035.76174899 61.9455058605 c 0,14,15
 1039.1854598 51.6746193368 1039.1854598 51.6746193368 1039.1854598 39.5813508993 c 128,-1,16
 1039.1854598 27.4880824618 1039.1854598 27.4880824618 1033.39847712 15.914513715 c 128,-1,17
 1027.61149443 4.34094496823 1027.61149443 4.34094496823 1018.95105697 -4.31949249564 c 128,-1,18
 1010.2906195 -12.9799299595 1010.2906195 -12.9799299595 997.982574236 -17.0827099417 c 128,-1,19
 985.674528967 -21.1854899238 985.674528967 -21.1854899238 973.581335841 -21.1854899238 c 128,-1,20
 961.488142714 -21.1854899238 961.488142714 -21.1854899238 947.81899829 -14.3507441561 c 2,21,-1
 211.818486797 353.649511599 l 2,22,23
 201.614471121 358.751869633 201.614471121 358.751869633 194.239982398 366.126358356 c 0,24,25
 177.008024129 383.358316626 177.008024129 383.358316626 177.008024129 410 c 128,-1,26
 177.008024129 436.641683374 177.008024129 436.641683374 194.239982398 453.873641644 c 0,27,28
 201.614471104 461.248130349 201.614471104 461.248130349 211.81899829 466.350744156 c 2,29,-1
 763.818884625 742.350687321 l 1,30,-1
 947.81899829 834.350744156 l 2,31,32
 961.206706969 841.044598496 961.206706969 841.044598496 977.256956521 841.044598496 c 0,0,1
EndSplineSet
Validated: 1
EndChar

StartChar: equal
Encoding: 61 61 29
Width: 1229
GlyphClass: 2
Flags: W
LayerCount: 2
Fore
SplineSet
240 656.995882121 m 2,0,-1
 976 656.995882121 l 2,1,2
 1001.70260269 656.995882121 1001.70260269 656.995882121 1020.3492424 638.349242405 c 128,-1,3
 1038.99588212 619.702602688 1038.99588212 619.702602688 1038.99588212 594 c 128,-1,4
 1038.99588212 568.297397312 1038.99588212 568.297397312 1020.3492424 549.650757595 c 128,-1,5
 1001.70260269 531.004117879 1001.70260269 531.004117879 976 531.004117879 c 2,6,-1
 240 531.004117879 l 2,7,8
 214.297397312 531.004117879 214.297397312 531.004117879 195.650757595 549.650757595 c 128,-1,9
 177.004117879 568.297397312 177.004117879 568.297397312 177.004117879 594 c 128,-1,10
 177.004117879 619.702602688 177.004117879 619.702602688 195.650757595 638.349242405 c 128,-1,11
 214.297397312 656.995882121 214.297397312 656.995882121 240 656.995882121 c 2,0,-1
240 288.995882121 m 2,12,-1
 976 288.995882121 l 2,13,14
 1001.70260269 288.995882121 1001.70260269 288.995882121 1020.3492424 270.349242405 c 128,-1,15
 1038.99588212 251.702602688 1038.99588212 251.702602688 1038.99588212 226 c 128,-1,16
 1038.99588212 200.297397312 1038.99588212 200.297397312 1020.3492424 181.650757595 c 128,-1,17
 1001.70260269 163.004117879 1001.70260269 163.004117879 976 163.004117879 c 2,18,-1
 240 163.004117879 l 2,19,20
 214.297397312 163.004117879 214.297397312 163.004117879 195.650757595 181.650757595 c 128,-1,21
 177.004117879 200.297397312 177.004117879 200.297397312 177.004117879 226 c 128,-1,22
 177.004117879 251.702602688 177.004117879 251.702602688 195.650757595 270.349242405 c 128,-1,23
 214.297397312 288.995882121 214.297397312 288.995882121 240 288.995882121 c 2,12,-1
EndSplineSet
Validated: 1
EndChar

StartChar: greater
Encoding: 62 62 30
Width: 1229
GlyphClass: 2
Flags: W
LayerCount: 2
Fore
SplineSet
1039.00564774 410 m 128,-1,1
 1039.00564774 383.35797645 1039.00564774 383.35797645 1021.77394944 366.126278144 c 0,2,3
 1014.39918069 358.751509396 1014.39918069 358.751509396 1004.19467358 353.649255844 c 2,4,-1
 268.19486282 -14.3506495371 l 2,5,6
 254.525561665 -21.1854736723 254.525561665 -21.1854736723 242.43232791 -21.1854736723 c 0,7,8
 213.928596082 -21.1854736723 213.928596082 -21.1854736723 195.540237485 -2.79711507507 c 0,9,10
 188.402177467 4.34094494287 188.402177467 4.34094494287 182.615385016 15.9145543988 c 128,-1,11
 176.828592565 27.4881638548 176.828592565 27.4881638548 176.828592565 39.5812285867 c 0,12,13
 176.828592565 68.0853582271 176.828592565 68.0853582271 195.216922928 86.4736885898 c 0,14,15
 202.354840703 93.6116063644 202.354840703 93.6116063644 211.832670165 98.3507441561 c 2,16,-1
 707.482982844 346.175900494 l 1,17,-1
 835.131181853 410 l 1,18,-1
 211.8323194 721.649431231 l 2,19,20
 188.497885977 733.317197117 188.497885977 733.317197117 180.251922881 758.054494149 c 0,21,22
 176.828223085 768.325347636 176.828223085 768.325347636 176.828223085 780.418643591 c 128,-1,23
 176.828223085 792.511939547 176.828223085 792.511939547 182.855560811 804.56610598 c 0,24,25
 201.095609257 841.044662469 201.095609257 841.044662469 238.756227071 841.044662469 c 0,26,27
 254.806836959 841.044662469 254.806836959 841.044662469 268.194673585 834.350744156 c 2,28,-1
 1004.19467359 466.350744155 l 2,29,30
 1014.39918069 461.248490604 1014.39918069 461.248490604 1021.77394944 453.873721856 c 0,31,0
 1039.00564774 436.64202355 1039.00564774 436.64202355 1039.00564774 410 c 128,-1,1
EndSplineSet
Validated: 1
EndChar

StartChar: question
Encoding: 63 63 31
Width: 1229
GlyphClass: 2
Flags: W
LayerCount: 2
Fore
SplineSet
608.01953125 1208.96658524 m 0,0,1
 844.488110912 1208.96658524 844.488110912 1208.96658524 953.523621145 1099.93107501 c 0,2,3
 1039.00369462 1014.45100153 1039.00369462 1014.45100153 1039.00369462 869.9765625 c 0,4,5
 1039.00369462 700.47047859 1039.00369462 700.47047859 921.793116762 612.566117963 c 0,6,7
 830.117882373 543.812490048 830.117882373 543.812490048 671.003034115 533.065291636 c 1,8,-1
 670.995882103 317.997156172 l 2,9,10
 670.994783304 291.897373889 670.994783304 291.897373889 652.545758804 273.450423444 c 128,-1,11
 634.097379273 255.004117897 634.097379273 255.004117897 607.997156172 255.004117897 c 128,-1,12
 581.897303968 255.005216699 581.897303968 255.005216699 563.450094503 273.454203923 c 128,-1,13
 545.004117826 291.901958242 545.004117826 291.901958242 545.004117892 318.002701739 c 2,14,-1
 545.013883522 593.99307824 l 2,15,16
 545.01498234 620.092198007 545.01498234 620.092198007 563.464335755 638.539773657 c 128,-1,17
 581.912456302 656.986116555 581.912456302 656.986116555 608.035743986 656.986116197 c 0,18,19
 792.119206823 656.986116197 792.119206823 656.986116197 863.341967225 728.208876598 c 0,20,21
 913.011930379 777.878839752 913.011930379 777.878839752 913.011930379 869.9765625 c 0,22,23
 913.011930379 976.468846171 913.011930379 976.468846171 846.226035292 1026.55858986 c 0,24,25
 771.004877875 1082.974821 771.004877875 1082.974821 608.01953125 1082.974821 c 0,26,27
 423.926358276 1082.974821 423.926358276 1082.974821 352.699106315 1011.74756904 c 0,28,29
 303.027132121 962.075594844 303.027132121 962.075594844 303.027132121 869.9765625 c 0,30,31
 303.027132121 843.876743014 303.027132121 843.876743014 284.579100803 825.428711697 c 128,-1,32
 266.131069486 806.980680379 266.131069486 806.980680379 240.03125 806.980680379 c 128,-1,33
 213.931430514 806.980680379 213.931430514 806.980680379 195.483399197 825.428711697 c 128,-1,34
 177.035367879 843.876743014 177.035367879 843.876743014 177.035367879 869.9765625 c 0,35,36
 177.035367879 1039.4785536 177.035367879 1039.4785536 294.243483527 1127.38662522 c 0,37,38
 403.014307554 1208.96658524 403.014307554 1208.96658524 608.01953125 1208.96658524 c 0,0,1
608 196.995882121 m 128,-1,40
 652.702602688 196.995882121 652.702602688 196.995882121 684.849242405 164.849242405 c 128,-1,41
 716.995882121 132.702602688 716.995882121 132.702602688 716.995882121 88 c 128,-1,42
 716.995882121 43.2973973115 716.995882121 43.2973973115 684.849242405 11.1507575951 c 128,-1,43
 652.702602688 -20.9958821214 652.702602688 -20.9958821214 608 -20.9958821214 c 128,-1,44
 563.297397312 -20.9958821214 563.297397312 -20.9958821214 531.150757595 11.1507575951 c 128,-1,45
 499.004117879 43.2973973115 499.004117879 43.2973973115 499.004117879 88 c 128,-1,46
 499.004117879 132.702602688 499.004117879 132.702602688 531.150757595 164.849242405 c 128,-1,39
 563.297397312 196.995882121 563.297397312 196.995882121 608 196.995882121 c 128,-1,40
EndSplineSet
Validated: 1
EndChar

StartChar: at
Encoding: 64 64 32
Width: 1229
GlyphClass: 2
Flags: W
LayerCount: 2
Fore
SplineSet
699.986328125 669.017789754 m 2,0,1
 576.870564848 669.017789754 576.870564848 669.017789754 521.162077211 641.161277982 c 0,2,3
 499.461664829 630.310188343 499.461664829 630.310188343 493.222913622 621.1186453 c 128,-1,4
 486.984162415 611.927102257 486.984162415 611.927102257 486.984163214 594.012348014 c 0,5,6
 486.986739668 572.903459939 486.986739668 572.903459939 495.467150615 564.423048992 c 128,-1,7
 503.947561562 555.942638045 503.947561562 555.942638045 521.004536426 547.481827855 c 0,8,9
 576.468197871 519.970061223 576.468197871 519.970061223 700.502545267 518.993272977 c 0,10,11
 701.417402793 518.986067701 701.417402793 518.986067701 702.332946942 518.986067701 c 0,12,13
 759.771411542 518.986067701 759.771411542 518.986067701 819.912372027 547.345510393 c 0,14,15
 877.214829036 574.366458055 877.214829036 574.366458055 913.00588899 615.926071862 c 1,16,17
 913.00588899 642.471930808 913.00588899 642.471930808 913.004619794 669.017789754 c 1,18,-1
 699.986328125 669.017789754 l 2,0,1
177.004117879 778 m 2,19,20
 177.004117879 894.793811711 177.004117879 894.793811711 234.80766792 994.14844337 c 128,-1,21
 292.569206223 1093.43086388 292.569206223 1093.43086388 391.851881847 1151.1923709 c 128,-1,22
 491.206755899 1208.99588212 491.206755899 1208.99588212 608.000976562 1208.99588212 c 128,-1,23
 724.795197226 1208.99588212 724.795197226 1208.99588212 824.150071279 1151.1923709 c 128,-1,24
 923.432746902 1093.43086388 923.432746902 1093.43086388 981.194285205 994.148443369 c 128,-1,25
 1038.99783524 894.793811711 1038.99783524 894.793811711 1038.99783524 778 c 2,26,-1
 1038.99783524 456.001953125 l 2,27,28
 1038.99783524 429.90213364 1038.99783524 429.90213364 1020.54980392 411.454102322 c 128,-1,29
 1002.10177261 393.006071004 1002.10177261 393.006071004 976.001953125 393.006071004 c 128,-1,30
 949.902133639 393.006071004 949.902133639 393.006071004 932.03375709 410.874447553 c 128,-1,31
 914.165380541 428.742824102 914.165380541 428.742824102 913.07892423 452.751845793 c 1,32,33
 816.368991151 392.99133183 816.368991151 392.99133183 702.914120527 392.99133183 c 0,34,35
 701.212528975 392.99133183 701.212528975 392.99133183 699.507170836 393.004774288 c 0,36,37
 546.43019118 394.210635765 546.43019118 394.210635765 464.999418327 434.604085586 c 0,38,39
 417.549681458 458.140533236 417.549681458 458.140533236 389.274354125 500.61754603 c 128,-1,40
 360.999026792 543.094558824 360.999026792 543.094558824 360.992397759 594.019087845 c 128,-1,41
 360.992397759 644.922487785 360.992397759 644.922487785 389.349484562 687.797471345 c 0,42,43
 417.352155653 730.136589994 417.352155653 730.136589994 464.797124187 753.860314912 c 0,44,45
 547.091298493 795.009553996 547.091298493 795.009553996 699.984375 795.009553996 c 2,46,-1
 912.59075466 795.009553996 l 1,47,48
 906.926668362 910.374846828 906.926668362 910.374846828 823.650757595 993.650757595 c 0,49,50
 734.297397312 1083.00411788 734.297397312 1083.00411788 608 1083.00411788 c 128,-1,51
 481.702602688 1083.00411788 481.702602688 1083.00411788 392.349242405 993.650757595 c 128,-1,52
 302.995882121 904.297397312 302.995882121 904.297397312 302.995882121 778 c 2,53,-1
 302.995882121 410 l 2,54,55
 302.995882121 283.915508452 302.995882121 283.915508452 392.074089188 195.017804567 c 0,56,57
 482.298863344 104.975856934 482.298863344 104.975856934 611.575118226 104.975856934 c 0,58,59
 697.580908857 104.975856934 697.580908857 104.975856934 785.558915143 148.65759887 c 0,60,61
 874.884478751 193.008413152 874.884478751 193.008413152 924.777629613 262.661812634 c 0,62,63
 943.69732169 289.074424982 943.69732169 289.074424982 976.788142175 289.074424982 c 0,64,65
 1002.10172339 289.074424982 1002.10172339 289.074424982 1020.96226557 270.213882808 c 0,66,67
 1039.09269443 252.083453948 1039.09269443 252.083453948 1039.09269443 225.209481651 c 0,68,69
 1039.09269443 205.867044539 1039.09269443 205.867044539 1027.23804717 189.316775287 c 0,70,71
 957.391932522 91.8080572516 957.391932522 91.8080572516 843.787471997 35.3956495046 c 128,-1,72
 730.183011472 -21.0167582423 730.183011472 -21.0167582423 611.900681123 -21.0167582423 c 0,73,74
 492.612757476 -21.0167582423 492.612757476 -21.0167582423 391.737781417 37.692043915 c 0,75,76
 292.682657782 95.3416997887 292.682657782 95.3416997887 234.875642486 194.264954247 c 128,-1,77
 177.004117879 293.298601377 177.004117879 293.298601377 177.004117879 410 c 2,78,-1
 177.004117879 778 l 2,19,20
EndSplineSet
Validated: 1
EndChar

StartChar: A
Encoding: 65 65 33
Width: 1229
GlyphClass: 2
Flags: W
AnchorPoint: "Anchor-8" 615 -120 basechar 0
LayerCount: 2
Fore
SplineSet
608 1229.98199862 m 0,0,1
 642.849678661 1229.98199862 642.849678661 1229.98199862 667.595900882 1205.2357764 c 0,2,3
 681.40402552 1191.42765176 681.40402552 1191.42765176 687.676913379 1172.60898819 c 2,4,-1
 1055.67691338 68.608988182 l 2,5,6
 1060.24525569 54.9039612392 1060.24525569 54.9039612392 1060.24525569 38.7745851616 c 128,-1,7
 1060.24525569 22.645209084 1060.24525569 22.645209084 1052.56177574 7.27824916925 c 128,-1,8
 1044.87829578 -8.08871074553 1044.87829578 -8.08871074553 1035.32140893 -17.6455976029 c 0,9,10
 1021.63064563 -31.3363608983 1021.63064563 -31.3363608983 1005.26730343 -36.7908082969 c 128,-1,11
 988.903961239 -42.2452556955 988.903961239 -42.2452556955 972.77458516 -42.2452556955 c 128,-1,12
 956.645209082 -42.2452556955 956.645209082 -42.2452556955 941.278249168 -34.561775739 c 128,-1,13
 925.911289255 -26.8782957825 925.911289255 -26.8782957825 916.354402394 -17.3214089217 c 0,14,15
 902.663639101 -3.63064562834 902.663639101 -3.63064562834 896.323086621 15.3910118112 c 2,16,-1
 792.784011973 326.008235757 l 1,17,-1
 423.215988027 326.008235757 l 1,18,-1
 319.676913379 15.3910118115 l 2,19,20
 308.686830868 -17.579235721 308.686830868 -17.579235721 277.578067872 -33.1336172186 c 0,21,22
 259.354790918 -42.2452556955 259.354790918 -42.2452556955 243.22541484 -42.2452556955 c 0,23,24
 205.278249168 -42.2452556955 205.278249168 -42.2452556955 180.678591079 -17.6455976056 c 0,25,26
 171.121704218 -8.08871074499 171.121704218 -8.08871074499 163.438224261 7.27824916804 c 128,-1,27
 155.754744305 22.6452090811 155.754744305 22.6452090811 155.754744305 38.7745851598 c 128,-1,28
 155.754744305 54.9039612385 155.754744305 54.9039612385 160.323086621 68.6089881888 c 2,29,-1
 528.323086621 1172.60898819 l 2,30,31
 536.884922275 1198.29449515 536.884922275 1198.29449515 558.920764292 1214.17017244 c 128,-1,32
 580.867979318 1229.98199862 580.867979318 1229.98199862 608 1229.98199862 c 0,0,1
736.789502477 493.991764243 m 1,33,-1
 608 880.360271675 l 1,34,-1
 479.210497523 493.991764243 l 1,35,-1
 736.789502477 493.991764243 l 1,33,-1
EndSplineSet
EndChar

StartChar: B
Encoding: 66 66 34
Width: 1229
GlyphClass: 2
Flags: W
AnchorPoint: "Anchor-8" 615 -120 basechar 0
LayerCount: 2
Fore
SplineSet
932.000414217 593.985502506 m 1,0,1
 1059.98004549 499.777565233 1059.98004549 499.777565233 1059.98004549 318.00390625 c 0,2,3
 1059.98004549 137.99833286 1059.98004549 137.99833286 934.360107845 43.7829541577 c 0,4,5
 820.026595859 -41.9800501119 820.026595859 -41.9800501119 608.003300582 -41.9800454712 c 2,6,-1
 239.999588328 -41.9917642925 l 2,7,8
 205.200105632 -41.9917642925 205.200105632 -41.9917642925 180.604970297 -17.3978139233 c 128,-1,9
 156.008235757 7.19892057904 156.008235757 7.19892057904 156.008235757 42 c 2,10,-1
 156.008235757 1146 l 2,11,12
 156.008235757 1180.80226441 156.008235757 1180.80226441 180.604970302 1205.39781393 c 128,-1,13
 205.201570847 1229.99176421 205.201570847 1229.99176421 240.003525117 1229.99176421 c 2,14,-1
 608.013333937 1229.97809233 l 2,15,16
 853.187902573 1229.9687336 853.187902573 1229.9687336 968.371252969 1114.78538321 c 0,17,18
 1059.99957674 1023.15705943 1059.99957674 1023.15705943 1059.99957674 869.9765625 c 0,19,20
 1059.99957674 688.191591766 1059.99957674 688.191591766 932.000414217 593.985502506 c 1,0,1
891.996517007 318.00390625 m 0,21,22
 891.996517007 413.990920958 891.996517007 413.990920958 833.623634883 457.771709614 c 0,23,24
 763.995766693 509.992610757 763.995766693 509.992610757 608.24609375 509.992610757 c 2,25,-1
 323.991764243 510.004522867 l 1,26,-1
 323.991764243 125.994124528 l 1,27,-1
 607.996652565 126.00348297 l 2,28,29
 783.393414833 126.007859464 783.393414833 126.007859464 848.472700309 191.08714494 c 0,30,31
 891.996517007 234.610961638 891.996517007 234.610961638 891.996517007 318.00390625 c 0,21,22
892.016048257 869.9765625 m 0,32,33
 892.016048257 965.963708451 892.016048257 965.963708451 833.638949237 1009.7485051 c 0,34,35
 763.987594146 1061.98937474 763.987594146 1061.98937474 608.006404812 1061.9945639 c 2,36,-1
 323.991764243 1062.00477316 l 1,37,-1
 323.991764243 677.988804845 l 1,38,-1
 608.043720222 677.98199809 l 2,39,40
 783.416603907 677.98199809 783.416603907 677.98199809 848.49272482 743.058119003 c 0,41,42
 892.016048257 786.58144244 892.016048257 786.58144244 892.016048257 869.9765625 c 0,32,33
EndSplineSet
Validated: 33
EndChar

StartChar: C
Encoding: 67 67 35
Width: 1229
GlyphClass: 2
Flags: W
AnchorPoint: "Anchor-8" 615 -120 basechar 0
LayerCount: 2
Fore
SplineSet
1044.30432737 1010.88973612 m 0,0,1
 1060.09925363 988.83901152 1060.09925363 988.83901152 1060.09925363 963.046947792 c 0,2,3
 1060.09925363 927.236875576 1060.09925363 927.236875576 1035.79208805 902.929709998 c 0,4,5
 1030.77831442 897.915936368 1030.77831442 897.915936368 1024.87777194 893.689083419 c 0,6,7
 1002.82629084 877.891939639 1002.82629084 877.891939639 977.031985556 877.891939639 c 0,8,9
 941.221760184 877.891939639 941.221760184 877.891939639 916.915112914 902.198586909 c 0,10,11
 911.899991576 907.213708247 911.899991576 907.213708247 907.672565519 913.115662019 c 0,12,13
 860.839760706 978.495371744 860.839760706 978.495371744 776.726826521 1020.25980836 c 128,-1,14
 692.613892337 1062.02424498 692.613892337 1062.02424498 611.54730069 1062.02424498 c 0,15,16
 490.632746864 1062.02424498 490.632746864 1062.02424498 407.312255553 978.703732628 c 128,-1,17
 323.991764243 895.383220274 323.991764243 895.383220274 323.991764243 778 c 2,18,-1
 323.991764243 410 l 2,19,20
 323.991764243 292.284747737 323.991764243 292.284747737 406.947699978 209.662277449 c 0,21,22
 490.971983962 125.975753449 490.971983962 125.975753449 611.547471346 125.975753449 c 0,23,24
 692.613889177 125.975753449 692.613889177 125.975753449 776.193738139 167.475498266 c 0,25,26
 860.839760741 209.504628272 860.839760741 209.504628272 907.67184958 274.883338481 c 0,27,28
 927.949868851 303.193693466 927.949868851 303.193693466 962.248020619 308.862019891 c 0,29,30
 969.787736124 310.108080289 969.787736124 310.108080289 977.032189454 310.108080289 c 0,31,32
 1002.82626301 310.108080289 1002.82626301 310.108080289 1024.87719334 294.311331064 c 0,33,34
 1053.18446778 274.033418175 1053.18446778 274.033418175 1058.85298078 239.73810529 c 0,35,36
 1060.09923978 232.198060407 1060.09923978 232.198060407 1060.09923978 224.953193882 c 0,37,38
 1060.09923978 199.160969152 1060.09923978 199.160969152 1044.30403941 177.109861881 c 0,39,40
 971.398178015 75.3311703452 971.398178015 75.3311703452 853.253434823 16.6612364166 c 128,-1,41
 735.108691631 -42.008697512 735.108691631 -42.008697512 611.893324696 -42.008697512 c 0,42,43
 486.923506037 -42.008697512 486.923506037 -42.008697512 381.175691763 19.536199001 c 0,44,45
 277.337316054 79.9698082532 277.337316054 79.9698082532 216.672775906 183.783845931 c 128,-1,46
 156.008235757 287.597883609 156.008235757 287.597883609 156.008235757 410 c 2,47,-1
 156.008235757 778 l 2,48,49
 156.008235757 900.402116391 156.008235757 900.402116391 216.737252491 1004.32649158 c 0,50,51
 277.337316054 1108.03019175 277.337316054 1108.03019175 381.175691763 1168.463801 c 0,52,53
 486.923505837 1230.0086974 486.923505837 1230.0086974 611.016098843 1230.0086974 c 128,-1,54
 735.108691849 1230.0086974 735.108691849 1230.0086974 853.25343493 1171.33876353 c 128,-1,55
 971.39817801 1112.66882966 971.39817801 1112.66882966 1044.30432737 1010.88973612 c 0,0,1
EndSplineSet
Validated: 1
EndChar

StartChar: D
Encoding: 68 68 36
Width: 1229
GlyphClass: 2
Flags: W
AnchorPoint: "Anchor-8" 600 -120 basechar 0
LayerCount: 2
Fore
SplineSet
240 1229.99176424 m 2,0,-1
 608 1229.99176424 l 2,1,2
 794.405205377 1229.99176424 794.405205377 1229.99176424 927.19848481 1097.19848481 c 128,-1,3
 1059.99176424 964.405205377 1059.99176424 964.405205377 1059.99176424 778 c 2,4,-1
 1059.99176424 410 l 2,5,6
 1059.99176424 223.594794623 1059.99176424 223.594794623 927.19848481 90.8015151902 c 128,-1,7
 794.405205377 -41.9917642427 794.405205377 -41.9917642427 608 -41.9917642427 c 2,8,-1
 240 -41.9917642427 l 2,9,10
 205.594794623 -41.9917642427 205.594794623 -41.9917642427 180.80151519 -17.1984848098 c 128,-1,11
 156.008235757 7.59479462303 156.008235757 7.59479462303 156.008235757 42 c 2,12,-1
 156.008235757 1146 l 2,13,14
 156.008235757 1180.40520538 156.008235757 1180.40520538 180.80151519 1205.19848481 c 128,-1,15
 205.594794623 1229.99176424 205.594794623 1229.99176424 240 1229.99176424 c 2,0,-1
892.008235757 410 m 2,16,-1
 892.008235757 778 l 2,17,18
 892.008235757 895.594794623 892.008235757 895.594794623 808.80151519 978.80151519 c 128,-1,19
 725.594794623 1062.00823576 725.594794623 1062.00823576 608 1062.00823576 c 2,20,-1
 323.991764243 1062.00823576 l 1,21,-1
 323.991764243 125.991764243 l 1,22,-1
 608 125.991764243 l 2,23,24
 725.594794623 125.991764243 725.594794623 125.991764243 808.80151519 209.19848481 c 128,-1,25
 892.008235757 292.405205377 892.008235757 292.405205377 892.008235757 410 c 2,16,-1
EndSplineSet
Validated: 1
EndChar

StartChar: E
Encoding: 69 69 37
Width: 1229
GlyphClass: 2
Flags: W
AnchorPoint: "Anchor-8" 615 -120 basechar 0
LayerCount: 2
Fore
SplineSet
240 1229.99176424 m 2,0,-1
 976 1229.99176424 l 2,1,2
 1010.40520538 1229.99176424 1010.40520538 1229.99176424 1035.19848481 1205.19848481 c 128,-1,3
 1059.99176424 1180.40520538 1059.99176424 1180.40520538 1059.99176424 1146 c 128,-1,4
 1059.99176424 1111.59479462 1059.99176424 1111.59479462 1035.19848481 1086.80151519 c 128,-1,5
 1010.40520538 1062.00823576 1010.40520538 1062.00823576 976 1062.00823576 c 2,6,-1
 323.991764243 1062.00823576 l 1,7,-1
 323.991764243 677.991764243 l 1,8,-1
 792 677.991764243 l 2,9,10
 826.405205377 677.991764243 826.405205377 677.991764243 851.19848481 653.19848481 c 128,-1,11
 875.991764243 628.405205377 875.991764243 628.405205377 875.991764243 594 c 128,-1,12
 875.991764243 559.594794623 875.991764243 559.594794623 851.19848481 534.80151519 c 128,-1,13
 826.405205377 510.008235757 826.405205377 510.008235757 792 510.008235757 c 2,14,-1
 323.991764243 510.008235757 l 1,15,-1
 323.991764243 125.991764243 l 1,16,-1
 976 125.991764243 l 2,17,18
 1010.40520538 125.991764243 1010.40520538 125.991764243 1035.19848481 101.19848481 c 128,-1,19
 1059.99176424 76.405205377 1059.99176424 76.405205377 1059.99176424 42 c 128,-1,20
 1059.99176424 7.59479462303 1059.99176424 7.59479462303 1035.19848481 -17.1984848098 c 128,-1,21
 1010.40520538 -41.9917642427 1010.40520538 -41.9917642427 976 -41.9917642427 c 2,22,-1
 240 -41.9917642427 l 2,23,24
 205.594794623 -41.9917642427 205.594794623 -41.9917642427 180.80151519 -17.1984848098 c 128,-1,25
 156.008235757 7.59479462303 156.008235757 7.59479462303 156.008235757 42 c 2,26,-1
 156.008235757 1146 l 2,27,28
 156.008235757 1180.40520538 156.008235757 1180.40520538 180.80151519 1205.19848481 c 128,-1,29
 205.594794623 1229.99176424 205.594794623 1229.99176424 240 1229.99176424 c 2,0,-1
EndSplineSet
Validated: 1
EndChar

StartChar: F
Encoding: 70 70 38
Width: 1229
GlyphClass: 2
Flags: W
AnchorPoint: "Anchor-8" 480 -120 basechar 0
LayerCount: 2
Fore
SplineSet
240 1229.99176424 m 2,0,-1
 976 1229.99176424 l 2,1,2
 1010.40520538 1229.99176424 1010.40520538 1229.99176424 1035.19848481 1205.19848481 c 128,-1,3
 1059.99176424 1180.40520538 1059.99176424 1180.40520538 1059.99176424 1146 c 128,-1,4
 1059.99176424 1111.59479462 1059.99176424 1111.59479462 1035.19848481 1086.80151519 c 128,-1,5
 1010.40520538 1062.00823576 1010.40520538 1062.00823576 976 1062.00823576 c 2,6,-1
 323.991764243 1062.00823576 l 1,7,-1
 323.991764243 677.991764243 l 1,8,-1
 792 677.991764243 l 2,9,10
 826.405205377 677.991764243 826.405205377 677.991764243 851.19848481 653.19848481 c 128,-1,11
 875.991764243 628.405205377 875.991764243 628.405205377 875.991764243 594 c 128,-1,12
 875.991764243 559.594794623 875.991764243 559.594794623 851.19848481 534.80151519 c 128,-1,13
 826.405205377 510.008235757 826.405205377 510.008235757 792 510.008235757 c 2,14,-1
 323.991764243 510.008235757 l 1,15,-1
 323.991764243 42 l 2,16,17
 323.991764243 7.59479462303 323.991764243 7.59479462303 299.19848481 -17.1984848098 c 128,-1,18
 274.405205377 -41.9917642427 274.405205377 -41.9917642427 240 -41.9917642427 c 128,-1,19
 205.594794623 -41.9917642427 205.594794623 -41.9917642427 180.80151519 -17.1984848098 c 128,-1,20
 156.008235757 7.59479462303 156.008235757 7.59479462303 156.008235757 42 c 2,21,-1
 156.008235757 1146 l 2,22,23
 156.008235757 1180.40520538 156.008235757 1180.40520538 180.80151519 1205.19848481 c 128,-1,24
 205.594794623 1229.99176424 205.594794623 1229.99176424 240 1229.99176424 c 2,0,-1
EndSplineSet
Validated: 1
EndChar

StartChar: G
Encoding: 71 71 39
Width: 1229
GlyphClass: 2
Flags: W
AnchorPoint: "Anchor-8" 615 -120 basechar 0
LayerCount: 2
Fore
SplineSet
1044.30432737 1010.88973612 m 0,0,1
 1060.09925363 988.83901152 1060.09925363 988.83901152 1060.09925363 963.046947792 c 0,2,3
 1060.09925363 927.236875576 1060.09925363 927.236875576 1035.79208805 902.929709998 c 0,4,5
 1030.77831442 897.915936368 1030.77831442 897.915936368 1024.87777194 893.689083419 c 0,6,7
 1002.82629084 877.891939639 1002.82629084 877.891939639 977.031985556 877.891939639 c 0,8,9
 941.221760184 877.891939639 941.221760184 877.891939639 916.915112914 902.198586909 c 0,10,11
 911.899991576 907.213708247 911.899991576 907.213708247 907.672565519 913.11566202 c 0,12,13
 860.839866052 978.495224681 860.839866052 978.495224681 776.726610199 1020.25973484 c 128,-1,14
 692.613354345 1062.02424499 692.613354345 1062.02424499 611.547280956 1062.02424499 c 0,15,16
 490.632746874 1062.02424499 490.632746874 1062.02424499 407.312255558 978.703732633 c 128,-1,17
 323.991764243 895.383220274 323.991764243 895.383220274 323.991764243 778 c 2,18,-1
 323.991764243 410 l 2,19,20
 323.991764243 292.405205377 323.991764243 292.405205377 407.19848481 209.19848481 c 128,-1,21
 490.405205377 125.991764243 490.405205377 125.991764243 608 125.991764243 c 128,-1,22
 725.594794623 125.991764243 725.594794623 125.991764243 808.80151519 209.19848481 c 128,-1,23
 892.008235757 292.405205377 892.008235757 292.405205377 892.008235757 410 c 2,24,-1
 892.008235757 510.008235757 l 1,25,-1
 608 510.008235757 l 2,26,27
 573.594794623 510.008235757 573.594794623 510.008235757 548.80151519 534.80151519 c 128,-1,28
 524.008235757 559.594794623 524.008235757 559.594794623 524.008235757 594 c 128,-1,29
 524.008235757 628.405205377 524.008235757 628.405205377 548.80151519 653.19848481 c 128,-1,30
 573.594794623 677.991764243 573.594794623 677.991764243 608 677.991764243 c 2,31,-1
 976 677.991764243 l 2,32,33
 1010.40520538 677.991764243 1010.40520538 677.991764243 1035.19848481 653.19848481 c 128,-1,34
 1059.99176424 628.405205377 1059.99176424 628.405205377 1059.99176424 594 c 2,35,-1
 1059.99176424 42 l 2,36,37
 1059.99176424 7.59479462303 1059.99176424 7.59479462303 1035.19848481 -17.1984848098 c 128,-1,38
 1010.40520538 -41.9917642427 1010.40520538 -41.9917642427 976 -41.9917642427 c 128,-1,39
 941.594794623 -41.9917642427 941.594794623 -41.9917642427 916.80151519 -17.1984848098 c 128,-1,40
 892.008235757 7.59479462303 892.008235757 7.59479462303 892.008235757 42 c 2,41,-1
 892.008235757 58.6876229976 l 1,42,43
 854.510388518 28.3596126782 854.510388518 28.3596126782 810.236341065 5.89104820652 c 0,44,45
 715.883810745 -41.9917642427 715.883810745 -41.9917642427 608 -41.9917642427 c 0,46,47
 421.594794623 -41.9917642427 421.594794623 -41.9917642427 288.80151519 90.8015151902 c 128,-1,48
 156.008235757 223.594794623 156.008235757 223.594794623 156.008235757 410 c 2,49,-1
 156.008235757 778 l 2,50,51
 156.008235757 900.401678806 156.008235757 900.401678806 216.737229049 1004.32605168 c 0,52,53
 277.337256351 1108.02972751 277.337256351 1108.02972751 381.175659826 1168.46355387 c 0,54,55
 486.923546954 1230.00869743 486.923546954 1230.00869743 611.015835354 1230.00869743 c 128,-1,56
 735.108123753 1230.00869743 735.108123753 1230.00869743 853.253194414 1171.33870277 c 128,-1,57
 971.398265076 1112.66870811 971.398265076 1112.66870811 1044.30432737 1010.88973612 c 0,0,1
EndSplineSet
Validated: 1
EndChar

StartChar: H
Encoding: 72 72 40
Width: 1229
GlyphClass: 2
Flags: W
AnchorPoint: "Anchor-8" 615 -120 basechar 0
LayerCount: 2
Fore
SplineSet
240 1229.99176424 m 128,-1,1
 274.405205377 1229.99176424 274.405205377 1229.99176424 299.19848481 1205.19848481 c 128,-1,2
 323.991764243 1180.40520538 323.991764243 1180.40520538 323.991764243 1146 c 2,3,-1
 323.991764243 677.991764243 l 1,4,-1
 892.008235757 677.991764243 l 1,5,-1
 892.008235757 1146 l 2,6,7
 892.008235757 1180.40520538 892.008235757 1180.40520538 916.80151519 1205.19848481 c 128,-1,8
 941.594794623 1229.99176424 941.594794623 1229.99176424 976 1229.99176424 c 128,-1,9
 1010.40520538 1229.99176424 1010.40520538 1229.99176424 1035.19848481 1205.19848481 c 128,-1,10
 1059.99176424 1180.40520538 1059.99176424 1180.40520538 1059.99176424 1146 c 2,11,-1
 1059.99176424 42 l 2,12,13
 1059.99176424 7.59479462303 1059.99176424 7.59479462303 1035.19848481 -17.1984848098 c 128,-1,14
 1010.40520538 -41.9917642427 1010.40520538 -41.9917642427 976 -41.9917642427 c 128,-1,15
 941.594794623 -41.9917642427 941.594794623 -41.9917642427 916.80151519 -17.1984848098 c 128,-1,16
 892.008235757 7.59479462303 892.008235757 7.59479462303 892.008235757 42 c 2,17,-1
 892.008235757 510.008235757 l 1,18,-1
 323.991764243 510.008235757 l 1,19,-1
 323.991764243 42 l 2,20,21
 323.991764243 7.59479462303 323.991764243 7.59479462303 299.19848481 -17.1984848098 c 128,-1,22
 274.405205377 -41.9917642427 274.405205377 -41.9917642427 240 -41.9917642427 c 128,-1,23
 205.594794623 -41.9917642427 205.594794623 -41.9917642427 180.80151519 -17.1984848098 c 128,-1,24
 156.008235757 7.59479462303 156.008235757 7.59479462303 156.008235757 42 c 2,25,-1
 156.008235757 1146 l 2,26,27
 156.008235757 1180.40520538 156.008235757 1180.40520538 180.80151519 1205.19848481 c 128,-1,0
 205.594794623 1229.99176424 205.594794623 1229.99176424 240 1229.99176424 c 128,-1,1
EndSplineSet
Validated: 1
EndChar

StartChar: I
Encoding: 73 73 41
Width: 1229
GlyphClass: 2
Flags: W
AnchorPoint: "Anchor-8" 615 -120 basechar 0
LayerCount: 2
Fore
SplineSet
240 1229.99176424 m 2,0,-1
 976 1229.99176424 l 2,1,2
 1010.40520538 1229.99176424 1010.40520538 1229.99176424 1035.19848481 1205.19848481 c 128,-1,3
 1059.99176424 1180.40520538 1059.99176424 1180.40520538 1059.99176424 1146 c 128,-1,4
 1059.99176424 1111.59479462 1059.99176424 1111.59479462 1035.19848481 1086.80151519 c 128,-1,5
 1010.40520538 1062.00823576 1010.40520538 1062.00823576 976 1062.00823576 c 2,6,-1
 691.991764243 1062.00823576 l 1,7,-1
 691.991764243 125.991764243 l 1,8,-1
 976 125.991764243 l 2,9,10
 1010.40520538 125.991764243 1010.40520538 125.991764243 1035.19848481 101.19848481 c 128,-1,11
 1059.99176424 76.405205377 1059.99176424 76.405205377 1059.99176424 42 c 128,-1,12
 1059.99176424 7.59479462303 1059.99176424 7.59479462303 1035.19848481 -17.1984848098 c 128,-1,13
 1010.40520538 -41.9917642427 1010.40520538 -41.9917642427 976 -41.9917642427 c 2,14,-1
 240 -41.9917642427 l 2,15,16
 205.594794623 -41.9917642427 205.594794623 -41.9917642427 180.80151519 -17.1984848098 c 128,-1,17
 156.008235757 7.59479462303 156.008235757 7.59479462303 156.008235757 42 c 128,-1,18
 156.008235757 76.405205377 156.008235757 76.405205377 180.80151519 101.19848481 c 128,-1,19
 205.594794623 125.991764243 205.594794623 125.991764243 240 125.991764243 c 2,20,-1
 524.008235757 125.991764243 l 1,21,-1
 524.008235757 1062.00823576 l 1,22,-1
 240 1062.00823576 l 2,23,24
 205.594794623 1062.00823576 205.594794623 1062.00823576 180.80151519 1086.80151519 c 128,-1,25
 156.008235757 1111.59479462 156.008235757 1111.59479462 156.008235757 1146 c 128,-1,26
 156.008235757 1180.40520538 156.008235757 1180.40520538 180.80151519 1205.19848481 c 128,-1,27
 205.594794623 1229.99176424 205.594794623 1229.99176424 240 1229.99176424 c 2,0,-1
EndSplineSet
Validated: 1
EndChar

StartChar: J
Encoding: 74 74 42
Width: 1229
GlyphClass: 2
Flags: W
AnchorPoint: "Anchor-8" 615 -120 basechar 0
LayerCount: 2
Fore
SplineSet
608 1229.99176424 m 2,0,-1
 976 1229.99176424 l 2,1,2
 1010.40520538 1229.99176424 1010.40520538 1229.99176424 1035.19848481 1205.19848481 c 128,-1,3
 1059.99176424 1180.40520538 1059.99176424 1180.40520538 1059.99176424 1146 c 2,4,-1
 1059.99176424 410 l 2,5,6
 1059.99176424 287.598397653 1059.99176424 287.598397653 999.263928687 183.673952071 c 0,7,8
 938.665062832 79.9702142523 938.665062832 79.9702142523 834.829852111 19.5358162424 c 0,9,10
 729.080446842 -42.0126854927 729.080446842 -42.0126854927 604.992610257 -42.0126854927 c 128,-1,11
 480.904773673 -42.0126854927 480.904773673 -42.0126854927 364.052621295 16.0145401433 c 0,12,13
 244.620518713 75.3229347585 244.620518713 75.3229347585 171.715203882 177.10245138 c 0,14,15
 155.920277623 199.153175981 155.920277623 199.153175981 155.920277623 224.945239712 c 0,16,17
 155.920277623 260.755311927 155.920277623 260.755311927 180.2274432 285.062477504 c 0,18,19
 185.241216828 290.076251132 185.241216828 290.076251132 191.141759314 294.303104085 c 0,20,21
 213.193240411 310.100247861 213.193240411 310.100247861 238.987545694 310.100247861 c 0,22,23
 274.797771066 310.100247861 274.797771066 310.100247861 299.104418336 285.793600591 c 0,24,25
 304.119539697 280.77847923 304.119539697 280.77847923 308.347079458 274.876366713 c 0,26,27
 355.179116914 209.497083452 355.179116914 209.497083452 439.288826138 167.734427709 c 128,-1,28
 523.398535363 125.971771966 523.398535363 125.971771966 604.452203938 125.971771966 c 0,29,30
 725.36362658 125.971771966 725.36362658 125.971771966 808.685931169 209.294097404 c 128,-1,31
 892.008235757 292.616422842 892.008235757 292.616422842 892.008235757 410 c 2,32,-1
 892.008235757 1062.00823576 l 1,33,-1
 608 1062.00823576 l 2,34,35
 573.594794623 1062.00823576 573.594794623 1062.00823576 548.80151519 1086.80151519 c 128,-1,36
 524.008235757 1111.59479462 524.008235757 1111.59479462 524.008235757 1146 c 128,-1,37
 524.008235757 1180.40520538 524.008235757 1180.40520538 548.80151519 1205.19848481 c 128,-1,38
 573.594794623 1229.99176424 573.594794623 1229.99176424 608 1229.99176424 c 2,0,-1
EndSplineSet
Validated: 1
EndChar

StartChar: K
Encoding: 75 75 43
Width: 1229
GlyphClass: 2
Flags: W
AnchorPoint: "Anchor-8" 615 -120 basechar 0
LayerCount: 2
Fore
SplineSet
869.456744435 594 m 1,0,1
 1059.99176424 445.945062974 1059.99176424 445.945062974 1059.99176424 42 c 0,2,3
 1059.99176424 7.59479462303 1059.99176424 7.59479462303 1035.19848481 -17.1984848098 c 128,-1,4
 1010.40520538 -41.9917642427 1010.40520538 -41.9917642427 976 -41.9917642427 c 128,-1,5
 941.594794623 -41.9917642427 941.594794623 -41.9917642427 916.80151519 -17.1984848098 c 128,-1,6
 892.008235757 7.59479462303 892.008235757 7.59479462303 892.008235757 42 c 0,7,8
 892.008235757 338.746993372 892.008235757 338.746993372 782.830932628 447.924296502 c 0,9,10
 759.431050589 471.32417854 759.431050589 471.32417854 731.226892035 485.377848918 c 0,11,12
 681.796436006 510.008235757 681.796436006 510.008235757 608 510.008235757 c 2,13,-1
 323.991764243 510.008235757 l 1,14,-1
 323.991764243 42 l 2,15,16
 323.991764243 7.59479462303 323.991764243 7.59479462303 299.19848481 -17.1984848098 c 128,-1,17
 274.405205377 -41.9917642427 274.405205377 -41.9917642427 240 -41.9917642427 c 128,-1,18
 205.594794623 -41.9917642427 205.594794623 -41.9917642427 180.80151519 -17.1984848098 c 128,-1,19
 156.008235757 7.59479462303 156.008235757 7.59479462303 156.008235757 42 c 2,20,-1
 156.008235757 1146 l 2,21,22
 156.008235757 1180.40520538 156.008235757 1180.40520538 180.80151519 1205.19848481 c 128,-1,23
 205.594794623 1229.99176424 205.594794623 1229.99176424 240 1229.99176424 c 128,-1,24
 274.405205377 1229.99176424 274.405205377 1229.99176424 299.19848481 1205.19848481 c 128,-1,25
 323.991764243 1180.40520538 323.991764243 1180.40520538 323.991764243 1146 c 2,26,-1
 323.991764243 677.991764243 l 1,27,-1
 608 677.991764243 l 2,28,29
 681.796436006 677.991764243 681.796436006 677.991764243 731.226892035 702.622151082 c 0,30,31
 779.482176698 726.666969272 779.482176698 726.666969272 814.085517724 778.571668872 c 0,32,33
 892.008235757 895.455043474 892.008235757 895.455043474 892.008235757 1146 c 0,34,35
 892.008235757 1180.40520538 892.008235757 1180.40520538 916.80151519 1205.19848481 c 128,-1,36
 941.594794623 1229.99176424 941.594794623 1229.99176424 976 1229.99176424 c 128,-1,37
 1010.40520538 1229.99176424 1010.40520538 1229.99176424 1035.19848481 1205.19848481 c 128,-1,38
 1059.99176424 1180.40520538 1059.99176424 1180.40520538 1059.99176424 1146 c 0,39,40
 1059.99176424 742.054937026 1059.99176424 742.054937026 869.456744435 594 c 1,0,1
EndSplineSet
Validated: 1
EndChar

StartChar: L
Encoding: 76 76 44
Width: 1229
GlyphClass: 2
Flags: W
AnchorPoint: "Anchor-8" 615 -120 basechar 0
LayerCount: 2
Fore
SplineSet
240 1229.99176424 m 128,-1,1
 274.405205377 1229.99176424 274.405205377 1229.99176424 299.19848481 1205.19848481 c 128,-1,2
 323.991764243 1180.40520538 323.991764243 1180.40520538 323.991764243 1146 c 2,3,-1
 323.991764243 125.991764243 l 1,4,-1
 976 125.991764243 l 2,5,6
 1010.40520538 125.991764243 1010.40520538 125.991764243 1035.19848481 101.19848481 c 128,-1,7
 1059.99176424 76.405205377 1059.99176424 76.405205377 1059.99176424 42 c 128,-1,8
 1059.99176424 7.59479462303 1059.99176424 7.59479462303 1035.19848481 -17.1984848098 c 128,-1,9
 1010.40520538 -41.9917642427 1010.40520538 -41.9917642427 976 -41.9917642427 c 2,10,-1
 240 -41.9917642427 l 2,11,12
 205.594794623 -41.9917642427 205.594794623 -41.9917642427 180.80151519 -17.1984848098 c 128,-1,13
 156.008235757 7.59479462303 156.008235757 7.59479462303 156.008235757 42 c 2,14,-1
 156.008235757 1146 l 2,15,16
 156.008235757 1180.40520538 156.008235757 1180.40520538 180.80151519 1205.19848481 c 128,-1,0
 205.594794623 1229.99176424 205.594794623 1229.99176424 240 1229.99176424 c 128,-1,1
EndSplineSet
Validated: 1
EndChar

StartChar: M
Encoding: 77 77 45
Width: 1229
GlyphClass: 2
Flags: W
AnchorPoint: "Anchor-8" 615 -120 basechar 0
LayerCount: 2
Fore
SplineSet
906.085792409 1192.57208089 m 2,0,1
 921.50344799 1215.69783086 921.50344799 1215.69783086 945.755571503 1224.38994464 c 0,2,3
 961.677865936 1230.09659523 961.677865936 1230.09659523 974.882231542 1230.09659523 c 0,4,5
 1010.7256419 1230.09659523 1010.7256419 1230.09659523 1035.2293636 1205.59287353 c 0,6,7
 1059.99176424 1180.83047288 1059.99176424 1180.83047288 1059.99176424 1146 c 2,8,-1
 1059.99176424 42 l 2,9,10
 1059.99176424 7.59479462303 1059.99176424 7.59479462303 1035.19848481 -17.1984848098 c 128,-1,11
 1010.40520538 -41.9917642427 1010.40520538 -41.9917642427 976 -41.9917642427 c 128,-1,12
 941.594794623 -41.9917642427 941.594794623 -41.9917642427 916.80151519 -17.1984848098 c 128,-1,13
 892.008235757 7.59479462303 892.008235757 7.59479462303 892.008235757 42 c 2,14,-1
 892.008235757 868.568961349 l 1,15,-1
 677.914755775 547.428741378 l 2,16,17
 672.902039053 539.909519044 672.902039053 539.909519044 666.758737075 533.766217066 c 0,18,19
 643.003685454 510.011165445 643.003685454 510.011165445 608 510.011165445 c 128,-1,20
 572.996314546 510.011165445 572.996314546 510.011165445 549.241262925 533.766217066 c 0,21,22
 543.097960953 539.909519038 543.097960953 539.909519038 538.0854535 547.428427463 c 2,23,-1
 323.991764243 868.568961349 l 1,24,-1
 323.991764243 42 l 2,25,26
 323.991764243 7.59479462303 323.991764243 7.59479462303 299.19848481 -17.1984848098 c 128,-1,27
 274.405205377 -41.9917642427 274.405205377 -41.9917642427 240 -41.9917642427 c 128,-1,28
 205.594794623 -41.9917642427 205.594794623 -41.9917642427 180.80151519 -17.1984848098 c 128,-1,29
 156.008235757 7.59479462303 156.008235757 7.59479462303 156.008235757 42 c 2,30,-1
 156.008235757 1146 l 2,31,32
 156.008235757 1184.08612729 156.008235757 1184.08612729 184.670266683 1209.19520262 c 0,33,34
 208.469390461 1230.0441785 208.469390461 1230.0441785 239.269690444 1230.0441785 c 0,35,36
 274.880733104 1230.0441785 274.880733104 1230.0441785 299.005359447 1205.91955216 c 0,37,38
 305.035541399 1199.88937021 305.035541399 1199.88937021 309.9145465 1192.57157254 c 2,39,-1
 559.705331722 817.885394688 l 1,40,-1
 607.999999998 745.443392283 l 1,41,-1
 906.085792409 1192.57208089 l 2,0,1
EndSplineSet
Validated: 1
EndChar

StartChar: N
Encoding: 78 78 46
Width: 1229
GlyphClass: 2
Flags: W
AnchorPoint: "Anchor-8" 615 -120 basechar 0
LayerCount: 2
Fore
SplineSet
976 1229.99176424 m 128,-1,1
 1010.40520538 1229.99176424 1010.40520538 1229.99176424 1035.19848481 1205.19848481 c 128,-1,2
 1059.99176424 1180.40520538 1059.99176424 1180.40520538 1059.99176424 1146 c 2,3,-1
 1059.99176424 41.9843679462 l 2,4,5
 1059.97889841 7.15839160047 1059.97889841 7.15839160047 1035.22501666 -17.5954901525 c 0,6,7
 1020.55477947 -32.2657273353 1020.55477947 -32.2657273353 1000.38836616 -38.3718081483 c 0,8,9
 988.086597144 -42.0965952261 988.086597144 -42.0965952261 974.882231542 -42.0965952261 c 128,-1,10
 961.677865939 -42.0965952261 961.677865939 -42.0965952261 945.755571503 -36.3899446376 c 0,11,12
 921.503447995 -27.6978308571 921.503447995 -27.6978308571 906.0854535 -4.57157253723 c 2,13,-1
 323.991764243 868.568961349 l 1,14,-1
 323.991764243 42 l 2,15,16
 323.991764243 7.59479462303 323.991764243 7.59479462303 299.19848481 -17.1984848098 c 128,-1,17
 274.405205377 -41.9917642427 274.405205377 -41.9917642427 240 -41.9917642427 c 128,-1,18
 205.594794623 -41.9917642427 205.594794623 -41.9917642427 180.80151519 -17.1984848098 c 128,-1,19
 156.008235757 7.59479462303 156.008235757 7.59479462303 156.008235757 42 c 2,20,-1
 156.008235757 1146 l 2,21,22
 156.008235757 1180.83047288 156.008235757 1180.83047288 180.770636403 1205.59287353 c 0,23,24
 195.442738782 1220.26497591 195.442738782 1220.26497591 215.611633847 1226.37180815 c 0,25,26
 227.91340286 1230.09659523 227.91340286 1230.09659523 241.117768459 1230.09659523 c 128,-1,27
 254.322134058 1230.09659523 254.322134058 1230.09659523 270.244428494 1224.38994464 c 0,28,29
 294.496552003 1215.69783086 294.496552003 1215.69783086 309.9145465 1192.57157254 c 2,30,-1
 892.008235757 319.43103865 l 1,31,-1
 892.008235757 1146 l 2,32,33
 892.008235757 1180.40520538 892.008235757 1180.40520538 916.80151519 1205.19848481 c 128,-1,0
 941.594794623 1229.99176424 941.594794623 1229.99176424 976 1229.99176424 c 128,-1,1
EndSplineSet
Validated: 1
EndChar

StartChar: O
Encoding: 79 79 47
Width: 1229
GlyphClass: 2
Flags: W
AnchorPoint: "Anchor-8" 615 -120 basechar 0
LayerCount: 2
Fore
SplineSet
608 1062.00823576 m 128,-1,1
 490.405205377 1062.00823576 490.405205377 1062.00823576 407.19848481 978.80151519 c 128,-1,2
 323.991764243 895.594794623 323.991764243 895.594794623 323.991764243 778 c 2,3,-1
 323.991764243 410 l 2,4,5
 323.991764243 292.405205377 323.991764243 292.405205377 407.19848481 209.19848481 c 128,-1,6
 490.405205377 125.991764243 490.405205377 125.991764243 608 125.991764243 c 128,-1,7
 725.594794623 125.991764243 725.594794623 125.991764243 808.80151519 209.19848481 c 128,-1,8
 892.008235757 292.405205377 892.008235757 292.405205377 892.008235757 410 c 2,9,-1
 892.008235757 778 l 2,10,11
 892.008235757 895.594794623 892.008235757 895.594794623 808.80151519 978.80151519 c 128,-1,0
 725.594794623 1062.00823576 725.594794623 1062.00823576 608 1062.00823576 c 128,-1,1
608 1229.99176424 m 128,-1,13
 794.405205377 1229.99176424 794.405205377 1229.99176424 927.19848481 1097.19848481 c 128,-1,14
 1059.99176424 964.405205377 1059.99176424 964.405205377 1059.99176424 778 c 2,15,-1
 1059.99176424 410 l 2,16,17
 1059.99176424 223.594794623 1059.99176424 223.594794623 927.19848481 90.8015151902 c 128,-1,18
 794.405205377 -41.9917642427 794.405205377 -41.9917642427 608 -41.9917642427 c 128,-1,19
 421.594794623 -41.9917642427 421.594794623 -41.9917642427 288.80151519 90.8015151902 c 128,-1,20
 156.008235757 223.594794623 156.008235757 223.594794623 156.008235757 410 c 2,21,-1
 156.008235757 778 l 2,22,23
 156.008235757 964.405205377 156.008235757 964.405205377 288.80151519 1097.19848481 c 128,-1,12
 421.594794623 1229.99176424 421.594794623 1229.99176424 608 1229.99176424 c 128,-1,13
EndSplineSet
Validated: 1
EndChar

StartChar: P
Encoding: 80 80 48
Width: 1229
GlyphClass: 2
Flags: W
AnchorPoint: "Anchor-8" 480 -120 basechar 0
LayerCount: 2
Fore
SplineSet
1059.99957674 869.9765625 m 0,0,1
 1059.99957674 689.965303902 1059.99957674 689.965303902 934.380583771 595.748506425 c 0,2,3
 820.041943885 509.990653986 820.041943885 509.990653986 608.01555016 509.990657681 c 2,4,-1
 323.991764243 510.00427005 l 1,5,-1
 323.991764243 42 l 2,6,7
 323.991764243 7.59479462303 323.991764243 7.59479462303 299.19848481 -17.1984848098 c 128,-1,8
 274.405205377 -41.9917642427 274.405205377 -41.9917642427 240 -41.9917642427 c 128,-1,9
 205.594794623 -41.9917642427 205.594794623 -41.9917642427 180.80151519 -17.1984848098 c 128,-1,10
 156.008235757 7.59479462303 156.008235757 7.59479462303 156.008235757 42 c 2,11,-1
 156.008235757 1146 l 2,12,13
 156.008235757 1180.80357151 156.008235757 1180.80357151 180.606301353 1205.399267 c 128,-1,14
 205.204098957 1229.99176411 205.204098957 1229.99176411 240.007274715 1229.99176411 c 2,15,-1
 608.026668025 1229.96246724 l 2,16,17
 853.204525364 1229.94374866 853.204525364 1229.94374866 968.376060254 1114.77221377 c 0,18,19
 1059.99957674 1023.14869728 1059.99957674 1023.14869728 1059.99957674 869.9765625 c 0,0,1
892.016048257 869.9765625 m 0,20,21
 892.016048257 965.95711749 892.016048257 965.95711749 833.642248659 1009.73577664 c 0,22,23
 763.997577952 1061.96726269 763.997577952 1061.96726269 608.012457595 1061.978939 c 2,24,-1
 323.991764243 1062.00105899 l 1,25,-1
 323.991764243 677.987798657 l 1,26,-1
 608.023512316 677.974186069 l 2,27,28
 783.413585251 677.974184765 783.413585251 677.974184765 848.489196011 743.049795524 c 0,29,30
 892.016048257 786.576647771 892.016048257 786.576647771 892.016048257 869.9765625 c 0,20,21
EndSplineSet
Validated: 33
EndChar

StartChar: Q
Encoding: 81 81 49
Width: 1229
GlyphClass: 2
Flags: W
AnchorPoint: "Anchor-8" 615 -330 basechar 0
LayerCount: 2
Fore
SplineSet
608 1062.00823576 m 128,-1,1
 490.405205377 1062.00823576 490.405205377 1062.00823576 407.19848481 978.80151519 c 128,-1,2
 323.991764243 895.594794623 323.991764243 895.594794623 323.991764243 778 c 2,3,-1
 323.991764243 410 l 2,4,5
 323.991764243 292.405205377 323.991764243 292.405205377 407.19848481 209.19848481 c 128,-1,6
 490.405205377 125.991764243 490.405205377 125.991764243 608 125.991764243 c 0,7,8
 680.022079295 125.991764243 680.022079295 125.991764243 740.72943732 158.47515556 c 1,9,-1
 548.60229644 350.60229644 l 2,10,11
 524.007288214 375.197304667 524.007288214 375.197304667 524.006892981 410.000637956 c 128,-1,12
 524.006892981 444.802300109 524.006892981 444.802300109 548.601737626 469.397144754 c 128,-1,13
 573.19940655 493.991764243 573.19940655 493.991764243 608 493.991764243 c 128,-1,14
 642.803642877 493.991764243 642.803642877 493.991764243 667.39770356 469.39770356 c 2,15,-1
 859.52484444 277.27056268 l 1,16,17
 892.008235757 337.977920705 892.008235757 337.977920705 892.008235757 410 c 2,18,-1
 892.008235757 778 l 2,19,20
 892.008235757 895.594794623 892.008235757 895.594794623 808.80151519 978.80151519 c 128,-1,0
 725.594794623 1062.00823576 725.594794623 1062.00823576 608 1062.00823576 c 128,-1,1
608 1229.99176424 m 128,-1,22
 794.405205377 1229.99176424 794.405205377 1229.99176424 927.19848481 1097.19848481 c 128,-1,23
 1059.99176424 964.405205377 1059.99176424 964.405205377 1059.99176424 778 c 2,24,-1
 1059.99176424 410 l 2,25,26
 1059.99176424 268.853315806 1059.99176424 268.853315806 981.364336995 155.431070125 c 1,27,-1
 1035.39770356 101.39770356 l 2,28,29
 1059.9927408 76.802666312 1059.9927408 76.802666312 1059.9927408 42 c 128,-1,30
 1059.9927408 7.19733368803 1059.9927408 7.19733368803 1035.39770356 -17.3977035598 c 128,-1,31
 1010.80266632 -41.9927408052 1010.80266632 -41.9927408052 976 -41.9927408052 c 128,-1,32
 941.197333685 -41.9927408052 941.197333685 -41.9927408052 916.60229644 -17.3977035598 c 2,33,-1
 862.568929875 36.635663005 l 1,34,35
 749.011893181 -41.9917651052 749.011893181 -41.9917651052 608 -41.9917642427 c 0,36,37
 421.594794623 -41.9917642427 421.594794623 -41.9917642427 288.80151519 90.8015151902 c 128,-1,38
 156.008235757 223.594794623 156.008235757 223.594794623 156.008235757 410 c 2,39,-1
 156.008235757 778 l 2,40,41
 156.008235757 964.405205377 156.008235757 964.405205377 288.80151519 1097.19848481 c 128,-1,21
 421.594794623 1229.99176424 421.594794623 1229.99176424 608 1229.99176424 c 128,-1,22
EndSplineSet
Validated: 33
EndChar

StartChar: R
Encoding: 82 82 50
Width: 1229
GlyphClass: 2
Flags: W
AnchorPoint: "Anchor-8" 615 -120 basechar 0
LayerCount: 2
Fore
SplineSet
896.218439963 570.993730479 m 1,0,1
 1059.99176424 417.187990578 1059.99176424 417.187990578 1059.99176424 42 c 0,2,3
 1059.99176424 7.59479462303 1059.99176424 7.59479462303 1035.19848481 -17.1984848098 c 128,-1,4
 1010.40520538 -41.9917642427 1010.40520538 -41.9917642427 976 -41.9917642427 c 128,-1,5
 941.594794623 -41.9917642427 941.594794623 -41.9917642427 916.80151519 -17.1984848098 c 128,-1,6
 892.008235757 7.59479462303 892.008235757 7.59479462303 892.008235757 42 c 0,7,8
 892.008235757 338.746993372 892.008235757 338.746993372 782.830932628 447.924296502 c 0,9,10
 759.431050589 471.32417854 759.431050589 471.32417854 731.226892035 485.377848918 c 0,11,12
 681.796436006 510.008235757 681.796436006 510.008235757 608 510.008235757 c 2,13,-1
 323.991764243 510.008235757 l 1,14,-1
 323.991764243 42 l 2,15,16
 323.991764243 7.59479462303 323.991764243 7.59479462303 299.19848481 -17.1984848098 c 128,-1,17
 274.405205377 -41.9917642427 274.405205377 -41.9917642427 240 -41.9917642427 c 128,-1,18
 205.594794623 -41.9917642427 205.594794623 -41.9917642427 180.80151519 -17.1984848098 c 128,-1,19
 156.008235757 7.59479462303 156.008235757 7.59479462303 156.008235757 42 c 2,20,-1
 156.008235757 1146 l 2,21,22
 156.008235757 1180.40520538 156.008235757 1180.40520538 180.80151519 1205.19848481 c 128,-1,23
 205.594794623 1229.99176424 205.594794623 1229.99176424 240 1229.99176424 c 2,24,-1
 608 1229.99176424 l 2,25,26
 853.170864893 1229.99176424 853.170864893 1229.99176424 968.352266696 1114.81036244 c 0,27,28
 1059.98004549 1023.18258364 1059.98004549 1023.18258364 1059.98004549 870.00390625 c 0,29,30
 1059.98004549 689.996379735 1059.98004549 689.996379735 934.3607094 595.781452201 c 0,31,32
 916.417392286 582.323643605 916.417392286 582.323643605 896.218439963 570.993730479 c 1,0,1
891.996517007 870.00390625 m 0,33,34
 891.996517007 965.99225453 891.996517007 965.99225453 833.621992456 1009.77342971 c 0,35,36
 763.976032628 1062.00823576 763.976032628 1062.00823576 608 1062.00823576 c 2,37,-1
 323.991764243 1062.00823576 l 1,38,-1
 323.991764243 677.993273752 l 1,39,-1
 607.998478944 678.003482965 l 2,40,41
 783.408115087 678.020990373 783.408115087 678.020990373 848.471440527 743.084315813 c 0,42,43
 891.996517007 786.609392293 891.996517007 786.609392293 891.996517007 870.00390625 c 0,33,34
EndSplineSet
Validated: 1
EndChar

StartChar: S
Encoding: 83 83 51
Width: 1229
GlyphClass: 2
Flags: W
AnchorPoint: "Anchor-8" 615 -120 basechar 0
LayerCount: 2
Fore
SplineSet
608.01953125 1229.96246736 m 0,0,1
 853.190437816 1229.96246736 853.190437816 1229.96246736 968.37208265 1114.78082253 c 0,2,3
 1059.99957674 1023.15332844 1059.99957674 1023.15332844 1059.99957674 869.9765625 c 0,4,5
 1059.99957674 835.185859072 1059.99957674 835.185859072 1035.39904633 810.585328667 c 128,-1,6
 1010.79851593 785.984798257 1010.79851593 785.984798257 976.0078125 785.984798257 c 128,-1,7
 941.217109075 785.984798257 941.217109075 785.984798257 916.616578667 810.585328667 c 128,-1,8
 892.016048257 835.185859075 892.016048257 835.185859075 892.016048257 869.9765625 c 0,9,10
 892.016048257 965.962957656 892.016048257 965.962957656 833.641523708 1009.74413284 c 0,11,12
 763.99556388 1061.97893888 763.99556388 1061.97893888 608.01953125 1061.97893888 c 0,13,14
 432.628960965 1061.97893888 432.628960965 1061.97893888 367.54834872 996.898326633 c 0,15,16
 324.023014243 953.372992155 324.023014243 953.372992155 324.023014243 869.9765625 c 0,17,18
 324.023014243 773.989547792 324.023014243 773.989547792 382.395896367 730.208759136 c 0,19,20
 452.040200801 677.974186118 452.040200801 677.974186118 608.009765625 677.974186118 c 0,21,22
 853.172829808 677.974186118 853.172829808 677.974186118 968.353890993 562.793124933 c 0,23,24
 1059.98004549 471.166970433 1059.98004549 471.166970433 1059.98004549 317.990234375 c 0,25,26
 1059.98004549 137.984660983 1059.98004549 137.984660983 934.360398524 43.7695002906 c 0,27,28
 820.012562198 -41.9917642427 820.012562198 -41.9917642427 608 -41.9917642427 c 0,29,30
 362.828725725 -41.9917642427 362.828725725 -41.9917642427 247.646407421 73.190554061 c 0,31,32
 156.019954507 164.817006975 156.019954507 164.817006975 156.019954507 317.994140625 c 0,33,34
 156.019954507 352.78484405 156.019954507 352.78484405 180.620484917 377.385374458 c 128,-1,35
 205.221015325 401.985904868 205.221015325 401.985904868 240.01171875 401.985904868 c 128,-1,36
 274.802422175 401.985904868 274.802422175 401.985904868 299.402952583 377.385374458 c 128,-1,37
 324.003482993 352.78484405 324.003482993 352.78484405 324.003482993 317.994140625 c 0,38,39
 324.003482993 222.00774547 324.003482993 222.00774547 382.378007544 178.226570288 c 0,40,41
 452.023967372 125.991764243 452.023967372 125.991764243 608 125.991764243 c 0,42,43
 783.390645138 125.991764243 783.390645138 125.991764243 848.471698528 191.072817633 c 0,44,45
 891.996517007 234.597636112 891.996517007 234.597636112 891.996517007 317.990234375 c 0,46,47
 891.996517007 413.975295958 891.996517007 413.975295958 833.623634883 457.756084614 c 0,48,49
 763.979330449 509.990657632 763.979330449 509.990657632 608.009765625 509.990657632 c 0,50,51
 362.846743115 509.990657632 362.846743115 509.990657632 247.665924955 625.171475792 c 0,52,53
 156.039485757 716.79791499 156.039485757 716.79791499 156.039485757 869.9765625 c 0,54,55
 156.039485757 1049.98434028 156.039485757 1049.98434028 281.658842053 1144.20098482 c 0,56,57
 396.004903554 1229.96246736 396.004903554 1229.96246736 608.01953125 1229.96246736 c 0,0,1
EndSplineSet
Validated: 1
EndChar

StartChar: T
Encoding: 84 84 52
Width: 1229
GlyphClass: 2
Flags: W
AnchorPoint: "Anchor-8" 615 -120 basechar 0
LayerCount: 2
Fore
SplineSet
240 1229.99176424 m 2,0,-1
 976 1229.99176424 l 2,1,2
 1010.40520538 1229.99176424 1010.40520538 1229.99176424 1035.19848481 1205.19848481 c 128,-1,3
 1059.99176424 1180.40520538 1059.99176424 1180.40520538 1059.99176424 1146 c 128,-1,4
 1059.99176424 1111.59479462 1059.99176424 1111.59479462 1035.19848481 1086.80151519 c 128,-1,5
 1010.40520538 1062.00823576 1010.40520538 1062.00823576 976 1062.00823576 c 2,6,-1
 691.991764243 1062.00823576 l 1,7,-1
 691.991764243 42 l 2,8,9
 691.991764243 7.59479462303 691.991764243 7.59479462303 667.19848481 -17.1984848098 c 128,-1,10
 642.405205377 -41.9917642427 642.405205377 -41.9917642427 608 -41.9917642427 c 128,-1,11
 573.594794623 -41.9917642427 573.594794623 -41.9917642427 548.80151519 -17.1984848098 c 128,-1,12
 524.008235757 7.59479462303 524.008235757 7.59479462303 524.008235757 42 c 2,13,-1
 524.008235757 1062.00823576 l 1,14,-1
 240 1062.00823576 l 2,15,16
 205.594794623 1062.00823576 205.594794623 1062.00823576 180.80151519 1086.80151519 c 128,-1,17
 156.008235757 1111.59479462 156.008235757 1111.59479462 156.008235757 1146 c 128,-1,18
 156.008235757 1180.40520538 156.008235757 1180.40520538 180.80151519 1205.19848481 c 128,-1,19
 205.594794623 1229.99176424 205.594794623 1229.99176424 240 1229.99176424 c 2,0,-1
EndSplineSet
Validated: 1
EndChar

StartChar: U
Encoding: 85 85 53
Width: 1229
GlyphClass: 2
Flags: W
AnchorPoint: "Anchor-8" 615 -120 basechar 0
LayerCount: 2
Fore
SplineSet
240 1229.99176424 m 128,-1,1
 274.405205377 1229.99176424 274.405205377 1229.99176424 299.19848481 1205.19848481 c 128,-1,2
 323.991764243 1180.40520538 323.991764243 1180.40520538 323.991764243 1146 c 2,3,-1
 323.991764243 410 l 2,4,5
 323.991764243 292.405205377 323.991764243 292.405205377 407.19848481 209.19848481 c 128,-1,6
 490.405205377 125.991764243 490.405205377 125.991764243 608 125.991764243 c 128,-1,7
 725.594794623 125.991764243 725.594794623 125.991764243 808.80151519 209.19848481 c 128,-1,8
 892.008235757 292.405205377 892.008235757 292.405205377 892.008235757 410 c 2,9,-1
 892.008235757 1146 l 2,10,11
 892.008235757 1180.40520538 892.008235757 1180.40520538 916.80151519 1205.19848481 c 128,-1,12
 941.594794623 1229.99176424 941.594794623 1229.99176424 976 1229.99176424 c 128,-1,13
 1010.40520538 1229.99176424 1010.40520538 1229.99176424 1035.19848481 1205.19848481 c 128,-1,14
 1059.99176424 1180.40520538 1059.99176424 1180.40520538 1059.99176424 1146 c 2,15,-1
 1059.99176424 410 l 2,16,17
 1059.99176424 223.594794623 1059.99176424 223.594794623 927.19848481 90.8015151902 c 128,-1,18
 794.405205377 -41.9917642427 794.405205377 -41.9917642427 608 -41.9917642427 c 128,-1,19
 421.594794623 -41.9917642427 421.594794623 -41.9917642427 288.80151519 90.8015151902 c 128,-1,20
 156.008235757 223.594794623 156.008235757 223.594794623 156.008235757 410 c 2,21,-1
 156.008235757 1146 l 2,22,23
 156.008235757 1180.40520538 156.008235757 1180.40520538 180.80151519 1205.19848481 c 128,-1,0
 205.594794623 1229.99176424 205.594794623 1229.99176424 240 1229.99176424 c 128,-1,1
EndSplineSet
Validated: 1
EndChar

StartChar: V
Encoding: 86 86 54
Width: 1229
GlyphClass: 2
Flags: W
AnchorPoint: "Anchor-8" 615 -120 basechar 0
LayerCount: 2
Fore
SplineSet
916.354402397 1205.32140893 m 0,0,1
 925.911289255 1214.87829578 925.911289255 1214.87829578 941.278249171 1222.56177574 c 128,-1,2
 956.645209088 1230.24525569 956.645209088 1230.24525569 972.774585161 1230.24525569 c 0,3,4
 1010.72175083 1230.24525569 1010.72175083 1230.24525569 1035.32140892 1205.64559761 c 0,5,6
 1044.87829578 1196.08871074 1044.87829578 1196.08871074 1052.56177574 1180.72175083 c 128,-1,7
 1060.24525569 1165.35479092 1060.24525569 1165.35479092 1060.24525569 1149.22541484 c 128,-1,8
 1060.24525569 1133.09603876 1060.24525569 1133.09603876 1055.67691338 1119.39101181 c 2,9,-1
 687.676687198 15.3903332874 l 2,10,11
 679.114512412 -10.2947282014 679.114512412 -10.2947282014 657.077562354 -26.1697714177 c 128,-1,12
 635.130521617 -41.9800454927 635.130521617 -41.9800454927 608 -41.9800454927 c 0,13,14
 573.149610724 -41.9800454927 573.149610724 -41.9800454927 548.40289831 -17.2333330785 c 0,15,16
 534.595889084 -3.42632385236 534.595889084 -3.42632385236 528.323086621 15.3910118112 c 2,17,-1
 252.323136883 843.390861031 l 1,18,-1
 160.32308662 1119.39101181 l 2,19,20
 155.754751951 1133.09601583 155.754751951 1133.09601583 155.754751951 1149.22534361 c 128,-1,21
 155.754751951 1165.3546714 155.754751951 1165.3546714 163.438260651 1180.72149367 c 128,-1,22
 171.12176935 1196.08831594 171.12176935 1196.08831594 180.678676228 1205.64522282 c 0,23,24
 194.368777979 1219.33532457 194.368777979 1219.33532457 213.391011816 1225.67691338 c 0,25,26
 226.352476617 1229.99740165 226.352476617 1229.99740165 239.877551876 1229.99740165 c 0,27,28
 275.725055696 1229.99740165 275.725055696 1229.99740165 299.195481485 1206.52697586 c 0,29,30
 312.958635493 1192.76382185 312.958635493 1192.76382185 319.676913379 1172.60898819 c 2,31,-1
 608 307.639728325 l 1,32,-1
 896.323086621 1172.60898819 l 2,33,34
 902.663639101 1191.63064563 902.663639101 1191.63064563 916.354402397 1205.32140893 c 0,0,1
EndSplineSet
Validated: 1
EndChar

StartChar: W
Encoding: 87 87 55
Width: 1229
GlyphClass: 2
Flags: W
AnchorPoint: "Anchor-8" 615 -120 basechar 0
LayerCount: 2
Fore
SplineSet
240 1229.99176424 m 128,-1,1
 274.405205377 1229.99176424 274.405205377 1229.99176424 299.19848481 1205.19848481 c 128,-1,2
 323.991764243 1180.40520538 323.991764243 1180.40520538 323.991764243 1146 c 2,3,-1
 323.991764243 594 l 2,4,5
 323.991764243 331.673201822 323.991764243 331.673201822 365.678958805 206.608711281 c 0,6,7
 382.424506454 156.370900666 382.424506454 156.370900666 402.89770356 135.89770356 c 0,8,9
 412.803642877 125.991764243 412.803642877 125.991764243 424 125.991764243 c 128,-1,10
 435.196357123 125.991764243 435.196357123 125.991764243 445.10229644 135.89770356 c 0,11,12
 465.578423204 156.373830323 465.578423204 156.373830323 482.323132773 206.609126642 c 0,13,14
 523.590179721 330.408828757 523.590179721 330.408828757 524.008288124 594.066570562 c 0,15,16
 524.062999383 628.842230064 524.062999383 628.842230064 548.807250655 653.122075278 c 128,-1,17
 573.551501926 677.401920493 573.551501926 677.401920493 608 677.401920493 c 0,18,19
 642.914204343 677.401920493 642.914204343 677.401920493 667.425966537 652.89067187 c 128,-1,20
 691.93772873 628.379423247 691.93772873 628.379423247 691.991711038 594.067101039 c 0,21,22
 692.409820283 330.408828739 692.409820283 330.408828739 733.67700568 206.608711281 c 0,23,24
 750.4215768 156.37383032 750.4215768 156.37383032 770.89770356 135.89770356 c 0,25,26
 780.803642877 125.991764243 780.803642877 125.991764243 792 125.991764243 c 128,-1,27
 803.196357123 125.991764243 803.196357123 125.991764243 813.10229644 135.89770356 c 0,28,29
 833.575493546 156.370900666 833.575493546 156.370900666 850.321041195 206.608711281 c 0,30,31
 892.008235757 331.673201822 892.008235757 331.673201822 892.008235757 594 c 2,32,-1
 892.008235757 1146 l 2,33,34
 892.008235757 1180.40520538 892.008235757 1180.40520538 916.80151519 1205.19848481 c 128,-1,35
 941.594794623 1229.99176424 941.594794623 1229.99176424 976 1229.99176424 c 128,-1,36
 1010.40520538 1229.99176424 1010.40520538 1229.99176424 1035.19848481 1205.19848481 c 128,-1,37
 1059.99176424 1180.40520538 1059.99176424 1180.40520538 1059.99176424 1146 c 2,38,-1
 1059.99176424 594 l 2,39,40
 1059.99176424 304.334089893 1059.99176424 304.334089893 1009.67699097 153.391244573 c 0,41,42
 980.423017936 65.6276108165 980.423017936 65.6276108165 931.89770356 17.1022964402 c 0,43,44
 872.803642877 -41.9917642427 872.803642877 -41.9917642427 792 -41.9917642427 c 128,-1,45
 711.196357123 -41.9917642427 711.196357123 -41.9917642427 652.10229644 17.1022964402 c 0,46,47
 627.593122356 41.6114705248 627.593122356 41.6114705248 608.000047507 76.1309800352 c 1,48,49
 588.407021614 41.6116144947 588.407021614 41.6116144947 563.89770356 17.1022964402 c 1,50,51
 459.694823812 -42.5164061169 459.694823812 -42.5164061169 429.09359369 -42.5164061169 c 0,52,53
 426.222951258 -42.5164061169 426.222951258 -42.5164061169 424 -41.9917642427 c 0,54,55
 343.196357123 -41.9917642427 343.196357123 -41.9917642427 284.10229644 17.1022964402 c 0,56,57
 235.576982067 65.6276108139 235.576982067 65.6276108139 206.323125415 153.390895431 c 0,58,59
 156.008235757 304.334089888 156.008235757 304.334089888 156.008235757 594 c 2,60,-1
 156.008235757 1146 l 2,61,62
 156.008235757 1180.40520538 156.008235757 1180.40520538 180.80151519 1205.19848481 c 128,-1,0
 205.594794623 1229.99176424 205.594794623 1229.99176424 240 1229.99176424 c 128,-1,1
EndSplineSet
Validated: 1
EndChar

StartChar: X
Encoding: 88 88 56
Width: 1229
GlyphClass: 2
Flags: W
AnchorPoint: "Anchor-8" 615 -120 basechar 0
LayerCount: 2
Fore
SplineSet
180.198852237 1205.09780766 m 0,0,1
 205.330043723 1230.22899915 205.330043723 1230.22899915 241.737656198 1230.22899915 c 0,2,3
 274.896240373 1230.22899915 274.896240373 1230.22899915 298.262670159 1206.86256936 c 0,4,5
 304.635758446 1200.48948108 304.635758446 1200.48948108 309.9145465 1192.57157254 c 2,6,-1
 608 745.443392286 l 1,7,-1
 906.085822686 1192.57212631 l 2,8,9
 925.569213514 1221.79620294 925.569213514 1221.79620294 957.166392367 1228.47379048 c 0,10,11
 965.47161147 1230.22897337 965.47161147 1230.22897337 974.262347971 1230.22897337 c 0,12,13
 1010.67026467 1230.22897337 1010.67026467 1230.22897337 1035.80190029 1205.09733776 c 0,14,15
 1053.34984441 1187.54939363 1053.34984441 1187.54939363 1058.35547301 1162.52096076 c 0,16,17
 1060.14481561 1153.57414416 1060.14481561 1153.57414416 1060.14481561 1144.98793974 c 0,18,19
 1060.14481561 1120.77424682 1060.14481561 1120.77424682 1045.9145465 1099.42842746 c 2,20,-1
 781.563030248 702.901153085 l 1,21,-1
 708.962261525 594 l 1,22,-1
 1045.91469236 88.5713537449 l 2,23,24
 1060.14484388 67.225835116 1060.14484388 67.225835116 1060.14484388 43.0120359106 c 0,25,26
 1060.14484388 34.4257346125 1060.14484388 34.4257346125 1058.3554914 25.4787649864 c 0,27,28
 1051.5392457 -8.60325297716 1051.5392457 -8.60325297716 1022.57135374 -27.9146923659 c 0,29,30
 1001.22583511 -42.1448438789 1001.22583511 -42.1448438789 977.012035906 -42.1448438789 c 0,31,32
 968.425734614 -42.1448438789 968.425734614 -42.1448438789 959.478764996 -40.3554914041 c 0,33,34
 925.396747026 -33.5392457034 925.396747026 -33.5392457034 906.0854535 -4.57157253723 c 2,35,-1
 608 442.556607713 l 1,36,-1
 309.914816865 -4.57116698547 l 2,37,38
 290.603252978 -33.5392457026 290.603252978 -33.5392457026 256.521235005 -40.355491404 c 0,39,40
 247.574222727 -42.1448524103 247.574222727 -42.1448524103 238.987895015 -42.1448524103 c 0,41,42
 214.774177689 -42.1448524103 214.774177689 -42.1448524103 193.428833014 -27.9148168641 c 0,43,44
 164.460754297 -8.60325297724 164.460754297 -8.60325297724 157.644508596 25.4787649957 c 0,45,46
 155.855166117 34.4256846342 155.855166117 34.4256846342 155.855166117 43.0119549686 c 0,47,48
 155.855166117 67.2258501014 155.855166117 67.2258501014 170.0854535 88.5715725372 c 2,49,-1
 507.037738475 594 l 1,50,-1
 170.084934119 1099.42920655 l 2,51,52
 155.855439766 1120.77448551 155.855439766 1120.77448551 155.855439766 1144.98744384 c 0,53,54
 155.855439766 1153.5741081 155.855439766 1153.5741081 157.644985173 1162.52142062 c 0,55,56
 162.650905049 1187.54986048 162.650905049 1187.54986048 180.198852237 1205.09780766 c 0,0,1
EndSplineSet
Validated: 1
EndChar

StartChar: Y
Encoding: 89 89 57
Width: 1229
GlyphClass: 2
Flags: W
AnchorPoint: "Anchor-8" 615 -120 basechar 0
LayerCount: 2
Fore
SplineSet
180.198852237 1205.09780766 m 0,0,1
 205.330043723 1230.22899915 205.330043723 1230.22899915 241.737656198 1230.22899915 c 0,2,3
 274.896240373 1230.22899915 274.896240373 1230.22899915 298.262670159 1206.86256936 c 0,4,5
 304.635758446 1200.48948108 304.635758446 1200.48948108 309.9145465 1192.57157254 c 2,6,-1
 608 745.443392287 l 1,7,-1
 906.085183138 1192.57116699 l 2,8,9
 925.396747022 1221.5392457 925.396747022 1221.5392457 959.478764986 1228.3554914 c 0,10,11
 968.42577727 1230.14485241 968.42577727 1230.14485241 977.01210499 1230.14485241 c 0,12,13
 1001.22582232 1230.14485241 1001.22582232 1230.14485241 1022.571167 1215.91481686 c 0,14,15
 1051.53924569 1196.60325297 1051.53924569 1196.60325297 1058.3554914 1162.52123502 c 0,16,17
 1060.14483389 1153.57431537 1060.14483389 1153.57431537 1060.14483389 1144.98804503 c 0,18,19
 1060.14483389 1120.77414989 1060.14483389 1120.77414989 1045.9145465 1099.42842746 c 2,20,-1
 775.205594539 693.364999521 l 1,21,-1
 691.991764243 568.544254077 l 1,22,-1
 691.991764243 42 l 2,23,24
 691.991764243 7.59479462303 691.991764243 7.59479462303 667.19848481 -17.1984848098 c 128,-1,25
 642.405205377 -41.9917642427 642.405205377 -41.9917642427 608 -41.9917642427 c 128,-1,26
 573.594794623 -41.9917642427 573.594794623 -41.9917642427 548.80151519 -17.1984848098 c 128,-1,27
 524.008235757 7.59479462303 524.008235757 7.59479462303 524.008235757 42 c 2,28,-1
 524.008235757 568.544254077 l 1,29,-1
 170.084934119 1099.42920655 l 2,30,31
 155.855439766 1120.77448551 155.855439766 1120.77448551 155.855439766 1144.98744384 c 0,32,33
 155.855439766 1153.5741081 155.855439766 1153.5741081 157.644985173 1162.52142062 c 0,34,35
 162.650905049 1187.54986048 162.650905049 1187.54986048 180.198852237 1205.09780766 c 0,0,1
EndSplineSet
Validated: 1
EndChar

StartChar: Z
Encoding: 90 90 58
Width: 1229
GlyphClass: 2
Flags: W
AnchorPoint: "Anchor-8" 615 -120 basechar 0
LayerCount: 2
Fore
SplineSet
240 1229.99176424 m 2,0,-1
 976 1229.99176424 l 2,1,2
 1011.2473912 1229.99176424 1011.2473912 1229.99176424 1034.70023908 1206.53891636 c 0,3,4
 1043.69219424 1197.5469612 1043.69219424 1197.5469612 1050.06524536 1185.63857191 c 0,5,6
 1060.49283542 1166.15405826 1060.49283542 1166.15405826 1060.49283542 1145.89892187 c 0,7,8
 1060.49283542 1121.2950278 1060.49283542 1121.2950278 1045.9145465 1099.42842746 c 2,9,-1
 396.95677102 125.991764243 l 1,10,-1
 976 125.991764243 l 2,11,12
 1010.40520538 125.991764243 1010.40520538 125.991764243 1035.19848481 101.19848481 c 128,-1,13
 1059.99176424 76.405205377 1059.99176424 76.405205377 1059.99176424 42 c 128,-1,14
 1059.99176424 7.59479462303 1059.99176424 7.59479462303 1035.19848481 -17.1984848098 c 128,-1,15
 1010.40520538 -41.9917642427 1010.40520538 -41.9917642427 976 -41.9917642427 c 2,16,-1
 240 -41.9917642427 l 2,17,18
 204.752608801 -41.9917642427 204.752608801 -41.9917642427 181.299760917 -18.5389163586 c 0,19,20
 172.30780576 -9.54696120116 172.30780576 -9.54696120116 165.934754636 2.3614280848 c 0,21,22
 155.507164584 21.8459417424 155.507164584 21.8459417424 155.507164584 42.1010781256 c 0,23,24
 155.507164584 66.7049721966 155.507164584 66.7049721966 170.0854535 88.5715725372 c 2,25,-1
 819.04322898 1062.00823576 l 1,26,-1
 240 1062.00823576 l 2,27,28
 205.594794623 1062.00823576 205.594794623 1062.00823576 180.80151519 1086.80151519 c 128,-1,29
 156.008235757 1111.59479462 156.008235757 1111.59479462 156.008235757 1146 c 128,-1,30
 156.008235757 1180.40520538 156.008235757 1180.40520538 180.80151519 1205.19848481 c 128,-1,31
 205.594794623 1229.99176424 205.594794623 1229.99176424 240 1229.99176424 c 2,0,-1
EndSplineSet
Validated: 1
EndChar

StartChar: bracketleft
Encoding: 91 91 59
Width: 1229
GlyphClass: 2
Flags: W
LayerCount: 2
Fore
SplineSet
700 1392.99588212 m 2,0,1
 725.702602688 1392.99588212 725.702602688 1392.99588212 744.349242405 1374.3492424 c 128,-1,2
 762.995882121 1355.70260269 762.995882121 1355.70260269 762.995882121 1330 c 128,-1,3
 762.995882121 1304.29739731 762.995882121 1304.29739731 744.349242405 1285.6507576 c 128,-1,4
 725.702602688 1267.00411788 725.702602688 1267.00411788 700 1267.00411788 c 2,5,-1
 578.995882121 1267.00411788 l 1,6,-1
 578.995882121 -79.0041178786 l 1,7,-1
 700 -79.0041178786 l 2,8,9
 725.702602688 -79.0041178786 725.702602688 -79.0041178786 744.349242405 -97.6507575951 c 128,-1,10
 762.995882121 -116.297397312 762.995882121 -116.297397312 762.995882121 -142 c 128,-1,11
 762.995882121 -167.702602688 762.995882121 -167.702602688 744.349242405 -186.349242405 c 128,-1,12
 725.702602688 -204.995882121 725.702602688 -204.995882121 700 -204.995882121 c 2,13,-1
 516 -204.995882121 l 2,14,15
 490.297397312 -204.995882121 490.297397312 -204.995882121 471.650757595 -186.349242405 c 128,-1,16
 453.004117879 -167.702602688 453.004117879 -167.702602688 453.004117879 -142 c 2,17,-1
 453.004117879 1330 l 2,18,19
 453.004117879 1355.70260269 453.004117879 1355.70260269 471.650757595 1374.3492424 c 128,-1,20
 490.297397312 1392.99588212 490.297397312 1392.99588212 516 1392.99588212 c 2,21,-1
 700 1392.99588212 l 2,0,1
EndSplineSet
Validated: 1
EndChar

StartChar: backslash
Encoding: 92 92 60
Width: 1229
GlyphClass: 2
Flags: W
LayerCount: 2
Fore
SplineSet
239.974609375 1209.03787431 m 0,0,1
 273.694162462 1209.03787431 273.694162462 1209.03787431 292.42957592 1180.93475412 c 2,2,-1
 652.699097047 640.566230471 l 2,3,4
 948.020339361 197.575360213 948.020339361 197.575360213 1028.43071296 76.9330484916 c 0,5,6
 1039.03689774 61.0214382286 1039.03689774 61.0214382286 1039.03689774 42.025390625 c 0,7,8
 1039.03689774 8.30680631595 1039.03689774 8.30680631595 1010.9330485 -10.4307129569 c 0,9,10
 995.021438232 -21.0368977464 995.021438232 -21.0368977464 976.025390625 -21.0368977464 c 0,11,12
 942.305120817 -21.0368977464 942.305120817 -21.0368977464 923.569257346 7.06446801564 c 0,13,14
 334.460827012 890.680772532 334.460827012 890.680772532 287.818553748 960.659699817 c 2,15,-1
 187.569287046 1111.0669515 l 2,16,17
 176.963102254 1126.97856176 176.963102254 1126.97856176 176.963102254 1145.97460938 c 0,18,19
 176.963102254 1179.69319382 176.963102254 1179.69319382 205.065776227 1198.4299295 c 0,20,21
 220.977693439 1209.03787431 220.977693439 1209.03787431 239.974609375 1209.03787431 c 0,0,1
EndSplineSet
Validated: 1
EndChar

StartChar: bracketright
Encoding: 93 93 61
Width: 1229
GlyphClass: 2
Flags: W
LayerCount: 2
Fore
SplineSet
516 1392.99588212 m 2,0,-1
 700 1392.99588212 l 2,1,2
 725.702602688 1392.99588212 725.702602688 1392.99588212 744.349242405 1374.3492424 c 128,-1,3
 762.995882121 1355.70260269 762.995882121 1355.70260269 762.995882121 1330 c 2,4,-1
 762.995882121 -142 l 2,5,6
 762.995882121 -167.702602688 762.995882121 -167.702602688 744.349242405 -186.349242405 c 128,-1,7
 725.702602688 -204.995882121 725.702602688 -204.995882121 700 -204.995882121 c 2,8,-1
 516 -204.995882121 l 2,9,10
 490.297397312 -204.995882121 490.297397312 -204.995882121 471.650757595 -186.349242405 c 128,-1,11
 453.004117879 -167.702602688 453.004117879 -167.702602688 453.004117879 -142 c 128,-1,12
 453.004117879 -116.297397312 453.004117879 -116.297397312 471.650757595 -97.6507575951 c 128,-1,13
 490.297397312 -79.0041178786 490.297397312 -79.0041178786 516 -79.0041178786 c 2,14,-1
 637.004117879 -79.0041178786 l 1,15,-1
 637.004117879 1267.00411788 l 1,16,-1
 516 1267.00411788 l 2,17,18
 490.297397312 1267.00411788 490.297397312 1267.00411788 471.650757595 1285.6507576 c 128,-1,19
 453.004117879 1304.29739731 453.004117879 1304.29739731 453.004117879 1330 c 128,-1,20
 453.004117879 1355.70260269 453.004117879 1355.70260269 471.650757595 1374.3492424 c 128,-1,21
 490.297397312 1392.99588212 490.297397312 1392.99588212 516 1392.99588212 c 2,0,-1
EndSplineSet
Validated: 1
EndChar

StartChar: asciicircum
Encoding: 94 94 62
Width: 1229
GlyphClass: 2
Flags: W
LayerCount: 2
Fore
SplineSet
608 1208.993929 m 128,-1,1
 634.102993316 1208.993929 634.102993316 1208.993929 652.548461155 1190.54846115 c 2,2,-1
 836.548461155 1006.54846115 l 2,3,4
 854.996858683 988.100063626 854.996858683 988.100063626 854.996858683 962 c 128,-1,5
 854.996858683 935.899936374 854.996858683 935.899936374 836.548461155 917.451538845 c 128,-1,6
 818.100063626 899.003141317 818.100063626 899.003141317 792 899.003141317 c 128,-1,7
 765.899936374 899.003141317 765.899936374 899.003141317 747.451538845 917.451538845 c 2,8,-1
 608 1056.90307769 l 1,9,-1
 468.548461155 917.451538845 l 2,10,11
 450.100063626 899.003141317 450.100063626 899.003141317 424 899.003141317 c 128,-1,12
 397.899936374 899.003141317 397.899936374 899.003141317 379.451538845 917.451538845 c 128,-1,13
 361.003141317 935.899936374 361.003141317 935.899936374 361.003141317 962 c 128,-1,14
 361.003141317 988.100063626 361.003141317 988.100063626 379.451538845 1006.54846115 c 2,15,-1
 563.451538845 1190.54846115 l 2,16,0
 581.897006684 1208.993929 581.897006684 1208.993929 608 1208.993929 c 128,-1,1
EndSplineSet
Validated: 1
EndChar

StartChar: underscore
Encoding: 95 95 63
Width: 1229
GlyphClass: 2
Flags: W
LayerCount: 2
Fore
SplineSet
240 -263.004117879 m 2,0,-1
 976 -263.004117879 l 2,1,2
 1001.70260269 -263.004117879 1001.70260269 -263.004117879 1020.3492424 -281.650757595 c 128,-1,3
 1038.99588212 -300.297397312 1038.99588212 -300.297397312 1038.99588212 -326 c 128,-1,4
 1038.99588212 -351.702602688 1038.99588212 -351.702602688 1020.3492424 -370.349242405 c 128,-1,5
 1001.70260269 -388.995882121 1001.70260269 -388.995882121 976 -388.995882121 c 2,6,-1
 240 -388.995882121 l 2,7,8
 214.297397312 -388.995882121 214.297397312 -388.995882121 195.650757595 -370.349242405 c 128,-1,9
 177.004117879 -351.702602688 177.004117879 -351.702602688 177.004117879 -326 c 128,-1,10
 177.004117879 -300.297397312 177.004117879 -300.297397312 195.650757595 -281.650757595 c 128,-1,11
 214.297397312 -263.004117879 214.297397312 -263.004117879 240 -263.004117879 c 2,0,-1
EndSplineSet
Validated: 1
EndChar

StartChar: grave
Encoding: 96 96 64
Width: 1229
GlyphClass: 2
Flags: W
LayerCount: 2
Fore
SplineSet
836.797115075 1006.47343439 m 0,0,1
 855.1854598 988.085089665 855.1854598 988.085089665 855.1854598 959.581350902 c 0,2,3
 855.1854598 947.488082467 855.1854598 947.488082467 849.398477117 935.914513718 c 128,-1,4
 843.611494434 924.340944969 843.611494434 924.340944969 834.95105697 915.680507505 c 128,-1,5
 826.290619505 907.02007004 826.290619505 907.02007004 813.982574236 902.917290058 c 128,-1,6
 801.674528967 898.814510076 801.674528967 898.814510076 789.581335841 898.814510076 c 128,-1,7
 777.488142715 898.814510076 777.488142715 898.814510076 763.81899829 905.649255844 c 2,8,-1
 395.818647523 1089.64943123 l 2,9,10
 372.484214102 1101.31719712 372.484214102 1101.31719712 364.238251006 1126.05449415 c 0,11,12
 360.814510076 1136.32547103 360.814510076 1136.32547103 360.814510076 1148.41866416 c 128,-1,13
 360.814510076 1160.51185728 360.814510076 1160.51185728 366.841706442 1172.56607646 c 0,14,15
 385.081265598 1209.04466955 385.081265598 1209.04466955 422.742366559 1209.04466955 c 0,16,17
 438.793150899 1209.04466955 438.793150899 1209.04466955 452.18100171 1202.35074416 c 2,18,-1
 820.181352475 1018.35056877 l 2,19,20
 829.659055031 1013.61149443 829.659055031 1013.61149443 836.797115075 1006.47343439 c 0,0,1
EndSplineSet
Validated: 1
EndChar

StartChar: a
Encoding: 97 97 65
Width: 1229
GlyphClass: 2
Flags: W
AnchorPoint: "Anchor-8" 615 -120 basechar 0
LayerCount: 2
Fore
SplineSet
608.01953125 125.985904868 m 1,0,-1
 616.676512624 125.882946821 l 2,1,2
 691.201232363 125.882946821 691.201232363 125.882946821 769.771851899 163.767620257 c 0,3,4
 844.779667459 199.934403904 844.779667459 199.934403904 892.010188882 255.245667271 c 1,5,-1
 892.010188882 326.008235757 l 1,6,-1
 607.994140625 326.008235757 l 2,7,8
 443.861194723 326.008235757 443.861194723 326.008235757 369.579651252 288.865343429 c 0,9,10
 341.348050742 274.748737217 341.348050742 274.748737217 332.677719335 261.891364036 c 128,-1,11
 324.007387928 249.033990856 324.007387928 249.033990856 324.007388919 226.007190948 c 128,-1,12
 324.010239286 202.980020936 324.010239286 202.980020936 332.210957718 190.821913225 c 0,13,14
 341.368091353 177.24585669 341.368091353 177.24585669 369.604758174 163.12698593 c 0,15,16
 443.886920298 125.985904868 443.886920298 125.985904868 608.01953125 125.985904868 c 1,0,-1
608.015625 861.970279868 m 128,-1,18
 811.770269999 861.970279868 811.770269999 861.970279868 921.522169821 807.209279373 c 0,19,20
 985.456219449 775.309216332 985.456219449 775.309216332 1022.72399185 719.220618611 c 128,-1,21
 1059.99176424 663.132020891 1059.99176424 663.132020891 1059.99176424 594.498046875 c 2,22,-1
 1059.99176424 42 l 2,23,24
 1059.99176424 7.59479462303 1059.99176424 7.59479462303 1035.19848481 -17.1984848098 c 128,-1,25
 1010.40520538 -41.9917642427 1010.40520538 -41.9917642427 976 -41.9917642427 c 128,-1,26
 941.594794623 -41.9917642427 941.594794623 -41.9917642427 917.611353827 -18.0083234463 c 128,-1,27
 893.62791303 5.97511735 893.62791303 5.97511735 892.114044853 37.5458240385 c 1,28,29
 846.212292901 9.57002658739 846.212292901 9.57002658739 794.425396114 -9.54632498963 c 0,30,31
 706.263602197 -42.0899210104 706.263602197 -42.0899210104 616.920477522 -42.0899210104 c 0,32,33
 611.86268066 -42.0899210104 611.86268066 -42.0899210104 606.801097873 -41.9856253999 c 0,34,35
 403.822725626 -41.8290090875 403.822725626 -41.8290090875 294.44638634 12.8591605586 c 0,36,37
 230.500150374 44.8327161516 230.500150374 44.8327161516 193.266016786 101.030175327 c 128,-1,38
 156.031883197 157.227634503 156.031883197 157.227634503 156.023859 226.019297993 c 128,-1,39
 156.023859 294.763585447 156.023859 294.763585447 193.614063021 351.512259682 c 0,40,41
 230.472877591 407.156779716 230.472877591 407.156779716 294.420179743 439.132618938 c 0,42,43
 404.130962188 493.991764243 404.130962188 493.991764243 607.994140625 493.991764243 c 2,44,-1
 892.01076442 493.991764243 l 1,45,46
 892.01076442 544.24773762 892.01076442 544.24773762 892.012142154 594.508995625 c 0,47,48
 892.012142154 617.264055635 892.012142154 617.264055635 883.870482321 629.292543688 c 0,49,50
 874.736958068 642.786412213 874.736958068 642.786412213 846.493424931 656.878626344 c 0,51,52
 772.121537772 693.986751382 772.121537772 693.986751382 608.01953125 693.986751382 c 128,-1,53
 443.887459766 693.986751382 443.887459766 693.986751382 369.606427689 656.845528511 c 0,54,55
 341.372661138 642.728376573 341.372661138 642.728376573 332.69783769 629.866377969 c 128,-1,56
 324.023014243 617.004379366 324.023014243 617.004379366 324.023014243 593.982421875 c 0,57,58
 324.023014243 559.1799997 324.023014243 559.1799997 299.428343208 534.585328667 c 128,-1,59
 274.833672175 509.990657632 274.833672175 509.990657632 240.03125 509.990657632 c 128,-1,60
 205.228827825 509.990657632 205.228827825 509.990657632 180.634156792 534.585328667 c 128,-1,61
 156.039485757 559.1799997 156.039485757 559.1799997 156.039485757 593.982421875 c 0,62,63
 156.039485757 662.742585682 156.039485757 662.742585682 193.640937733 719.499899372 c 0,64,65
 230.502250263 775.140013469 230.502250263 775.140013469 294.448339459 807.113495689 c 0,66,17
 404.160406167 861.970279868 404.160406167 861.970279868 608.015625 861.970279868 c 128,-1,18
EndSplineSet
Validated: 1
EndChar

StartChar: b
Encoding: 98 98 66
Width: 1229
GlyphClass: 2
Flags: W
AnchorPoint: "Anchor-8" 615 -120 basechar 0
LayerCount: 2
Fore
SplineSet
604.512169391 694.012209675 m 0,0,1
 526.556189689 694.012209675 526.556189689 694.012209675 445.76661982 655.311658078 c 0,2,3
 370.890646794 619.443891209 370.890646794 619.443891209 323.991764243 564.652362864 c 1,4,-1
 323.991764243 255.319901799 l 1,5,6
 370.890001864 200.527304847 370.890001864 200.527304847 448.713495036 163.24959443 c 128,-1,7
 526.536988208 125.971884012 526.536988208 125.971884012 604.47662234 125.971884012 c 0,8,9
 725.363738627 125.971884012 725.363738627 125.971884012 808.685987192 209.294153427 c 128,-1,10
 892.008235757 292.616422842 892.008235757 292.616422842 892.008235757 410 c 0,11,12
 892.008235757 527.714866408 892.008235757 527.714866408 809.054096775 610.335196168 c 0,13,14
 725.039004748 694.012209675 725.039004748 694.012209675 604.512169391 694.012209675 c 0,0,1
240 1229.99176424 m 128,-1,16
 274.405205377 1229.99176424 274.405205377 1229.99176424 299.19848481 1205.19848481 c 128,-1,17
 323.991764243 1180.40520538 323.991764243 1180.40520538 323.991764243 1146 c 2,18,-1
 323.991764243 781.918561578 l 1,19,20
 369.644734818 809.561510424 369.644734818 809.561510424 421.214552826 828.552757602 c 0,21,22
 512.033730843 861.998085215 512.033730843 861.998085215 604.275542339 861.998085215 c 0,23,24
 729.093874637 861.998085215 729.093874637 861.998085215 834.826592162 800.463048162 c 0,25,26
 938.664143329 740.030972754 938.664143329 740.030972754 999.327953786 636.216359076 c 128,-1,27
 1059.99176424 532.401745399 1059.99176424 532.401745399 1059.99176424 410 c 128,-1,28
 1059.99176424 287.598443629 1059.99176424 287.598443629 999.263681079 183.673919535 c 0,29,30
 938.664598558 79.9701554203 938.664598558 79.9701554203 834.829412665 19.5357934735 c 0,31,32
 729.081012523 -42.0121012461 729.081012523 -42.0121012461 604.24062709 -42.0121012461 c 0,33,34
 512.017989363 -42.0121012461 512.017989363 -42.0121012461 421.217943375 -8.5785555994 c 0,35,36
 369.600617055 10.4274946384 369.600617055 10.4274946384 323.910930223 38.1023177879 c 1,37,38
 322.576087549 6.17911793111 322.576087549 6.17911793111 298.490646463 -17.9063231558 c 128,-1,39
 274.405205377 -41.9917642427 274.405205377 -41.9917642427 240 -41.9917642427 c 128,-1,40
 205.594794623 -41.9917642427 205.594794623 -41.9917642427 180.80151519 -17.1984848098 c 128,-1,41
 156.008235757 7.59479462303 156.008235757 7.59479462303 156.008235757 42 c 2,42,-1
 156.008235757 1146 l 2,43,44
 156.008235757 1180.40520538 156.008235757 1180.40520538 180.80151519 1205.19848481 c 128,-1,15
 205.594794623 1229.99176424 205.594794623 1229.99176424 240 1229.99176424 c 128,-1,16
EndSplineSet
Validated: 1
EndChar

StartChar: c
Encoding: 99 99 67
Width: 1229
GlyphClass: 2
Flags: W
AnchorPoint: "Anchor-8" 615 -120 basechar 0
LayerCount: 2
Fore
SplineSet
1044.32267068 642.869910091 m 0,0,1
 1060.03863924 620.931675511 1060.03863924 620.931675511 1060.03863924 594.00390625 c 0,2,3
 1060.03863924 550.843192772 1060.03863924 550.843192772 1024.89725384 525.667563685 c 0,4,5
 1002.95765605 509.950618569 1002.95765605 509.950618569 976.030273438 509.950618569 c 0,6,7
 932.863747552 509.950618569 932.863747552 509.950618569 907.692096769 545.094177645 c 0,8,9
 860.859107106 610.474145426 860.859107106 610.474145426 776.738910901 652.243236554 c 128,-1,10
 692.618714697 694.012327682 692.618714697 694.012327682 611.533015024 694.012327682 c 0,11,12
 490.622881489 694.012327682 490.622881489 694.012327682 407.307322866 610.696747603 c 128,-1,13
 323.991764243 527.381167524 323.991764243 527.381167524 323.991764243 410 c 0,14,15
 323.991764243 292.28454768 323.991764243 292.28454768 406.949492221 209.661829382 c 0,16,17
 490.978887403 125.971771613 490.978887403 125.971771613 611.567937859 125.971771613 c 0,18,19
 692.637193338 125.971771613 692.637193338 125.971771613 776.213279271 167.46792698 c 0,20,21
 860.859050619 209.495189201 860.859050619 209.495189201 907.691002223 274.874997395 c 0,22,23
 932.820380669 309.959537681 932.820380669 309.959537681 976.045898438 309.959537681 c 0,24,25
 1010.96504342 309.959537681 1010.96504342 309.959537681 1035.47156789 285.453013211 c 128,-1,26
 1059.97809236 260.946488742 1059.97809236 260.946488742 1059.97809236 225.950195312 c 0,27,28
 1059.97809236 198.9545091 1059.97809236 198.9545091 1044.3237506 177.102300574 c 0,29,30
 971.417676341 75.3217237581 971.417676341 75.3217237581 853.272460871 16.6545196919 c 128,-1,31
 735.127245402 -42.0126843742 735.127245402 -42.0126843742 611.91044965 -42.0126843742 c 0,32,33
 486.931709503 -42.0126843742 486.931709503 -42.0126843742 381.178002381 19.5355182763 c 0,34,35
 277.338040638 79.9699293475 277.338040638 79.9699293475 216.673138197 183.783792595 c 128,-1,36
 156.008235757 287.597655842 156.008235757 287.597655842 156.008235757 410 c 128,-1,37
 156.008235757 532.402970766 156.008235757 532.402970766 216.737745291 636.327436379 c 0,38,39
 277.338555562 740.031663062 277.338555562 740.031663062 381.180854804 800.463570443 c 0,40,41
 486.918795177 861.998662272 486.918795177 861.998662272 611.015459214 861.998662272 c 128,-1,42
 735.112123251 861.998662272 735.112123251 861.998662272 853.265170185 803.322649262 c 128,-1,43
 971.41821712 744.646636252 971.41821712 744.646636252 1044.32267068 642.869910091 c 0,0,1
EndSplineSet
Validated: 1
EndChar

StartChar: d
Encoding: 100 100 68
Width: 1229
GlyphClass: 2
Flags: W
AnchorPoint: "Anchor-8" 615 -120 basechar 0
LayerCount: 2
Fore
SplineSet
611.54386886 125.971879967 m 0,0,1
 689.48283362 125.971879967 689.48283362 125.971879967 770.243530931 164.647592017 c 0,2,3
 845.104885758 200.498151748 845.104885758 200.498151748 892.008235757 255.273907016 c 1,4,-1
 892.008235757 564.696680501 l 1,5,6
 845.104783844 619.472046909 845.104783844 619.472046909 767.284473413 656.742129395 c 128,-1,7
 689.464162983 694.012211882 689.464162983 694.012211882 611.508120658 694.012211882 c 0,8,9
 490.62313014 694.012211882 490.62313014 694.012211882 407.307447191 610.696507455 c 128,-1,10
 323.991764243 527.380803028 323.991764243 527.380803028 323.991764243 409.832675354 c 128,-1,11
 323.991764243 292.28454768 323.991764243 292.28454768 407.485271426 209.128213823 c 128,-1,12
 490.978778609 125.971879967 490.978778609 125.971879967 611.54386886 125.971879967 c 0,0,1
976 1229.99176424 m 128,-1,14
 1010.40520538 1229.99176424 1010.40520538 1229.99176424 1035.19848481 1205.19848481 c 128,-1,15
 1059.99176424 1180.40520538 1059.99176424 1180.40520538 1059.99176424 1146 c 2,16,-1
 1059.99176424 42 l 2,17,18
 1059.99176424 7.59479462303 1059.99176424 7.59479462303 1035.19848481 -17.1984848098 c 128,-1,19
 1010.40520538 -41.9917642427 1010.40520538 -41.9917642427 976 -41.9917642427 c 128,-1,20
 941.594794623 -41.9917642427 941.594794623 -41.9917642427 917.513450978 -17.9104205972 c 128,-1,21
 893.432107332 6.17092304832 893.432107332 6.17092304832 892.090008331 38.0799378614 c 1,22,23
 846.402495352 10.4120818924 846.402495352 10.4120818924 794.788832142 -8.58868391563 c 0,24,25
 703.997477293 -42.012106389 703.997477293 -42.012106389 611.779921157 -42.012106389 c 0,26,27
 486.930716394 -42.012106389 486.930716394 -42.012106389 381.178002381 19.5355182763 c 0,28,29
 277.338040638 79.9699293475 277.338040638 79.9699293475 216.673138197 183.783792595 c 128,-1,30
 156.008235757 287.597655842 156.008235757 287.597655842 156.008235757 410 c 128,-1,31
 156.008235757 532.402533181 156.008235757 532.402533181 216.737721851 636.326996476 c 0,32,33
 277.338495862 740.031198824 277.338495862 740.031198824 381.180822865 800.463323316 c 0,34,35
 486.917851717 861.998089295 486.917851717 861.998089295 611.744923685 861.998089295 c 0,36,37
 703.982021246 861.998089295 703.982021246 861.998089295 794.792077178 828.56317071 c 0,38,39
 846.357657571 809.577487192 846.357657571 809.577487192 892.008235757 781.941655413 c 1,40,-1
 892.008235757 1146 l 2,41,42
 892.008235757 1180.40520538 892.008235757 1180.40520538 916.80151519 1205.19848481 c 128,-1,13
 941.594794623 1229.99176424 941.594794623 1229.99176424 976 1229.99176424 c 128,-1,14
EndSplineSet
Validated: 1
EndChar

StartChar: e
Encoding: 101 101 69
Width: 1229
GlyphClass: 2
Flags: W
AnchorPoint: "Anchor-8" 615 -120 basechar 0
LayerCount: 2
Fore
SplineSet
608 694.008235757 m 0,0,1
 490.014896426 694.008235757 490.014896426 694.008235757 405.906962227 609.900301558 c 0,2,3
 355.918777897 559.912117228 355.918777897 559.912117228 336.318193877 493.991764243 c 1,4,-1
 879.681806123 493.991764243 l 1,5,6
 857.47910974 568.663497561 857.47910974 568.663497561 796.05283464 623.11059669 c 0,7,8
 716.067345035 694.008235757 716.067345035 694.008235757 608 694.008235757 c 0,0,1
608 861.991764243 m 128,-1,10
 794.405205377 861.991764243 794.405205377 861.991764243 927.19848481 729.19848481 c 128,-1,11
 1059.99176424 596.405205377 1059.99176424 596.405205377 1059.99176424 410 c 0,12,13
 1059.99176424 375.594794623 1059.99176424 375.594794623 1035.19848481 350.80151519 c 128,-1,14
 1010.40520538 326.008235757 1010.40520538 326.008235757 976 326.008235757 c 2,15,-1
 336.351463596 326.008235757 l 1,16,17
 358.541066013 251.685170988 358.541066013 251.685170988 419.83962962 197.514867942 c 0,18,19
 500.791170004 125.976984887 500.791170004 125.976984887 610.848320368 125.976984887 c 0,20,21
 666.770945599 125.976984887 666.770945599 125.976984887 726.068979228 145.736713657 c 128,-1,22
 785.367012856 165.496442428 785.367012856 165.496442428 834.217524344 201.54861182 c 0,23,24
 856.547242087 218.028068899 856.547242087 218.028068899 883.028707067 218.028068899 c 0,25,26
 926.408029567 218.028068899 926.408029567 218.028068899 951.681249132 183.782713035 c 0,27,28
 968.16157479 161.452147636 968.16157479 161.452147636 968.16157479 134.970016245 c 0,29,30
 968.16157479 91.5909984934 968.16157479 91.5909984934 933.915412234 66.3167141253 c 0,31,32
 862.98371063 13.9683165849 862.98371063 13.9683165849 779.011700091 -14.0194195344 c 128,-1,33
 695.039689552 -42.0071556537 695.039689552 -42.0071556537 610.989746881 -42.0071556537 c 0,34,35
 486.632484289 -42.0071556537 486.632484289 -42.0071556537 381.201994652 19.348884882 c 0,36,37
 277.30926238 79.8100163302 277.30926238 79.8100163302 216.658749069 183.696482191 c 128,-1,38
 156.008235757 287.582948051 156.008235757 287.582948051 156.008235757 410 c 0,39,40
 156.008235757 596.405205377 156.008235757 596.405205377 288.80151519 729.19848481 c 128,-1,9
 421.594794623 861.991764243 421.594794623 861.991764243 608 861.991764243 c 128,-1,10
EndSplineSet
Validated: 1
EndChar

StartChar: f
Encoding: 102 102 70
Width: 1229
GlyphClass: 2
Flags: W
AnchorPoint: "Anchor-8" 615 -120 basechar 0
LayerCount: 2
Fore
SplineSet
795.286918341 1230.00295109 m 0,0,1
 905.816125171 1230.00295109 905.816125171 1230.00295109 1009.8920944 1184.17476681 c 0,2,3
 1024.59266801 1177.70159123 1024.59266801 1177.70159123 1036.19679661 1166.09746263 c 128,-1,4
 1047.80092521 1154.49333403 1047.80092521 1154.49333403 1054.03784081 1138.44163723 c 128,-1,5
 1060.27475641 1122.38994044 1060.27475641 1122.38994044 1060.27475641 1106.2972969 c 128,-1,6
 1060.27475641 1090.20465336 1060.27475641 1090.20465336 1053.34353183 1074.46394431 c 0,7,8
 1038.87439006 1041.60473622 1038.87439006 1041.60473622 1006.47541113 1029.01447578 c 0,9,10
 991.101299072 1023.04008767 991.101299072 1023.04008767 975.008322116 1023.04008767 c 128,-1,11
 958.91534516 1023.04008767 958.91534516 1023.04008767 942.135476558 1030.42864877 c 0,12,13
 870.388463495 1062.02085255 870.388463495 1062.02085255 795.228217298 1062.02085255 c 0,14,15
 769.583513845 1062.02085255 769.583513845 1062.02085255 756.934605045 1053.47363976 c 0,16,17
 743.226519672 1044.21071246 743.226519672 1044.21071246 729.111557694 1016.03237946 c 0,18,19
 702.648394438 963.203554849 702.648394438 963.203554849 695.019156389 861.991764243 c 1,20,-1
 976 861.991764243 l 2,21,22
 1010.40520538 861.991764243 1010.40520538 861.991764243 1035.19848481 837.19848481 c 128,-1,23
 1059.99176424 812.405205377 1059.99176424 812.405205377 1059.99176424 778 c 128,-1,24
 1059.99176424 743.594794623 1059.99176424 743.594794623 1035.19848481 718.80151519 c 128,-1,25
 1010.40520538 694.008235757 1010.40520538 694.008235757 976 694.008235757 c 2,26,-1
 691.995434138 694.008235757 l 1,27,-1
 691.995434138 42 l 2,28,29
 691.995434138 7.59479462303 691.995434138 7.59479462303 667.19848481 -17.1984848098 c 128,-1,30
 642.405205377 -41.9917642427 642.405205377 -41.9917642427 608 -41.9917642427 c 128,-1,31
 573.594794623 -41.9917642427 573.594794623 -41.9917642427 548.80151519 -17.1984848098 c 128,-1,32
 524.008235758 7.59479462236 524.008235758 7.59479462236 524.008235758 42.0002381672 c 2,33,-1
 524.008235758 215.500133142 l 2,34,35
 524.010448657 608.652459951 524.010448657 608.652459951 524.011905653 694.008235757 c 1,36,-1
 240 694.008235757 l 2,37,38
 205.594794623 694.008235757 205.594794623 694.008235757 180.80151519 718.80151519 c 128,-1,39
 156.008235757 743.594794623 156.008235757 743.594794623 156.008235757 778 c 128,-1,40
 156.008235757 812.405205377 156.008235757 812.405205377 180.80151519 837.19848481 c 128,-1,41
 205.594794623 861.991764243 205.594794623 861.991764243 240 861.991764243 c 2,42,-1
 526.541682119 861.991764243 l 1,43,44
 535.639578145 1004.94144113 535.639578145 1004.94144113 578.898143467 1091.2995231 c 0,45,46
 610.836243893 1155.0586001 610.836243893 1155.0586001 666.830012081 1192.27337488 c 0,47,48
 723.598356296 1230.00295109 723.598356296 1230.00295109 795.286918341 1230.00295109 c 0,0,1
EndSplineSet
Validated: 1
EndChar

StartChar: g
Encoding: 103 103 71
Width: 1229
GlyphClass: 2
Flags: W
AnchorPoint: "Anchor-8" 615 -450 basechar 0
LayerCount: 2
Fore
SplineSet
611.54386886 125.971879967 m 0,0,1
 689.48283362 125.971879967 689.48283362 125.971879967 770.243530931 164.647592017 c 0,2,3
 845.104885758 200.498151748 845.104885758 200.498151748 892.008235757 255.273907016 c 1,4,-1
 892.008235757 564.696680501 l 1,5,6
 845.104783844 619.472046909 845.104783844 619.472046909 767.284473413 656.742129395 c 128,-1,7
 689.464162983 694.012211882 689.464162983 694.012211882 611.508120658 694.012211882 c 0,8,9
 490.62313014 694.012211882 490.62313014 694.012211882 407.307447191 610.696507455 c 128,-1,10
 323.991764243 527.380803028 323.991764243 527.380803028 323.991764243 409.832675354 c 128,-1,11
 323.991764243 292.28454768 323.991764243 292.28454768 407.485271426 209.128213823 c 128,-1,12
 490.978778609 125.971879967 490.978778609 125.971879967 611.54386886 125.971879967 c 0,0,1
976 861.991764243 m 128,-1,14
 1010.40520538 861.991764243 1010.40520538 861.991764243 1035.19848481 837.19848481 c 128,-1,15
 1059.99176424 812.405205377 1059.99176424 812.405205377 1059.99176424 778 c 2,16,-1
 1059.99176424 42 l 2,17,18
 1059.99176424 -80.4023840956 1059.99176424 -80.4023840956 999.262330432 -184.327025448 c 0,19,20
 938.661826778 -288.031032108 938.661826778 -288.031032108 834.821874092 -348.464757532 c 0,21,22
 729.074347635 -410.008670188 729.074347635 -410.008670188 604.979346608 -410.008670188 c 128,-1,23
 480.884345582 -410.008670188 480.884345582 -410.008670188 364.024026584 -351.97646552 c 0,24,25
 244.589782261 -292.666063407 244.589782261 -292.666063407 171.6834152 -190.885077818 c 0,26,27
 155.889802982 -168.835157643 155.889802982 -168.835157643 155.889802982 -143.04422491 c 0,28,29
 155.889802982 -107.233866607 155.889802982 -107.233866607 180.197146376 -82.9265232127 c 0,30,31
 185.211702938 -77.9119666508 185.211702938 -77.9119666508 191.114846154 -73.6834696561 c 0,32,33
 213.164752071 -57.8897930623 213.164752071 -57.8897930623 238.955944493 -57.8897930623 c 0,34,35
 274.766388314 -57.8897930623 274.766388314 -57.8897930623 299.073132678 -82.1965374263 c 0,36,37
 304.088442103 -87.2118468507 304.088442103 -87.2118468507 308.315829459 -93.113867662 c 0,38,39
 355.148159479 -158.493559356 355.148159479 -158.493559356 439.263015703 -200.257913719 c 128,-1,40
 523.377871927 -242.022268082 523.377871927 -242.022268082 604.449370118 -242.022268082 c 0,41,42
 725.36789901 -242.022268082 725.36789901 -242.022268082 809.64280202 -157.747322594 c 0,43,44
 890.606916157 -76.7832084572 890.606916157 -76.7832084572 891.984394486 38.0159956481 c 1,45,46
 846.342843289 10.3901219149 846.342843289 10.3901219149 794.788832142 -8.58868391563 c 0,47,48
 703.997477293 -42.012106389 703.997477293 -42.012106389 611.779921157 -42.012106389 c 0,49,50
 486.930716394 -42.012106389 486.930716394 -42.012106389 381.178002381 19.5355182763 c 0,51,52
 277.338040638 79.9699293475 277.338040638 79.9699293475 216.673138197 183.783792595 c 128,-1,53
 156.008235757 287.597655842 156.008235757 287.597655842 156.008235757 410 c 128,-1,54
 156.008235757 532.402533181 156.008235757 532.402533181 216.737721851 636.326996476 c 0,55,56
 277.338495862 740.031198824 277.338495862 740.031198824 381.180822865 800.463323316 c 0,57,58
 486.917851717 861.998089295 486.917851717 861.998089295 611.744923685 861.998089295 c 0,59,60
 703.982021246 861.998089295 703.982021246 861.998089295 794.792077178 828.56317071 c 0,61,62
 846.403199635 809.560719278 846.403199635 809.560719278 892.088867162 781.892833436 c 1,63,64
 893.422137072 813.819106692 893.422137072 813.819106692 917.508465848 837.905435467 c 128,-1,13
 941.594794623 861.991764243 941.594794623 861.991764243 976 861.991764243 c 128,-1,14
EndSplineSet
Validated: 1
EndChar

StartChar: h
Encoding: 104 104 72
Width: 1229
GlyphClass: 2
Flags: W
AnchorPoint: "Anchor-8" 615 -120 basechar 0
LayerCount: 2
Fore
SplineSet
240 1229.99176424 m 128,-1,1
 274.405205377 1229.99176424 274.405205377 1229.99176424 299.19848481 1205.19848481 c 128,-1,2
 323.991764243 1180.40520538 323.991764243 1180.40520538 323.991764243 1146 c 2,3,-1
 323.991764243 781.918561578 l 1,4,5
 369.644734818 809.561510424 369.644734818 809.561510424 421.214552826 828.552757602 c 0,6,7
 512.033730843 861.998085215 512.033730843 861.998085215 604.275542339 861.998085215 c 0,8,9
 729.093874637 861.998085215 729.093874637 861.998085215 834.826592162 800.463048162 c 0,10,11
 938.664143329 740.030972754 938.664143329 740.030972754 999.327953786 636.216359076 c 128,-1,12
 1059.99176424 532.401745399 1059.99176424 532.401745399 1059.99176424 410 c 2,13,-1
 1059.99176424 42 l 2,14,15
 1059.99176424 7.59479462303 1059.99176424 7.59479462303 1035.19848481 -17.1984848098 c 128,-1,16
 1010.40520538 -41.9917642427 1010.40520538 -41.9917642427 976 -41.9917642427 c 128,-1,17
 941.594794623 -41.9917642427 941.594794623 -41.9917642427 916.80151519 -17.1984848098 c 128,-1,18
 892.008235757 7.59479462303 892.008235757 7.59479462303 892.008235757 42 c 2,19,-1
 892.008235757 410 l 2,20,21
 892.008235757 527.714866408 892.008235757 527.714866408 809.054096775 610.335196168 c 0,22,23
 725.03900652 694.01220791 725.03900652 694.01220791 604.512363133 694.01220791 c 0,24,25
 526.556186004 694.01220791 526.556186004 694.01220791 445.76661982 655.311658078 c 0,26,27
 370.890646794 619.443891209 370.890646794 619.443891209 323.991764243 564.652362864 c 1,28,-1
 323.991764243 42 l 2,29,30
 323.991764243 7.59479462303 323.991764243 7.59479462303 299.19848481 -17.1984848098 c 128,-1,31
 274.405205377 -41.9917642427 274.405205377 -41.9917642427 240 -41.9917642427 c 128,-1,32
 205.594794623 -41.9917642427 205.594794623 -41.9917642427 180.80151519 -17.1984848098 c 128,-1,33
 156.008235757 7.59479462303 156.008235757 7.59479462303 156.008235757 42 c 2,34,-1
 156.008235757 1146 l 2,35,36
 156.008235757 1180.40520538 156.008235757 1180.40520538 180.80151519 1205.19848481 c 128,-1,0
 205.594794623 1229.99176424 205.594794623 1229.99176424 240 1229.99176424 c 128,-1,1
EndSplineSet
Validated: 1
EndChar

StartChar: i
Encoding: 105 105 73
Width: 1229
GlyphClass: 2
Flags: W
AnchorPoint: "Anchor-8" 615 -120 basechar 0
LayerCount: 2
Fore
SplineSet
240 861.991764243 m 2,0,-1
 608 861.991764243 l 2,1,2
 642.405205377 861.991764243 642.405205377 861.991764243 667.19848481 837.19848481 c 128,-1,3
 691.991764243 812.405205377 691.991764243 812.405205377 691.991764243 778 c 2,4,-1
 691.991764243 125.991764243 l 1,5,-1
 976 125.991764243 l 2,6,7
 1010.40520538 125.991764243 1010.40520538 125.991764243 1035.19848481 101.19848481 c 128,-1,8
 1059.99176424 76.405205377 1059.99176424 76.405205377 1059.99176424 42 c 128,-1,9
 1059.99176424 7.59479462303 1059.99176424 7.59479462303 1035.19848481 -17.1984848098 c 128,-1,10
 1010.40520538 -41.9917642427 1010.40520538 -41.9917642427 976 -41.9917642427 c 2,11,-1
 240 -41.9917642427 l 2,12,13
 205.594794623 -41.9917642427 205.594794623 -41.9917642427 180.80151519 -17.1984848098 c 128,-1,14
 156.008235757 7.59479462303 156.008235757 7.59479462303 156.008235757 42 c 128,-1,15
 156.008235757 76.405205377 156.008235757 76.405205377 180.80151519 101.19848481 c 128,-1,16
 205.594794623 125.991764243 205.594794623 125.991764243 240 125.991764243 c 2,17,-1
 524.008235757 125.991764243 l 1,18,-1
 524.008235757 694.008235757 l 1,19,-1
 240 694.008235757 l 2,20,21
 205.594794623 694.008235757 205.594794623 694.008235757 180.80151519 718.80151519 c 128,-1,22
 156.008235757 743.594794623 156.008235757 743.594794623 156.008235757 778 c 128,-1,23
 156.008235757 812.405205377 156.008235757 812.405205377 180.80151519 837.19848481 c 128,-1,24
 205.594794623 861.991764243 205.594794623 861.991764243 240 861.991764243 c 2,0,-1
608 1221.99176424 m 128,-1,26
 661.405205377 1221.99176424 661.405205377 1221.99176424 699.69848481 1183.69848481 c 128,-1,27
 737.991764243 1145.40520538 737.991764243 1145.40520538 737.991764243 1092 c 128,-1,28
 737.991764243 1038.59479462 737.991764243 1038.59479462 699.69848481 1000.30151519 c 128,-1,29
 661.405205377 962.008235757 661.405205377 962.008235757 608 962.008235757 c 128,-1,30
 554.594794623 962.008235757 554.594794623 962.008235757 516.30151519 1000.30151519 c 128,-1,31
 478.008235757 1038.59479462 478.008235757 1038.59479462 478.008235757 1092 c 128,-1,32
 478.008235757 1145.40520538 478.008235757 1145.40520538 516.30151519 1183.69848481 c 128,-1,25
 554.594794623 1221.99176424 554.594794623 1221.99176424 608 1221.99176424 c 128,-1,26
EndSplineSet
Validated: 1
EndChar

StartChar: j
Encoding: 106 106 74
Width: 1229
GlyphClass: 2
Flags: W
AnchorPoint: "Anchor-8" 515 -450 basechar 0
LayerCount: 2
Fore
SplineSet
608 861.991764243 m 2,0,-1
 976 861.991764243 l 2,1,2
 1010.40520538 861.991764243 1010.40520538 861.991764243 1035.19848481 837.19848481 c 128,-1,3
 1059.99176424 812.405205377 1059.99176424 812.405205377 1059.99176424 778 c 2,4,-1
 1059.99176424 42 l 2,5,6
 1059.99176424 -144.405205377 1059.99176424 -144.405205377 927.19848481 -277.19848481 c 128,-1,7
 794.405205377 -409.991764243 794.405205377 -409.991764243 608 -409.991764243 c 128,-1,8
 421.594794623 -409.991764243 421.594794623 -409.991764243 288.80151519 -277.19848481 c 128,-1,9
 156.008235757 -144.405205377 156.008235757 -144.405205377 156.008235757 42 c 0,10,11
 156.008235757 76.405205377 156.008235757 76.405205377 180.80151519 101.19848481 c 128,-1,12
 205.594794623 125.991764243 205.594794623 125.991764243 240 125.991764243 c 128,-1,13
 274.405205377 125.991764243 274.405205377 125.991764243 299.19848481 101.19848481 c 128,-1,14
 323.991764243 76.405205377 323.991764243 76.405205377 323.991764243 42 c 0,15,16
 323.991764243 -75.594794623 323.991764243 -75.594794623 407.19848481 -158.80151519 c 128,-1,17
 490.405205377 -242.008235757 490.405205377 -242.008235757 608 -242.008235757 c 128,-1,18
 725.594794623 -242.008235757 725.594794623 -242.008235757 808.80151519 -158.80151519 c 128,-1,19
 892.008235757 -75.594794623 892.008235757 -75.594794623 892.008235757 42 c 2,20,-1
 892.008235757 694.008235757 l 1,21,-1
 608 694.008235757 l 2,22,23
 573.594794623 694.008235757 573.594794623 694.008235757 548.80151519 718.80151519 c 128,-1,24
 524.008235757 743.594794623 524.008235757 743.594794623 524.008235757 778 c 128,-1,25
 524.008235757 812.405205377 524.008235757 812.405205377 548.80151519 837.19848481 c 128,-1,26
 573.594794623 861.991764243 573.594794623 861.991764243 608 861.991764243 c 2,0,-1
792 1221.99176424 m 128,-1,28
 845.405205377 1221.99176424 845.405205377 1221.99176424 883.69848481 1183.69848481 c 128,-1,29
 921.991764243 1145.40520538 921.991764243 1145.40520538 921.991764243 1092 c 128,-1,30
 921.991764243 1038.59479462 921.991764243 1038.59479462 883.69848481 1000.30151519 c 128,-1,31
 845.405205377 962.008235757 845.405205377 962.008235757 792 962.008235757 c 128,-1,32
 738.594794623 962.008235757 738.594794623 962.008235757 700.30151519 1000.30151519 c 128,-1,33
 662.008235757 1038.59479462 662.008235757 1038.59479462 662.008235757 1092 c 128,-1,34
 662.008235757 1145.40520538 662.008235757 1145.40520538 700.30151519 1183.69848481 c 128,-1,27
 738.594794623 1221.99176424 738.594794623 1221.99176424 792 1221.99176424 c 128,-1,28
EndSplineSet
Validated: 1
EndChar

StartChar: k
Encoding: 107 107 75
Width: 1229
GlyphClass: 2
Flags: W
AnchorPoint: "Anchor-8" 655 -120 basechar 0
LayerCount: 2
Fore
SplineSet
240 1229.99176424 m 128,-1,1
 274.405205377 1229.99176424 274.405205377 1229.99176424 299.19848481 1205.19848481 c 128,-1,2
 323.991764243 1180.40520538 323.991764243 1180.40520538 323.991764243 1146 c 2,3,-1
 323.991764243 493.991764243 l 1,4,-1
 608 493.991764243 l 2,5,6
 725.594794623 493.991764243 725.594794623 493.991764243 808.80151519 577.19848481 c 128,-1,7
 892.008235757 660.405205377 892.008235757 660.405205377 892.008235757 778 c 0,8,9
 892.008235757 812.405205377 892.008235757 812.405205377 916.80151519 837.19848481 c 128,-1,10
 941.594794623 861.991764243 941.594794623 861.991764243 976 861.991764243 c 128,-1,11
 1010.40520538 861.991764243 1010.40520538 861.991764243 1035.19848481 837.19848481 c 128,-1,12
 1059.99176424 812.405205377 1059.99176424 812.405205377 1059.99176424 778 c 0,13,14
 1059.99176424 646.665895785 1059.99176424 646.665895785 990.448898985 537.439759179 c 0,15,16
 941.603149314 460.721141011 941.603149314 460.721141011 870.289465799 410 c 1,17,18
 941.603149314 359.278858989 941.603149314 359.278858989 990.448898985 282.560240821 c 0,19,20
 1059.99176424 173.334104215 1059.99176424 173.334104215 1059.99176424 42 c 0,21,22
 1059.99176424 7.59479462303 1059.99176424 7.59479462303 1035.19848481 -17.1984848098 c 128,-1,23
 1010.40520538 -41.9917642427 1010.40520538 -41.9917642427 976 -41.9917642427 c 128,-1,24
 941.594794623 -41.9917642427 941.594794623 -41.9917642427 916.80151519 -17.1984848098 c 128,-1,25
 892.008235757 7.59479462303 892.008235757 7.59479462303 892.008235757 42 c 0,26,27
 892.008235757 159.594794623 892.008235757 159.594794623 808.80151519 242.80151519 c 128,-1,28
 725.594794623 326.008235757 725.594794623 326.008235757 608 326.008235757 c 2,29,-1
 323.991764243 326.008235757 l 1,30,-1
 323.991764243 42 l 2,31,32
 323.991764243 7.59479462303 323.991764243 7.59479462303 299.19848481 -17.1984848098 c 128,-1,33
 274.405205377 -41.9917642427 274.405205377 -41.9917642427 240 -41.9917642427 c 128,-1,34
 205.594794623 -41.9917642427 205.594794623 -41.9917642427 180.80151519 -17.1984848098 c 128,-1,35
 156.008235757 7.59479462303 156.008235757 7.59479462303 156.008235757 42 c 2,36,-1
 156.008235757 1146 l 2,37,38
 156.008235757 1180.40520538 156.008235757 1180.40520538 180.80151519 1205.19848481 c 128,-1,0
 205.594794623 1229.99176424 205.594794623 1229.99176424 240 1229.99176424 c 128,-1,1
EndSplineSet
Validated: 1
EndChar

StartChar: l
Encoding: 108 108 76
Width: 1229
GlyphClass: 2
Flags: W
AnchorPoint: "Anchor-8" 615 -120 basechar 0
LayerCount: 2
Fore
SplineSet
240 1229.99176424 m 0,0,1
 426.405205377 1229.99176424 426.405205377 1229.99176424 559.19848481 1097.19848481 c 128,-1,2
 691.991764243 964.405205377 691.991764243 964.405205377 691.991764243 778 c 2,3,-1
 691.991764243 125.991764243 l 1,4,-1
 976 125.991764243 l 2,5,6
 1010.40520538 125.991764243 1010.40520538 125.991764243 1035.19848481 101.19848481 c 128,-1,7
 1059.99176424 76.405205377 1059.99176424 76.405205377 1059.99176424 42 c 128,-1,8
 1059.99176424 7.59479462303 1059.99176424 7.59479462303 1035.19848481 -17.1984848098 c 128,-1,9
 1010.40520538 -41.9917642427 1010.40520538 -41.9917642427 976 -41.9917642427 c 2,10,-1
 608 -41.9917642427 l 2,11,12
 573.594794623 -41.9917642427 573.594794623 -41.9917642427 548.80151519 -17.1984848098 c 128,-1,13
 524.008235757 7.59479462303 524.008235757 7.59479462303 524.008235757 42 c 2,14,-1
 524.008235757 778 l 2,15,16
 524.008235757 895.594794623 524.008235757 895.594794623 440.80151519 978.80151519 c 128,-1,17
 357.594794623 1062.00823576 357.594794623 1062.00823576 240 1062.00823576 c 0,18,19
 205.594794623 1062.00823576 205.594794623 1062.00823576 180.80151519 1086.80151519 c 128,-1,20
 156.008235757 1111.59479462 156.008235757 1111.59479462 156.008235757 1146 c 128,-1,21
 156.008235757 1180.40520538 156.008235757 1180.40520538 180.80151519 1205.19848481 c 128,-1,22
 205.594794623 1229.99176424 205.594794623 1229.99176424 240 1229.99176424 c 0,0,1
EndSplineSet
Validated: 1
EndChar

StartChar: m
Encoding: 109 109 77
Width: 1229
GlyphClass: 2
Flags: W
AnchorPoint: "Anchor-8" 615 -120 basechar 0
LayerCount: 2
Fore
SplineSet
323.99567049 318.001172857 m 2,0,1
 323.992740803 42.0000000349 323.992740803 42.0000000349 323.99176424 42 c 0,2,3
 323.991764243 7.59479462303 323.991764243 7.59479462303 299.19848481 -17.1984848098 c 128,-1,4
 274.405205377 -41.9917642427 274.405205377 -41.9917642427 240 -41.9917642427 c 128,-1,5
 205.594794623 -41.9917642427 205.594794623 -41.9917642427 180.80151519 -17.1984848098 c 128,-1,6
 156.008235757 7.59479462303 156.008235757 7.59479462303 156.008235757 42 c 2,7,-1
 156.008235757 778 l 2,8,9
 156.008235757 812.405205377 156.008235757 812.405205377 180.80151519 837.19848481 c 128,-1,10
 205.594794623 861.991764243 205.594794623 861.991764243 240 861.991764243 c 0,11,12
 279.903569701 861.991764243 279.903569701 861.991764243 305.962609508 829.688346551 c 1,13,14
 357.986739827 861.991766341 357.986739827 861.991766341 425.373516663 861.991765292 c 128,-1,15
 492.760293499 861.991764243 492.760293499 861.991764243 549.517724187 824.389542256 c 0,16,17
 582.965271731 802.230292051 582.965271731 802.230292051 608.000046571 770.068688222 c 1,18,19
 633.034597491 802.230205409 633.034597491 802.230205409 666.482275813 824.389542256 c 0,20,21
 723.239706501 861.991764243 723.239706501 861.991764243 792 861.991764243 c 128,-1,22
 860.760337269 861.991764243 860.760337269 861.991764243 917.518414987 824.388879881 c 0,23,24
 973.158877038 787.526428854 973.158877038 787.526428854 1005.13292494 723.579208279 c 0,25,26
 1059.99176424 613.864533009 1059.99176424 613.864533009 1059.99176424 410.00390625 c 2,27,-1
 1059.99176424 42 l 2,28,29
 1059.99176424 7.59479462303 1059.99176424 7.59479462303 1035.19848481 -17.1984848098 c 128,-1,30
 1010.40520538 -41.9917642427 1010.40520538 -41.9917642427 976 -41.9917642427 c 128,-1,31
 941.594794623 -41.9917642427 941.594794623 -41.9917642427 916.80151519 -17.1984848098 c 128,-1,32
 892.008235758 7.59479462243 892.008235758 7.59479462243 892.008235758 41.999775425 c 2,33,-1
 892.008235758 410.001606365 l 2,34,35
 892.006890698 574.133887288 892.006890698 574.133887288 854.86086987 648.423436468 c 0,36,37
 840.743533814 676.658645913 840.743533814 676.658645913 827.882163442 685.333440835 c 128,-1,38
 815.020793071 694.008235757 815.020793071 694.008235757 792 694.008235757 c 128,-1,39
 768.978592678 694.008235757 768.978592678 694.008235757 756.825827569 685.811634491 c 0,40,41
 743.254231643 676.658083069 743.254231643 676.658083069 729.137035187 648.42315283 c 0,42,43
 692.371584166 574.892250787 692.371584166 574.892250787 691.991652701 409.908702487 c 0,44,45
 691.91184677 375.15174106 691.91184677 375.15174106 667.180402344 350.877839971 c 128,-1,46
 642.448957919 326.603938882 642.448957919 326.603938882 608 326.603938882 c 0,47,48
 573.092109916 326.603938882 573.092109916 326.603938882 548.589607823 351.10594323 c 128,-1,49
 524.087105729 375.607947578 524.087105729 375.607947578 524.008347954 409.908417678 c 0,50,51
 523.628415833 574.892250792 523.628415833 574.892250792 486.862822996 648.423436467 c 0,52,53
 472.745768355 676.65808307 472.745768355 676.65808307 459.883587838 685.333159414 c 128,-1,54
 447.021407322 694.008235757 447.021407322 694.008235757 424 694.008235757 c 128,-1,55
 400.979206929 694.008235757 400.979206929 694.008235757 388.827508973 685.812103877 c 0,56,57
 375.256466184 676.658645912 375.256466184 676.658645912 361.138988312 648.42315283 c 0,58,59
 323.997015594 574.139207396 323.997015594 574.139207396 323.99567049 410.001503975 c 2,60,-1
 323.99567049 318.001172857 l 2,0,1
EndSplineSet
Validated: 33
EndChar

StartChar: n
Encoding: 110 110 78
Width: 1229
GlyphClass: 2
Flags: W
AnchorPoint: "Anchor-8" 615 -120 basechar 0
LayerCount: 2
Fore
SplineSet
240 861.991764243 m 128,-1,1
 274.405205377 861.991764243 274.405205377 861.991764243 298.495659599 837.90131002 c 128,-1,2
 322.586113821 813.810855798 322.586113821 813.810855798 323.91207115 781.870297958 c 1,3,4
 369.59972142 809.544933662 369.59972142 809.544933662 421.214552826 828.552757602 c 0,5,6
 512.033730843 861.998085215 512.033730843 861.998085215 604.275542339 861.998085215 c 0,7,8
 729.093874637 861.998085215 729.093874637 861.998085215 834.826592162 800.463048162 c 0,9,10
 938.664143329 740.030972754 938.664143329 740.030972754 999.327953786 636.216359076 c 128,-1,11
 1059.99176424 532.401745399 1059.99176424 532.401745399 1059.99176424 410 c 2,12,-1
 1059.99176424 42 l 2,13,14
 1059.99176424 7.59479462303 1059.99176424 7.59479462303 1035.19848481 -17.1984848098 c 128,-1,15
 1010.40520538 -41.9917642427 1010.40520538 -41.9917642427 976 -41.9917642427 c 128,-1,16
 941.594794623 -41.9917642427 941.594794623 -41.9917642427 916.80151519 -17.1984848098 c 128,-1,17
 892.008235757 7.59479462303 892.008235757 7.59479462303 892.008235757 42 c 2,18,-1
 892.008235757 410 l 2,19,20
 892.008235757 527.714866408 892.008235757 527.714866408 809.054096775 610.335196168 c 0,21,22
 725.03900652 694.01220791 725.03900652 694.01220791 604.512363133 694.01220791 c 0,23,24
 526.556186004 694.01220791 526.556186004 694.01220791 445.76661982 655.311658078 c 0,25,26
 370.890646794 619.443891209 370.890646794 619.443891209 323.991764243 564.652362864 c 1,27,-1
 323.991764243 42 l 2,28,29
 323.991764243 7.59479462303 323.991764243 7.59479462303 299.19848481 -17.1984848098 c 128,-1,30
 274.405205377 -41.9917642427 274.405205377 -41.9917642427 240 -41.9917642427 c 128,-1,31
 205.594794623 -41.9917642427 205.594794623 -41.9917642427 180.80151519 -17.1984848098 c 128,-1,32
 156.008235757 7.59479462303 156.008235757 7.59479462303 156.008235757 42 c 2,33,-1
 156.008235757 778 l 2,34,35
 156.008235757 812.405205377 156.008235757 812.405205377 180.80151519 837.19848481 c 128,-1,0
 205.594794623 861.991764243 205.594794623 861.991764243 240 861.991764243 c 128,-1,1
EndSplineSet
Validated: 1
EndChar

StartChar: o
Encoding: 111 111 79
Width: 1229
GlyphClass: 2
Flags: W
AnchorPoint: "Anchor-8" 615 -120 basechar 0
LayerCount: 2
Fore
SplineSet
608 694.008235757 m 128,-1,1
 490.405205377 694.008235757 490.405205377 694.008235757 407.19848481 610.80151519 c 128,-1,2
 323.991764243 527.594794623 323.991764243 527.594794623 323.991764243 410 c 128,-1,3
 323.991764243 292.405205377 323.991764243 292.405205377 407.19848481 209.19848481 c 128,-1,4
 490.405205377 125.991764243 490.405205377 125.991764243 608 125.991764243 c 128,-1,5
 725.594794623 125.991764243 725.594794623 125.991764243 808.80151519 209.19848481 c 128,-1,6
 892.008235757 292.405205377 892.008235757 292.405205377 892.008235757 410 c 128,-1,7
 892.008235757 527.594794623 892.008235757 527.594794623 808.80151519 610.80151519 c 128,-1,0
 725.594794623 694.008235757 725.594794623 694.008235757 608 694.008235757 c 128,-1,1
608 861.991764243 m 128,-1,9
 794.405205377 861.991764243 794.405205377 861.991764243 927.19848481 729.19848481 c 128,-1,10
 1059.99176424 596.405205377 1059.99176424 596.405205377 1059.99176424 410 c 128,-1,11
 1059.99176424 223.594794623 1059.99176424 223.594794623 927.19848481 90.8015151902 c 128,-1,12
 794.405205377 -41.9917642427 794.405205377 -41.9917642427 608 -41.9917642427 c 128,-1,13
 421.594794623 -41.9917642427 421.594794623 -41.9917642427 288.80151519 90.8015151902 c 128,-1,14
 156.008235757 223.594794623 156.008235757 223.594794623 156.008235757 410 c 128,-1,15
 156.008235757 596.405205377 156.008235757 596.405205377 288.80151519 729.19848481 c 128,-1,8
 421.594794623 861.991764243 421.594794623 861.991764243 608 861.991764243 c 128,-1,9
EndSplineSet
Validated: 1
EndChar

StartChar: p
Encoding: 112 112 80
Width: 1229
GlyphClass: 2
Flags: W
AnchorPoint: "Anchor-8" 300 -450 basechar 0
LayerCount: 2
Fore
SplineSet
604.512169391 694.012209675 m 0,0,1
 526.556189689 694.012209675 526.556189689 694.012209675 445.76661982 655.311658078 c 0,2,3
 370.890646794 619.443891209 370.890646794 619.443891209 323.991764243 564.652362864 c 1,4,-1
 323.991764243 255.319901799 l 1,5,6
 370.890001864 200.527304847 370.890001864 200.527304847 448.713495036 163.24959443 c 128,-1,7
 526.536988208 125.971884012 526.536988208 125.971884012 604.47662234 125.971884012 c 0,8,9
 725.363738627 125.971884012 725.363738627 125.971884012 808.685987192 209.294153427 c 128,-1,10
 892.008235757 292.616422842 892.008235757 292.616422842 892.008235757 410 c 0,11,12
 892.008235757 527.714866408 892.008235757 527.714866408 809.054096775 610.335196168 c 0,13,14
 725.039004748 694.012209675 725.039004748 694.012209675 604.512169391 694.012209675 c 0,0,1
240 861.991764243 m 128,-1,16
 274.405205377 861.991764243 274.405205377 861.991764243 298.495659599 837.90131002 c 128,-1,17
 322.586113821 813.810855798 322.586113821 813.810855798 323.91207115 781.870297958 c 1,18,19
 369.59972142 809.544933662 369.59972142 809.544933662 421.214552826 828.552757602 c 0,20,21
 512.033730843 861.998085215 512.033730843 861.998085215 604.275542339 861.998085215 c 0,22,23
 729.093874637 861.998085215 729.093874637 861.998085215 834.826592162 800.463048162 c 0,24,25
 938.664143329 740.030972754 938.664143329 740.030972754 999.327953786 636.216359076 c 128,-1,26
 1059.99176424 532.401745399 1059.99176424 532.401745399 1059.99176424 410 c 128,-1,27
 1059.99176424 287.598443629 1059.99176424 287.598443629 999.263681079 183.673919535 c 0,28,29
 938.664598558 79.9701554203 938.664598558 79.9701554203 834.829412665 19.5357934735 c 0,30,31
 729.081012523 -42.0121012461 729.081012523 -42.0121012461 604.24062709 -42.0121012461 c 0,32,33
 512.017989363 -42.0121012461 512.017989363 -42.0121012461 421.217943375 -8.5785555994 c 0,34,35
 369.646275022 10.4106828877 369.646275022 10.4106828877 323.991764243 38.0533651943 c 1,36,-1
 323.991764243 -326 l 2,37,38
 323.991764243 -360.405205377 323.991764243 -360.405205377 299.19848481 -385.19848481 c 128,-1,39
 274.405205377 -409.991764243 274.405205377 -409.991764243 240 -409.991764243 c 128,-1,40
 205.594794623 -409.991764243 205.594794623 -409.991764243 180.80151519 -385.19848481 c 128,-1,41
 156.008235757 -360.405205377 156.008235757 -360.405205377 156.008235757 -326 c 2,42,-1
 156.008235757 778 l 2,43,44
 156.008235757 812.405205377 156.008235757 812.405205377 180.80151519 837.19848481 c 128,-1,15
 205.594794623 861.991764243 205.594794623 861.991764243 240 861.991764243 c 128,-1,16
EndSplineSet
Validated: 1
EndChar

StartChar: q
Encoding: 113 113 81
Width: 1229
GlyphClass: 2
Flags: W
AnchorPoint: "Anchor-8" 915 -450 basechar 0
LayerCount: 2
Fore
SplineSet
611.5233927 125.971883874 m 0,0,1
 689.463011503 125.971883874 689.463011503 125.971883874 770.235501092 164.662173321 c 0,2,3
 845.109998136 200.527304847 845.109998136 200.527304847 892.008235757 255.319901799 c 1,4,-1
 892.008235757 564.652362864 l 1,5,6
 845.109353206 619.443891209 845.109353206 619.443891209 767.276583601 656.72804956 c 128,-1,7
 689.443813996 694.01220791 689.443813996 694.01220791 611.487636867 694.01220791 c 0,8,9
 490.621438727 694.01220791 490.621438727 694.01220791 407.306601485 610.697349583 c 128,-1,10
 323.991764243 527.382491256 323.991764243 527.382491256 323.991764243 409.83420744 c 128,-1,11
 323.991764243 292.285923624 323.991764243 292.285923624 407.482849618 209.128903749 c 128,-1,12
 490.973934994 125.971883874 490.973934994 125.971883874 611.5233927 125.971883874 c 0,0,1
976 861.991764243 m 128,-1,14
 1010.40520538 861.991764243 1010.40520538 861.991764243 1035.19848481 837.19848481 c 128,-1,15
 1059.99176424 812.405205377 1059.99176424 812.405205377 1059.99176424 778 c 2,16,-1
 1059.99176424 -326 l 2,17,18
 1059.99176424 -360.405205377 1059.99176424 -360.405205377 1035.19848481 -385.19848481 c 128,-1,19
 1010.40520538 -409.991764243 1010.40520538 -409.991764243 976 -409.991764243 c 128,-1,20
 941.594794623 -409.991764243 941.594794623 -409.991764243 916.80151519 -385.19848481 c 128,-1,21
 892.008235757 -360.405205377 892.008235757 -360.405205377 892.008235757 -326 c 2,22,-1
 892.008235757 38.0533651943 l 1,23,24
 846.353724978 10.4106828878 846.353724978 10.4106828878 794.782056626 -8.57855559933 c 0,25,26
 703.982010727 -42.0121012127 703.982010727 -42.0121012127 611.759369333 -42.0121012127 c 0,27,28
 486.918987419 -42.0121012127 486.918987419 -42.0121012127 381.170587335 19.5357934735 c 0,29,30
 277.335401442 79.9701554203 277.335401442 79.9701554203 216.6718186 183.784299525 c 128,-1,31
 156.008235757 287.598443629 156.008235757 287.598443629 156.008235757 410 c 128,-1,32
 156.008235757 532.401745399 156.008235757 532.401745399 216.736393267 636.326476861 c 0,33,34
 277.335856671 740.030972754 277.335856671 740.030972754 381.173407838 800.463048162 c 0,35,36
 486.906123735 861.998084267 486.906123735 861.998084267 611.724355053 861.998084267 c 0,37,38
 703.966271731 861.998084267 703.966271731 861.998084267 794.785447174 828.552757602 c 0,39,40
 846.400278579 809.544933662 846.400278579 809.544933662 892.087928849 781.870297961 c 1,41,42
 893.413886179 813.810855798 893.413886179 813.810855798 917.504340401 837.90131002 c 128,-1,13
 941.594794623 861.991764243 941.594794623 861.991764243 976 861.991764243 c 128,-1,14
EndSplineSet
Validated: 1
EndChar

StartChar: r
Encoding: 114 114 82
Width: 1229
GlyphClass: 2
Flags: W
AnchorPoint: "Anchor-8" 555 -120 basechar 0
LayerCount: 2
Fore
SplineSet
240 861.991764243 m 128,-1,1
 274.405205377 861.991764243 274.405205377 861.991764243 298.551113662 837.845855958 c 128,-1,2
 322.697021947 813.699947673 322.697021947 813.699947673 323.924150855 781.567170474 c 1,3,4
 369.438385422 809.001110086 369.438385422 809.001110086 420.908258546 827.906220698 c 0,5,6
 513.648938021 861.970279868 513.648938021 861.970279868 608.01953125 861.970279868 c 0,7,8
 733.63953557 861.970279868 733.63953557 861.970279868 852.326610131 803.307700191 c 0,9,10
 971.640695892 744.335212341 971.640695892 744.335212341 1044.32385862 642.868251745 c 0,11,12
 1060.11878488 620.817527145 1060.11878488 620.817527145 1060.11878488 595.025463417 c 0,13,14
 1060.11878488 559.215391195 1060.11878488 559.215391195 1035.81161929 534.908225613 c 0,15,16
 1030.79784567 529.894451993 1030.79784567 529.894451993 1024.89730318 525.667599036 c 0,17,18
 1002.84582209 509.870455264 1002.84582209 509.870455264 977.051516805 509.870455264 c 0,19,20
 941.241291434 509.870455264 941.241291434 509.870455264 916.934644164 534.177102534 c 0,21,22
 911.919522802 539.192223896 911.919522802 539.192223896 907.691976298 545.094345827 c 0,23,24
 861.114805566 610.117863597 861.114805566 610.117863597 776.252957862 652.05230749 c 128,-1,25
 691.391110158 693.986751382 691.391110158 693.986751382 609.609184363 693.986751382 c 128,-1,26
 527.827258568 693.986751382 527.827258568 693.986751382 445.437108836 654.705085306 c 0,27,28
 370.666218 619.056100864 370.666218 619.056100864 323.991764243 564.631128234 c 1,29,-1
 323.991764243 42 l 2,30,31
 323.991764243 7.59479462303 323.991764243 7.59479462303 299.19848481 -17.1984848098 c 128,-1,32
 274.405205377 -41.9917642427 274.405205377 -41.9917642427 240 -41.9917642427 c 128,-1,33
 205.594794623 -41.9917642427 205.594794623 -41.9917642427 180.80151519 -17.1984848098 c 128,-1,34
 156.008235757 7.59479462303 156.008235757 7.59479462303 156.008235757 42 c 2,35,-1
 156.008235757 778 l 2,36,37
 156.008235757 812.405205377 156.008235757 812.405205377 180.80151519 837.19848481 c 128,-1,0
 205.594794623 861.991764243 205.594794623 861.991764243 240 861.991764243 c 128,-1,1
EndSplineSet
Validated: 1
EndChar

